<svg width="31" height="30" viewBox="0 0 31 30" fill="none" xmlns="http://www.w3.org/2000/svg">
<path d="M20.1462 3.08812C20.1824 2.97043 20.1951 2.84675 20.1835 2.72416C20.1719 2.60157 20.1362 2.48247 20.0786 2.37365C20.021 2.26483 19.9425 2.16843 19.8476 2.08995C19.7527 2.01147 19.6433 1.95244 19.5256 1.91625C19.4079 1.88005 19.2842 1.86739 19.1616 1.87899C19.039 1.8906 18.9199 1.92623 18.8111 1.98386C18.7023 2.04149 18.6059 2.11999 18.5274 2.21487C18.4489 2.30976 18.3899 2.41918 18.3537 2.53687L10.8537 26.9119C10.7806 27.1496 10.8049 27.4066 10.9213 27.6263C11.0377 27.8461 11.2366 28.0106 11.4743 28.0837C11.712 28.1568 11.969 28.1325 12.1888 28.0161C12.4086 27.8997 12.5731 27.7008 12.6462 27.4631L20.1462 3.08812ZM9.60122 7.77375C9.68852 7.86083 9.75779 7.96429 9.80505 8.07819C9.85231 8.19208 9.87664 8.31418 9.87664 8.4375C9.87664 8.56081 9.85231 8.68291 9.80505 8.79681C9.75779 8.91071 9.68852 9.01416 9.60122 9.10125L3.70059 15L9.60122 20.8987C9.77725 21.0748 9.87615 21.3135 9.87615 21.5625C9.87615 21.8115 9.77725 22.0502 9.60122 22.2262C9.42518 22.4023 9.18642 22.5012 8.93747 22.5012C8.68851 22.5012 8.44975 22.4023 8.27372 22.2262L1.71122 15.6637C1.62391 15.5767 1.55464 15.4732 1.50738 15.3593C1.46012 15.2454 1.43579 15.1233 1.43579 15C1.43579 14.8767 1.46012 14.7546 1.50738 14.6407C1.55464 14.5268 1.62391 14.4233 1.71122 14.3362L8.27372 7.77375C8.3608 7.68644 8.46426 7.61717 8.57815 7.56991C8.69205 7.52265 8.81415 7.49832 8.93747 7.49832C9.06078 7.49832 9.18288 7.52265 9.29678 7.56991C9.41068 7.61717 9.51413 7.68644 9.60122 7.77375ZM21.3987 7.77375C21.3114 7.86083 21.2421 7.96429 21.1949 8.07819C21.1476 8.19208 21.1233 8.31418 21.1233 8.4375C21.1233 8.56081 21.1476 8.68291 21.1949 8.79681C21.2421 8.91071 21.3114 9.01416 21.3987 9.10125L27.2993 15L21.3987 20.8987C21.3116 20.9859 21.2424 21.0894 21.1952 21.2033C21.1481 21.3172 21.1238 21.4392 21.1238 21.5625C21.1238 21.6858 21.1481 21.8078 21.1952 21.9217C21.2424 22.0356 21.3116 22.1391 21.3987 22.2262C21.4859 22.3134 21.5894 22.3826 21.7032 22.4297C21.8171 22.4769 21.9392 22.5012 22.0625 22.5012C22.1857 22.5012 22.3078 22.4769 22.4217 22.4297C22.5356 22.3826 22.6391 22.3134 22.7262 22.2262L29.2887 15.6637C29.376 15.5767 29.4453 15.4732 29.4926 15.3593C29.5398 15.2454 29.5641 15.1233 29.5641 15C29.5641 14.8767 29.5398 14.7546 29.4926 14.6407C29.4453 14.5268 29.376 14.4233 29.2887 14.3362L22.7262 7.77375C22.6391 7.68644 22.5357 7.61717 22.4218 7.56991C22.3079 7.52265 22.1858 7.49832 22.0625 7.49832C21.9392 7.49832 21.8171 7.52265 21.7032 7.56991C21.5893 7.61717 21.4858 7.68644 21.3987 7.77375Z" fill="black"/>
</svg>
