<svg width="17" height="20" viewBox="0 0 17 20" fill="none" xmlns="http://www.w3.org/2000/svg">
<g clip-path="url(#clip0)">
<path d="M11.1122 11.8249L9.8422 13.6153C7.8751 12.3118 6.2358 10.4634 5.07972 8.24532L6.66709 6.81317C6.85323 6.64528 6.98477 6.41257 7.04117 6.15143C7.09756 5.89028 7.07561 5.61542 6.97876 5.36983L5.53163 1.6956C5.42781 1.43201 5.24434 1.21857 5.01393 1.09334C4.78353 0.968115 4.52117 0.939243 4.27363 1.01187L1.51928 1.81701C1.2622 1.89262 1.03866 2.07199 0.891064 2.3211C0.743465 2.5702 0.682065 2.87173 0.718509 3.16849C1.20215 7.05048 2.79328 10.6494 5.25142 13.4214C7.70956 16.1934 10.9011 17.9877 14.3437 18.5332C14.6068 18.5742 14.8742 18.5049 15.0951 18.3385C15.316 18.1721 15.475 17.92 15.5422 17.6302L16.2562 14.5235C16.3203 14.2444 16.2946 13.9487 16.1836 13.689C16.0725 13.4293 15.8834 13.2225 15.6498 13.1053L12.3922 11.4755C12.1746 11.3662 11.931 11.3412 11.6994 11.4044C11.4679 11.4676 11.2614 11.6155 11.1122 11.8249Z" fill="white"/>
</g>
<defs>
<clipPath id="clip0">
<rect width="17" height="19.1699" fill="white" transform="translate(0 0.173828)"/>
</clipPath>
</defs>
</svg>
