<svg width="32" height="32" viewBox="0 0 32 32" fill="none" xmlns="http://www.w3.org/2000/svg">
<path fill-rule="evenodd" clip-rule="evenodd" d="M29.2355 2.61027C32.7158 6.09063 32.7158 11.7341 29.2355 15.2145C26.2705 18.1794 21.736 18.6174 18.3061 16.5303L13.1872 21.6491L15.1413 23.6032L12.3752 26.3693L10.4211 24.4152L7.55649 27.2798L9.51058 29.2339L6.7445 32L4.79042 30.0459L2.99061 31.8457L0 28.8551L15.3154 13.5397C13.2283 10.1098 13.6663 5.57525 16.6313 2.61027C20.1116 -0.87009 25.7551 -0.87009 29.2355 2.61027ZM23.2268 5.37191C22.33 6.26872 22.3296 7.72248 23.2264 8.6193C24.1232 9.51617 25.5769 9.51567 26.4738 8.61886C27.3701 7.72248 27.3706 6.26872 26.4738 5.37191C25.5769 4.47509 24.1232 4.47553 23.2268 5.37191Z" fill="#FBE200"/>
<path d="M18.306 16.5303L13.1872 21.6491L15.1413 23.6032L12.3752 26.3693L10.4211 24.4152L7.55646 27.2799L9.51054 29.2339L6.74447 32L4.79045 30.0459L2.99063 31.8457L1.49536 30.3505L23.2265 8.61938C24.1233 9.51619 25.577 9.51575 26.4739 8.61894C27.3702 7.72257 27.3707 6.2688 26.4739 5.37199L29.2355 2.61035C32.7158 6.09071 32.7158 11.7342 29.2355 15.2145C26.2705 18.1795 21.736 18.6175 18.306 16.5303Z" fill="#FEBF01"/>
</svg>
