<svg width="128" height="128" viewBox="0 0 128 128" fill="none" xmlns="http://www.w3.org/2000/svg">
<path d="M103.625 1.875H96.125V126.125H103.625C116 126.125 126.125 116 126.125 103.625V24.375C126.125 12 116 1.875 103.625 1.875Z" fill="#FCF055"/>
<path d="M118.625 24.375V103.625C118.625 116 108.5 126.125 96.125 126.125H24.375C12 126.125 1.875 116 1.875 103.625V24.375C1.875 12 12 1.875 24.375 1.875H96.125C108.5 1.875 118.625 12 118.625 24.375Z" fill="#5DC2A7"/>
<path d="M40.2395 88.4498V37.0736C40.2395 34.0356 43.6044 32.2046 46.1545 33.8554L85.8445 59.5435C88.1786 61.054 88.1786 64.4696 85.8445 65.9801L46.1545 91.6682C43.6044 93.3187 40.2395 91.4878 40.2395 88.4498Z" fill="#61BEA5"/>
<path d="M85.8445 59.5432L46.1545 33.8551C43.6044 32.2046 40.2395 34.0353 40.2395 37.0733V39.1094V86.4136V88.4498C40.2395 91.4878 43.6044 93.3187 46.1545 91.6679L85.8445 65.9798C88.1786 64.4693 88.1786 61.0538 85.8445 59.5432Z" fill="white"/>
<path d="M43.1853 35.4415C43.4761 35.2827 44.2443 34.9723 45.081 35.5134L58.6076 44.2681C59.5242 44.8614 60.7471 44.5993 61.3398 43.683C61.9328 42.7668 61.6709 41.5436 60.7547 40.9509L47.2278 32.1959C45.4403 31.0392 43.1676 30.9525 41.2967 31.9702C39.4257 32.9878 38.2634 34.9434 38.2634 37.0733V88.4498C38.2634 90.5797 39.4257 92.5352 41.2967 93.5529C42.1647 94.0252 43.1194 94.2597 44.072 94.2597C45.1722 94.2597 46.2699 93.947 47.2278 93.3269L86.9178 67.6387C88.5788 66.5636 89.5704 64.7406 89.5704 62.7619C89.5704 60.783 88.5788 58.9597 86.9178 57.8846L69.2341 46.4394C68.3178 45.8466 67.0949 46.1082 66.5019 47.0245C65.9089 47.9407 66.1708 49.1639 67.087 49.7566L84.7708 61.2018C85.3098 61.5509 85.619 62.1191 85.619 62.7617C85.619 63.4039 85.3098 63.9724 84.7708 64.3212L45.081 90.0093C44.2443 90.5507 43.4761 90.2404 43.185 90.0815C42.8934 89.9229 42.215 89.4464 42.215 88.4498V37.0735C42.2153 36.0767 42.8934 35.6001 43.1853 35.4415Z" fill="black"/>
<path fill-rule="evenodd" clip-rule="evenodd" d="M24.375 0H103.625C117.065 0 128 10.9345 128 24.375V103.625C128 117.065 117.065 128 103.625 128H24.375C10.9345 128 0 117.065 0 103.625V24.375C0 10.9345 10.9345 0 24.375 0ZM103.625 124.25C114.998 124.25 124.25 114.997 124.25 103.625V24.375C124.25 13.0025 114.998 3.75 103.625 3.75H24.375C13.0022 3.75 3.75 13.0025 3.75 24.375V103.625C3.75 114.997 13.0022 124.25 24.375 124.25H103.625Z" fill="black"/>
</svg>
