<svg width="64" height="64" viewBox="0 0 64 64" fill="none" xmlns="http://www.w3.org/2000/svg">
<g opacity="0.6">
<path d="M27.7412 19.5583L27.74 19.5574C27.2914 19.238 26.7636 19.0482 26.2143 19.0089C25.6651 18.9696 25.1156 19.0822 24.626 19.3344C24.1365 19.5865 23.7259 19.9686 23.4391 20.4387C23.1522 20.9088 23.0003 21.4487 23 21.9994V22V42V42.0006C23.0003 42.5513 23.1522 43.0912 23.4391 43.5613C23.7259 44.0314 24.1365 44.4135 24.626 44.6656C25.1156 44.9179 25.6651 45.0304 26.2143 44.9911C26.7636 44.9518 27.2914 44.762 27.74 44.4426L27.7412 44.4417L41.7409 34.442C42.1298 34.1645 42.4467 33.7981 42.6655 33.3734C42.8842 32.9486 42.9983 32.4778 42.9983 32C42.9983 31.5222 42.8842 31.0514 42.6655 30.6266C42.4468 30.202 42.13 29.8357 41.7412 29.5583C41.7411 29.5582 41.741 29.5581 41.7409 29.558L27.7412 19.5583ZM63 32C63 40.2217 59.7339 48.1067 53.9203 53.9203C48.1067 59.7339 40.2217 63 32 63C23.7783 63 15.8933 59.7339 10.0797 53.9203C4.26606 48.1067 1 40.2217 1 32C1 23.7783 4.26606 15.8933 10.0797 10.0797C15.8933 4.26606 23.7783 1 32 1C40.2217 1 48.1067 4.26606 53.9203 10.0797C59.7339 15.8933 63 23.7783 63 32Z" fill="black" stroke="white" stroke-width="2"/>
</g>
</svg>
