<svg width="22" height="22" viewBox="0 0 22 22" fill="none" xmlns="http://www.w3.org/2000/svg">
<path d="M4.81239 4.8125C4.81239 4.63016 4.73996 4.4553 4.61103 4.32636C4.4821 4.19743 4.30723 4.125 4.12489 4.125C3.94256 4.125 3.76769 4.19743 3.63876 4.32636C3.50982 4.4553 3.43739 4.63016 3.43739 4.8125V16.9029L1.86164 15.3258C1.79772 15.2618 1.72184 15.2111 1.63832 15.1765C1.5548 15.1419 1.46529 15.1241 1.37489 15.1241C1.28449 15.1241 1.19498 15.1419 1.11146 15.1765C1.02795 15.2111 0.952063 15.2618 0.888142 15.3258C0.824221 15.3897 0.773516 15.4656 0.738922 15.5491C0.704329 15.6326 0.686523 15.7221 0.686523 15.8125C0.686523 15.9029 0.704329 15.9924 0.738922 16.0759C0.773516 16.1594 0.824221 16.2353 0.888142 16.2993L3.63814 19.0479L3.64777 19.0575C3.77685 19.1834 3.95043 19.2531 4.13072 19.2516C4.311 19.25 4.48336 19.1773 4.61027 19.0493L7.36027 16.2993C7.48936 16.1703 7.56196 15.9954 7.56209 15.813C7.56221 15.6305 7.48987 15.4555 7.36095 15.3264C7.23204 15.1973 7.05713 15.1247 6.87469 15.1246C6.69225 15.1245 6.51724 15.1968 6.38814 15.3258L4.81239 16.9029V4.8125ZM10.3124 5.5C10.1301 5.5 9.95519 5.42757 9.82626 5.29864C9.69732 5.1697 9.62489 4.99484 9.62489 4.8125C9.62489 4.63016 9.69732 4.4553 9.82626 4.32636C9.95519 4.19743 10.1301 4.125 10.3124 4.125H11.6874C11.8697 4.125 12.0446 4.19743 12.1735 4.32636C12.3025 4.4553 12.3749 4.63016 12.3749 4.8125C12.3749 4.99484 12.3025 5.1697 12.1735 5.29864C12.0446 5.42757 11.8697 5.5 11.6874 5.5H10.3124ZM10.3124 9.625C10.1301 9.625 9.95519 9.55257 9.82626 9.42364C9.69732 9.2947 9.62489 9.11984 9.62489 8.9375C9.62489 8.75516 9.69732 8.5803 9.82626 8.45136C9.95519 8.32243 10.1301 8.25 10.3124 8.25H14.4374C14.6197 8.25 14.7946 8.32243 14.9235 8.45136C15.0525 8.5803 15.1249 8.75516 15.1249 8.9375C15.1249 9.11984 15.0525 9.2947 14.9235 9.42364C14.7946 9.55257 14.6197 9.625 14.4374 9.625H10.3124ZM10.3124 13.75C10.1301 13.75 9.95519 13.6776 9.82626 13.5486C9.69732 13.4197 9.62489 13.2448 9.62489 13.0625C9.62489 12.8802 9.69732 12.7053 9.82626 12.5764C9.95519 12.4474 10.1301 12.375 10.3124 12.375H17.1874C17.3697 12.375 17.5446 12.4474 17.6735 12.5764C17.8025 12.7053 17.8749 12.8802 17.8749 13.0625C17.8749 13.2448 17.8025 13.4197 17.6735 13.5486C17.5446 13.6776 17.3697 13.75 17.1874 13.75H10.3124ZM9.62489 17.1875C9.62489 17.3698 9.69732 17.5447 9.82626 17.6736C9.95519 17.8026 10.1301 17.875 10.3124 17.875H19.9374C20.1197 17.875 20.2946 17.8026 20.4235 17.6736C20.5525 17.5447 20.6249 17.3698 20.6249 17.1875C20.6249 17.0052 20.5525 16.8303 20.4235 16.7014C20.2946 16.5724 20.1197 16.5 19.9374 16.5H10.3124C10.1301 16.5 9.95519 16.5724 9.82626 16.7014C9.69732 16.8303 9.62489 17.0052 9.62489 17.1875Z" fill="black"/>
</svg>
