<svg width="22" height="22" viewBox="0 0 22 22" fill="none" xmlns="http://www.w3.org/2000/svg">
<g clip-path="url(#clip0)">
<path d="M16.145 14.223C17.4764 12.4062 18.0728 10.1537 17.8147 7.91608C17.5566 5.67849 16.4632 3.62084 14.7532 2.1548C13.0432 0.688767 10.8427 -0.0775442 8.59192 0.00918133C6.34116 0.0959069 4.20615 1.02927 2.61401 2.62255C1.02188 4.21582 0.0900392 6.3515 0.00492414 8.60232C-0.0801909 10.8531 0.687695 13.0531 2.15496 14.7621C3.62222 16.471 5.68064 17.563 7.91842 17.8194C10.1562 18.0759 12.4083 17.478 14.2241 16.1452H14.2228C14.264 16.2002 14.308 16.2525 14.3575 16.3034L19.6513 21.5971C19.9091 21.8551 20.2589 22.0001 20.6236 22.0003C20.9883 22.0004 21.3382 21.8556 21.5962 21.5978C21.8542 21.34 21.9992 20.9902 21.9994 20.6255C21.9995 20.2607 21.8547 19.9109 21.5969 19.6529L16.3031 14.3591C16.254 14.3094 16.2011 14.2634 16.145 14.2216V14.223ZM16.4998 8.9375C16.4998 9.93062 16.3042 10.914 15.9241 11.8315C15.5441 12.7491 14.987 13.5828 14.2848 14.285C13.5825 14.9872 12.7488 15.5443 11.8313 15.9243C10.9138 16.3044 9.93039 16.5 8.93727 16.5C7.94415 16.5 6.96075 16.3044 6.04323 15.9243C5.1257 15.5443 4.29202 14.9872 3.58977 14.285C2.88753 13.5828 2.33048 12.7491 1.95043 11.8315C1.57038 10.914 1.37477 9.93062 1.37477 8.9375C1.37477 6.9318 2.17153 5.00825 3.58978 3.59001C5.00802 2.17176 6.93157 1.375 8.93727 1.375C10.943 1.375 12.8665 2.17176 14.2848 3.59001C15.703 5.00825 16.4998 6.9318 16.4998 8.9375Z" fill="black"/>
</g>
<defs>
<clipPath id="clip0">
<rect width="22" height="22" fill="white"/>
</clipPath>
</defs>
</svg>
