<svg width="16" height="15" viewBox="0 0 16 15" fill="none" xmlns="http://www.w3.org/2000/svg">
<path fill-rule="evenodd" clip-rule="evenodd" d="M14.8139 7.67321C14.7813 7.71093 14.0015 8.60709 12.7223 9.51048C12.2193 9.86565 11.709 10.1713 11.1963 10.4263L14.9037 14.1337L14.2796 14.7578L0.157639 0.635822L0.781741 0.0117188L4.73192 3.96187C5.67621 3.59982 6.61932 3.41294 7.53069 3.41294C9.21686 3.41294 11.0121 4.05131 12.7223 5.259C14.0015 6.1624 14.7814 7.05855 14.8139 7.09627L15.0631 7.38474L14.8139 7.67321ZM9.73725 7.38474C9.73725 6.16805 8.74739 5.17818 7.53069 5.17818C7.08161 5.17818 6.66363 5.31334 6.31476 5.54471L6.96025 6.1902C7.1331 6.10732 7.32654 6.06081 7.53069 6.06081C8.26071 6.06081 8.85463 6.65472 8.85463 7.38474C8.85463 7.58889 8.80811 7.78236 8.72523 7.95521L9.37073 8.6007C9.60209 8.25177 9.73725 7.83382 9.73725 7.38474Z" fill="#0F1049"/>
<path d="M7.53069 9.59143C6.31399 9.59143 5.32413 8.60157 5.32413 7.38488C5.32413 7.27902 5.33207 7.17502 5.34658 7.07307L3.06061 4.78711C2.81907 4.93336 2.57861 5.09053 2.33983 5.25917C1.06097 6.16259 0.281527 7.05878 0.248959 7.09649L0 7.38488L0.248959 7.67326C0.281527 7.71098 1.06097 8.60716 2.33983 9.51056C4.04951 10.7183 5.8445 11.3567 7.53069 11.3567C8.13761 11.3567 8.75868 11.2735 9.38482 11.1113L7.84249 9.56902C7.74055 9.58349 7.63655 9.59143 7.53069 9.59143Z" fill="#0F1049"/>
</svg>
