<svg width="18" height="18" viewBox="0 0 18 18" fill="none" xmlns="http://www.w3.org/2000/svg">
<path d="M15.75 1.875H2.25C2.00377 1.875 1.75995 1.9235 1.53247 2.01773C1.30498 2.11195 1.09828 2.25006 0.924175 2.42417C0.572544 2.77581 0.375 3.25272 0.375 3.75V5.25C0.374988 5.31737 0.393124 5.3835 0.427504 5.44144C0.461884 5.49937 0.511237 5.54698 0.570375 5.57925L8.82038 10.0792C8.87547 10.1093 8.93723 10.1251 9 10.1251C9.06277 10.1251 9.12453 10.1093 9.17962 10.0792L17.4296 5.57925C17.4888 5.54698 17.5381 5.49937 17.5725 5.44144C17.6069 5.3835 17.625 5.31737 17.625 5.25V3.75C17.625 3.25272 17.4275 2.77581 17.0758 2.42417C16.7242 2.07254 16.2473 1.875 15.75 1.875Z" fill="white"/>
<path d="M9.53888 10.7379C9.37377 10.8278 9.18876 10.875 9.00075 10.875C8.81274 10.875 8.62773 10.8278 8.46262 10.7379L0.383625 6.33203L0.375 6.33766V14.2502C0.375 14.7474 0.572544 15.2244 0.924175 15.576C1.27581 15.9276 1.75272 16.1252 2.25 16.1252H15.75C16.2473 16.1252 16.7242 15.9276 17.0758 15.576C17.4275 15.2244 17.625 14.7474 17.625 14.2502V6.33766L17.6164 6.33241L9.53888 10.7379Z" fill="white"/>
</svg>
