<svg width="22" height="22" viewBox="0 0 22 22" fill="none" xmlns="http://www.w3.org/2000/svg">
<path d="M18.5625 0H3.4375C1.54206 0 0 1.54206 0 3.4375V4.29688C0 4.77151 0.384742 5.15625 0.859375 5.15625C1.33401 5.15625 1.71875 4.77151 1.71875 4.29688V3.4375C1.71875 2.48978 2.48978 1.71875 3.4375 1.71875H18.5625C19.5102 1.71875 20.2812 2.48978 20.2812 3.4375V18.5625C20.2812 19.5102 19.5102 20.2812 18.5625 20.2812H3.4375C2.48978 20.2812 1.71875 19.5102 1.71875 18.5625V17.7031C1.71875 17.2285 1.33401 16.8438 0.859375 16.8438C0.384742 16.8438 0 17.2285 0 17.7031V18.5625C0 20.4579 1.54206 22 3.4375 22H18.5625C20.4579 22 22 20.4579 22 18.5625V3.4375C22 1.54206 20.4579 0 18.5625 0Z" fill="white"/>
<path d="M1.9762 11.6135C1.97431 11.6115 1.97238 11.6096 1.97045 11.6076C1.63538 11.2726 1.63538 10.7274 1.97221 10.3906L5.1641 7.1801C5.49874 6.84353 5.49715 6.29942 5.16058 5.96478C4.824 5.63018 4.27989 5.63172 3.94525 5.9683L0.755119 9.17699C-0.249018 10.1811 -0.250092 11.8144 0.751982 12.8198L3.94129 16.0706C4.10956 16.2421 4.33205 16.3281 4.55476 16.3281C4.77192 16.3281 4.9893 16.2463 5.15649 16.0822C5.4953 15.7498 5.5005 15.2057 5.1681 14.8669L1.9762 11.6135Z" fill="white"/>
<path d="M14.3086 10.1406H5.15625C4.68162 10.1406 4.29688 10.5254 4.29688 11C4.29688 11.4746 4.68162 11.8594 5.15625 11.8594H14.3086C14.7832 11.8594 15.168 11.4746 15.168 11C15.168 10.5254 14.7832 10.1406 14.3086 10.1406Z" fill="white"/>
</svg>
