<svg width="17" height="14" viewBox="0 0 17 14" fill="none" xmlns="http://www.w3.org/2000/svg">
<path d="M14.9723 1.36863C14.1586 0.486071 13.042 0 11.8281 0C10.9207 0 10.0897 0.28687 9.35818 0.852573C8.98903 1.13812 8.65455 1.48748 8.35965 1.89523C8.06486 1.4876 7.73026 1.13812 7.361 0.852573C6.62956 0.28687 5.79857 0 4.89119 0C3.67727 0 2.56062 0.486071 1.7469 1.36863C0.942897 2.24087 0.5 3.43248 0.5 4.72411C0.5 6.05352 0.995426 7.27044 2.05907 8.55392C3.01059 9.70199 4.37814 10.8675 5.96179 12.217C6.50255 12.6779 7.11551 13.2003 7.75197 13.7568C7.92011 13.9041 8.13586 13.9851 8.35965 13.9851C8.58332 13.9851 8.79919 13.9041 8.96709 13.757C9.60355 13.2004 10.2169 12.6778 10.7579 12.2167C12.3413 10.8673 13.7088 9.70199 14.6603 8.5538C15.724 7.27044 16.2193 6.05352 16.2193 4.72399C16.2193 3.43248 15.7764 2.24087 14.9723 1.36863Z" fill="#D9534F"/>
</svg>
