<svg width="32" height="32" viewBox="0 0 32 32" fill="none" xmlns="http://www.w3.org/2000/svg">
<path fill-rule="evenodd" clip-rule="evenodd" d="M4.67801 4.67926C10.918 -1.55943 21.066 -1.55943 27.306 4.67926C33.5447 10.9179 33.5447 21.0686 27.306 27.3073C24.186 30.4259 20.0901 31.9846 15.9927 31.9846C11.8953 31.9846 7.79801 30.4259 4.67801 27.3073C-1.5593 21.0686 -1.5593 10.9179 4.67801 4.67926ZM22.5913 22.5926C23.1126 22.0713 23.1126 21.2286 22.5913 20.7073L17.8779 15.9926L22.5912 11.2793C23.1125 10.7579 23.1125 9.91395 22.5912 9.39395C22.0699 8.87263 21.2272 8.87263 20.7059 9.39395L15.9926 14.1073L11.2793 9.39395C10.758 8.87263 9.91395 8.87263 9.39395 9.39395C8.87264 9.91395 8.87264 10.7579 9.39395 11.2793L14.1073 15.9926L9.39526 20.7059C8.87395 21.2259 8.87395 22.0699 9.39526 22.5912C9.65526 22.8512 9.99664 22.9819 10.338 22.9819C10.678 22.9819 11.0193 22.8512 11.2806 22.5912L15.9926 17.8779L20.706 22.5926C20.966 22.8526 21.3073 22.9833 21.6486 22.9833C21.99 22.9833 22.3313 22.8526 22.5913 22.5926Z" fill="#9EA9C9"/>
</svg>
