<?xml version="1.0" encoding="utf-8"?>
<!-- Generator: Adobe Illustrator 16.0.0, SVG Export Plug-In . SVG Version: 6.00 Build 0)  -->
<!DOCTYPE svg PUBLIC "-//W3C//DTD SVG 1.1//EN" "http://www.w3.org/Graphics/SVG/1.1/DTD/svg11.dtd">
<svg version="1.1" id="Layer_1" xmlns="http://www.w3.org/2000/svg" xmlns:xlink="http://www.w3.org/1999/xlink" x="0px" y="0px"
	 width="24px" height="24px" viewBox="0 0 24 24" enable-background="new 0 0 24 24" xml:space="preserve">
<path fill="#5BC0A6" d="M20.318,9.423l1.543,0.262c0.656,0.11,1.135,0.675,1.125,1.341v1.934c0,0.666-0.478,1.231-1.135,1.341
	l-1.543,0.258c-0.156,0.514-0.367,1.015-0.62,1.497l0.909,1.276c0.387,0.543,0.322,1.281-0.146,1.75l-1.369,1.369
	c-0.257,0.257-0.597,0.399-0.96,0.399c-0.284,0-0.56-0.087-0.79-0.253l-1.271-0.909c-0.479,0.253-0.979,0.46-1.498,0.62
	l-0.262,1.543c-0.109,0.657-0.675,1.135-1.341,1.135h-1.938c-0.666,0-1.23-0.478-1.341-1.135l-0.257-1.543
	c-0.5-0.156-0.987-0.354-1.451-0.598L6.682,20.63c-0.23,0.165-0.501,0.253-0.786,0.253c-0.363,0-0.703-0.143-0.96-0.4l-1.369-1.368
	c-0.473-0.468-0.533-1.208-0.147-1.75l0.905-1.259c-0.257-0.477-0.468-0.978-0.629-1.492l-1.562-0.266
	C1.478,14.236,1,13.672,1,13.006v-1.934c0-0.666,0.478-1.231,1.134-1.341l1.525-0.257c0.156-0.519,0.358-1.02,0.611-1.501
	L3.352,6.682C2.966,6.14,3.03,5.4,3.499,4.932l1.373-1.369c0.253-0.257,0.597-0.4,0.96-0.4c0.285,0,0.561,0.087,0.79,0.253
	l1.263,0.909c0.478-0.257,0.979-0.468,1.493-0.629l0.267-1.562C9.754,1.478,10.319,1,10.985,1h1.933
	c0.666,0,1.231,0.478,1.342,1.134l0.258,1.525c0.537,0.161,1.056,0.377,1.552,0.639l1.276-0.91c0.23-0.165,0.501-0.252,0.785-0.252
	c0.363,0,0.703,0.143,0.961,0.399l1.368,1.369c0.474,0.469,0.532,1.208,0.147,1.75l-0.91,1.272
	C19.95,8.404,20.157,8.904,20.318,9.423z M21.654,13.079c0.06-0.009,0.102-0.06,0.102-0.119h0.004v-1.934
	c0-0.06-0.041-0.11-0.102-0.12l-1.928-0.326c-0.239-0.037-0.438-0.216-0.496-0.455c-0.176-0.675-0.441-1.323-0.8-1.924
	c-0.124-0.211-0.114-0.478,0.028-0.675l1.134-1.594c0.032-0.05,0.027-0.115-0.014-0.156l-1.368-1.368
	c-0.033-0.032-0.069-0.037-0.088-0.037c-0.023,0-0.046,0.009-0.068,0.023l-1.585,1.139c-0.202,0.143-0.464,0.151-0.675,0.027
	c-0.615-0.363-1.277-0.634-1.971-0.808c-0.239-0.06-0.418-0.257-0.459-0.5l-0.322-1.916c-0.009-0.06-0.06-0.101-0.119-0.101h-1.934
	c-0.06,0-0.11,0.042-0.12,0.101l-0.331,1.943c-0.041,0.239-0.22,0.432-0.455,0.496c-0.675,0.174-1.323,0.45-1.92,0.809
	C7.958,5.708,7.692,5.699,7.49,5.556l-1.584-1.13C5.887,4.413,5.864,4.403,5.836,4.403c-0.023,0-0.055,0.005-0.087,0.037L4.38,5.809
	C4.339,5.85,4.334,5.919,4.367,5.965L5.51,7.572C5.653,7.77,5.667,8.032,5.542,8.243c-0.354,0.602-0.616,1.254-0.786,1.929
	c-0.06,0.239-0.257,0.418-0.5,0.459l-1.915,0.321c-0.06,0.009-0.101,0.06-0.101,0.12v1.934c0,0.06,0.041,0.11,0.101,0.119
	l1.942,0.331c0.239,0.041,0.432,0.22,0.496,0.454c0.175,0.676,0.45,1.323,0.809,1.92c0.124,0.212,0.115,0.479-0.028,0.68
	l-1.13,1.585c-0.032,0.051-0.027,0.114,0.014,0.156l1.369,1.368c0.032,0.033,0.069,0.037,0.087,0.037
	c0.023,0,0.046-0.009,0.069-0.023l1.607-1.143c0.105-0.078,0.234-0.115,0.358-0.115c0.106,0,0.216,0.027,0.313,0.082
	c0.592,0.34,1.227,0.603,1.883,0.771c0.234,0.061,0.413,0.254,0.455,0.496l0.321,1.93c0.009,0.06,0.06,0.102,0.12,0.102h1.934
	c0.06,0,0.11-0.042,0.119-0.102l0.326-1.93c0.037-0.238,0.216-0.436,0.454-0.496c0.676-0.174,1.324-0.44,1.926-0.799
	c0.211-0.123,0.477-0.114,0.674,0.027l1.594,1.135c0.02,0.014,0.042,0.023,0.069,0.023c0.023,0,0.056-0.005,0.087-0.037l1.369-1.369
	c0.041-0.041,0.046-0.109,0.014-0.156l-1.135-1.598c-0.142-0.202-0.15-0.464-0.027-0.675c0.358-0.603,0.625-1.249,0.799-1.925
	c0.061-0.234,0.254-0.413,0.496-0.455L21.654,13.079z"/>
<path fill="#5BC0A6" d="M21.861,9.685l-0.025,0.148l0,0L21.861,9.685z M20.318,9.423l-0.145,0.044l0.027,0.088l0.092,0.016
	L20.318,9.423z M22.986,11.026l-0.15-0.002v0.002H22.986z M21.852,14.301l0.025,0.148l0,0L21.852,14.301z M20.309,14.559
	l-0.025-0.148l-0.092,0.016l-0.026,0.089L20.309,14.559z M19.688,16.056l-0.133-0.069l-0.043,0.081l0.054,0.075L19.688,16.056z
	 M20.598,17.332l0.123-0.086v-0.001L20.598,17.332z M17.332,20.598l0.088-0.121l0,0L17.332,20.598z M16.061,19.688l0.087-0.122
	l-0.075-0.054l-0.082,0.043L16.061,19.688z M14.563,20.309l-0.044-0.144l-0.089,0.027l-0.015,0.091L14.563,20.309z M14.301,21.852
	l-0.147-0.025v0.001L14.301,21.852z M9.681,21.852l-0.148,0.025l0,0L9.681,21.852z M9.423,20.309l0.148-0.025l-0.015-0.09
	l-0.088-0.027L9.423,20.309z M7.972,19.711l0.069-0.133L7.96,19.535L7.885,19.59L7.972,19.711z M6.682,20.63l-0.087-0.122h0
	L6.682,20.63z M4.936,20.482L4.83,20.59L4.936,20.482z M3.567,19.114l0.106-0.106h0L3.567,19.114z M3.42,17.364l-0.122-0.087h0
	L3.42,17.364z M4.325,16.105l0.122,0.088l0.055-0.076l-0.044-0.082L4.325,16.105z M3.696,14.613l0.144-0.045L3.812,14.48
	l-0.091-0.016L3.696,14.613z M2.134,14.348l0.025-0.148h0L2.134,14.348z M2.134,9.731l0.025,0.148l0,0L2.134,9.731z M3.659,9.474
	l0.025,0.148l0.092-0.016l0.027-0.089L3.659,9.474z M4.27,7.972l0.133,0.069L4.446,7.96L4.393,7.885L4.27,7.972z M3.352,6.682
	l0.122-0.087l0,0L3.352,6.682z M3.499,4.932L3.393,4.825l0,0L3.499,4.932z M4.872,3.563l0.106,0.106l0.001-0.001L4.872,3.563z
	 M6.622,3.416l0.088-0.122L6.622,3.416z M7.885,4.325L7.797,4.447l0.076,0.055l0.083-0.044L7.885,4.325z M9.377,3.696l0.045,0.143
	L9.51,3.812l0.016-0.091L9.377,3.696z M9.644,2.134L9.792,2.16l0,0L9.644,2.134z M14.26,2.134l-0.148,0.025l0,0L14.26,2.134z
	 M14.518,3.659l-0.148,0.025l0.016,0.092l0.09,0.026L14.518,3.659z M16.069,4.298L16,4.43l0.081,0.043l0.075-0.054L16.069,4.298z
	 M17.346,3.388l0.088,0.123V3.51L17.346,3.388z M19.092,3.535l-0.106,0.106L19.092,3.535z M20.46,4.904L20.354,5.01l0.001,0.001
	L20.46,4.904z M20.607,6.654l0.121,0.087l0.001,0L20.607,6.654z M19.697,7.926l-0.121-0.087l-0.055,0.075l0.043,0.082L19.697,7.926z
	 M21.756,12.96v-0.149h-0.15v0.149H21.756z M21.654,13.079l-0.023-0.147h-0.002L21.654,13.079z M21.76,12.96v0.149h0.15V12.96H21.76
	z M21.658,10.907l-0.024,0.148l0.003,0L21.658,10.907z M19.73,10.581l0.024-0.148l-0.002,0L19.73,10.581z M19.234,10.126
	l0.145-0.036v-0.001L19.234,10.126z M18.435,8.202l-0.13,0.076l0.001,0.001L18.435,8.202z M18.463,7.526l0.121,0.088V7.613
	L18.463,7.526z M19.597,5.933l0.122,0.087l0.004-0.007L19.597,5.933z M19.583,5.776l0.106-0.106L19.583,5.776z M18.215,4.408
	l-0.107,0.106L18.215,4.408z M18.059,4.394L17.98,4.265l-0.01,0.007L18.059,4.394z M16.474,5.533l0.087,0.123V5.655L16.474,5.533z
	 M15.799,5.561L15.723,5.69l0,0L15.799,5.561z M13.828,4.752l0.037-0.146h-0.001L13.828,4.752z M13.369,4.252l-0.148,0.024v0
	L13.369,4.252z M13.047,2.336l-0.148,0.023l0.001,0.002L13.047,2.336z M10.875,2.336l0.148,0.025l0-0.002L10.875,2.336z
	 M10.544,4.279l0.148,0.025l0,0L10.544,4.279z M10.089,4.775l0.038,0.145l0.002,0L10.089,4.775z M8.169,5.584l0.076,0.129l0.001,0
	L8.169,5.584z M7.49,5.556L7.403,5.678l0,0L7.49,5.556z M5.905,4.426l-0.09,0.12l0.003,0.002L5.905,4.426z M5.749,4.44l0.106,0.106
	L5.749,4.44z M4.38,5.809L4.274,5.703L4.38,5.809z M4.367,5.965L4.244,6.051l0,0.001L4.367,5.965z M5.51,7.572L5.388,7.659l0,0.001
	L5.51,7.572z M5.542,8.243l0.129,0.076l0,0L5.542,8.243z M4.757,10.172l-0.146-0.037v0L4.757,10.172z M4.256,10.631l0.025,0.148l0,0
	L4.256,10.631z M2.341,10.953l0.022,0.148l0.002,0L2.341,10.953z M2.341,13.125l0.025-0.147l-0.002-0.001L2.341,13.125z
	 M4.284,13.456l0.026-0.147h0L4.284,13.456z M4.78,13.91l0.146-0.037l0-0.002L4.78,13.91z M5.588,15.83l0.129-0.076H5.717
	L5.588,15.83z M5.561,16.51l0.123,0.088l0-0.001L5.561,16.51z M4.431,18.095l-0.122-0.087l-0.004,0.006L4.431,18.095z M5.97,19.633
	l0.077,0.129l0.01-0.006L5.97,19.633z M7.577,18.49l0.087,0.121l0.002-0.001L7.577,18.49z M8.248,18.457l0.075-0.129l0-0.001
	L8.248,18.457z M10.131,19.229l-0.038,0.146h0L10.131,19.229z M10.585,19.725l0.148-0.023V19.7L10.585,19.725z M10.907,21.654
	l0.148-0.023l0-0.002L10.907,21.654z M13.079,21.654l-0.147-0.025v0.002L13.079,21.654z M13.405,19.725l0.147,0.025l0.001-0.002
	L13.405,19.725z M13.859,19.229l0.037,0.146h0.001L13.859,19.229z M15.785,18.43l-0.076-0.129h-0.001L15.785,18.43z M16.459,18.457
	l-0.087,0.122l0.001,0.001L16.459,18.457z M18.053,19.592l0.091-0.119l-0.003-0.003L18.053,19.592z M19.592,18.053l0.123-0.086l0,0
	L19.592,18.053z M18.457,16.455l-0.122,0.086l0.001,0.001L18.457,16.455z M18.43,15.78l-0.129-0.077v0.001L18.43,15.78z
	 M19.229,13.855l0.146,0.037l0,0L19.229,13.855z M19.725,13.4l-0.023-0.147H19.7L19.725,13.4z M21.887,9.537l-1.544-0.262
	l-0.05,0.296l1.543,0.262L21.887,9.537z M23.137,11.028c0.01-0.741-0.521-1.369-1.251-1.491l-0.05,0.296
	c0.585,0.098,1.008,0.6,1,1.191L23.137,11.028z M23.137,12.96v-1.934h-0.301v1.934H23.137z M21.877,14.449
	c0.729-0.123,1.26-0.75,1.26-1.489h-0.301c0,0.593-0.424,1.095-1.01,1.193L21.877,14.449z M20.333,14.706l1.544-0.257l-0.05-0.296
	l-1.544,0.257L20.333,14.706z M19.821,16.125c0.257-0.489,0.472-0.998,0.631-1.523l-0.287-0.087
	c-0.153,0.505-0.36,0.996-0.609,1.472L19.821,16.125z M20.721,17.245l-0.91-1.276l-0.244,0.174l0.909,1.277L20.721,17.245z
	 M20.557,19.188c0.521-0.521,0.592-1.341,0.164-1.942l-0.245,0.174c0.343,0.481,0.286,1.14-0.131,1.557L20.557,19.188z
	 M19.188,20.557l1.368-1.368l-0.212-0.212l-1.368,1.368L19.188,20.557z M18.122,21c0.403,0,0.781-0.158,1.066-0.443l-0.212-0.212
	c-0.23,0.229-0.531,0.356-0.854,0.356V21z M17.244,20.72C17.5,20.904,17.807,21,18.122,21v-0.299c-0.254,0-0.499-0.078-0.702-0.225
	L17.244,20.72z M15.973,19.811l1.272,0.909l0.175-0.243l-1.272-0.91L15.973,19.811z M14.607,20.451
	c0.527-0.162,1.037-0.373,1.523-0.63l-0.141-0.266c-0.469,0.249-0.961,0.452-1.472,0.609L14.607,20.451z M14.449,21.877l0.262-1.543
	l-0.296-0.051l-0.262,1.543L14.449,21.877z M12.96,23.137c0.739,0,1.366-0.531,1.489-1.26l-0.296-0.05
	c-0.099,0.584-0.601,1.009-1.193,1.009V23.137z M11.021,23.137h1.938v-0.301h-1.938V23.137z M9.533,21.877
	c0.122,0.729,0.75,1.26,1.489,1.26v-0.301c-0.593,0-1.095-0.425-1.193-1.009L9.533,21.877z M9.275,20.333l0.257,1.544l0.296-0.05
	l-0.257-1.544L9.275,20.333z M7.902,19.844c0.473,0.248,0.968,0.449,1.477,0.607l0.089-0.285c-0.493-0.154-0.971-0.349-1.427-0.588
	L7.902,19.844z M6.769,20.752l1.291-0.918L7.885,19.59l-1.291,0.918L6.769,20.752z M5.896,21.033c0.316,0,0.618-0.098,0.873-0.281
	l-0.175-0.244c-0.204,0.147-0.444,0.225-0.698,0.225V21.033z M4.83,20.59c0.285,0.284,0.663,0.443,1.066,0.443v-0.301
	c-0.323,0-0.625-0.126-0.854-0.355L4.83,20.59z M3.461,19.221L4.83,20.59l0.212-0.213l-1.369-1.369L3.461,19.221z M3.298,17.277
	C2.87,17.879,2.936,18.7,3.462,19.221l0.211-0.213c-0.42-0.416-0.474-1.074-0.13-1.557L3.298,17.277z M4.204,16.019l-0.905,1.259
	l0.244,0.175l0.905-1.259L4.204,16.019z M3.553,14.658c0.164,0.523,0.379,1.033,0.641,1.52l0.264-0.143
	c-0.253-0.47-0.46-0.961-0.618-1.467L3.553,14.658z M2.109,14.494l1.562,0.268l0.05-0.297L2.16,14.199L2.109,14.494z M0.85,13.006
	c0,0.739,0.53,1.367,1.26,1.489l0.049-0.296c-0.584-0.098-1.009-0.601-1.009-1.193H0.85z M0.85,11.072v1.934h0.3v-1.934H0.85z
	 M2.11,9.583c-0.729,0.123-1.26,0.75-1.26,1.489h0.3c0-0.593,0.425-1.095,1.009-1.193L2.11,9.583z M3.634,9.326L2.109,9.583
	l0.05,0.296l1.525-0.257L3.634,9.326z M4.137,7.902c-0.257,0.491-0.463,1-0.622,1.528l0.287,0.086c0.154-0.51,0.352-1.002,0.6-1.476
	L4.137,7.902z M3.229,6.769l0.918,1.291l0.245-0.174L3.474,6.594L3.229,6.769z M3.393,4.825c-0.52,0.521-0.592,1.341-0.163,1.943
	l0.244-0.174c-0.343-0.482-0.286-1.14,0.131-1.557L3.393,4.825z M4.766,3.457L3.393,4.825l0.212,0.212l1.373-1.369L4.766,3.457z
	 M5.832,3.013c-0.402,0-0.786,0.158-1.067,0.444l0.214,0.21C5.203,3.44,5.508,3.313,5.832,3.313V3.013z M6.709,3.294
	C6.454,3.11,6.147,3.013,5.832,3.013v0.3c0.254,0,0.499,0.078,0.703,0.224L6.709,3.294z M7.972,4.204l-1.263-0.91L6.534,3.538
	l1.263,0.909L7.972,4.204z M9.333,3.553C8.809,3.716,8.3,3.932,7.813,4.193l0.143,0.264c0.469-0.253,0.961-0.46,1.466-0.618
	L9.333,3.553z M9.496,2.109L9.229,3.671l0.296,0.05L9.792,2.16L9.496,2.109z M10.985,0.85c-0.739,0-1.367,0.53-1.489,1.259
	l0.296,0.05c0.098-0.584,0.6-1.009,1.193-1.009V0.85z M12.918,0.85h-1.933v0.3h1.933V0.85z M14.408,2.109
	c-0.123-0.729-0.75-1.259-1.49-1.259v0.3c0.594,0,1.096,0.425,1.193,1.009L14.408,2.109z M14.665,3.634l-0.257-1.525l-0.297,0.05
	l0.258,1.525L14.665,3.634z M16.139,4.165c-0.504-0.266-1.031-0.486-1.578-0.649l-0.086,0.287C15.002,3.961,15.512,4.173,16,4.43
	L16.139,4.165z M17.26,3.266l-1.277,0.91l0.174,0.244l1.277-0.909L17.26,3.266z M18.131,2.986c-0.315,0-0.617,0.097-0.873,0.281
	l0.176,0.243c0.204-0.146,0.444-0.224,0.697-0.224V2.986z M19.197,3.429c-0.285-0.285-0.662-0.443-1.066-0.443v0.3
	c0.323,0,0.625,0.126,0.854,0.356L19.197,3.429z M20.566,4.798l-1.369-1.369l-0.212,0.212l1.368,1.368L20.566,4.798z M20.729,6.741
	c0.428-0.601,0.362-1.422-0.163-1.943l-0.212,0.213c0.421,0.416,0.474,1.073,0.13,1.556L20.729,6.741z M19.82,8.013l0.908-1.272
	l-0.244-0.175l-0.908,1.272L19.82,8.013z M20.461,9.379c-0.164-0.527-0.373-1.037-0.631-1.523l-0.266,0.14
	c0.249,0.469,0.452,0.961,0.609,1.472L20.461,9.379z M21.605,12.96c0-0.005,0.002-0.012,0.007-0.018
	c0.005-0.007,0.013-0.011,0.019-0.011l0.047,0.296c0.135-0.021,0.228-0.137,0.228-0.268H21.605z M21.76,12.811h-0.004v0.299h0.004
	V12.811z M21.609,11.026v1.934h0.301v-1.934H21.609z M21.637,11.055c-0.008-0.001-0.015-0.005-0.02-0.011
	c-0.006-0.006-0.008-0.013-0.008-0.018h0.301c0-0.131-0.093-0.247-0.229-0.268L21.637,11.055z M19.705,10.729l1.929,0.326
	l0.05-0.296l-1.929-0.326L19.705,10.729z M19.088,10.163c0.074,0.297,0.32,0.521,0.619,0.566l0.046-0.296
	c-0.179-0.027-0.329-0.163-0.374-0.343L19.088,10.163z M18.306,8.278c0.351,0.589,0.612,1.224,0.782,1.885l0.291-0.075
	c-0.178-0.689-0.449-1.35-0.815-1.964L18.306,8.278z M18.34,7.439c-0.178,0.247-0.188,0.578-0.035,0.838l0.26-0.151
	c-0.096-0.162-0.087-0.364,0.02-0.512L18.34,7.439z M19.475,5.846L18.34,7.439l0.244,0.174l1.135-1.594L19.475,5.846z M19.477,5.883
	c-0.006-0.006-0.008-0.013-0.009-0.019c-0.001-0.006,0.001-0.01,0.003-0.012l0.252,0.161c0.066-0.104,0.063-0.247-0.033-0.343
	L19.477,5.883z M18.107,4.514l1.369,1.369l0.213-0.212L18.32,4.302L18.107,4.514z M18.127,4.521c-0.003,0-0.006,0-0.009-0.001
	c-0.005-0.001-0.008-0.004-0.011-0.006l0.213-0.212c-0.07-0.07-0.152-0.081-0.193-0.081V4.521z M18.135,4.523
	c0.006-0.003,0.008-0.004,0.008-0.004c-0.002,0-0.007,0.002-0.016,0.002v-0.3c-0.063,0-0.113,0.024-0.146,0.044L18.135,4.523z
	 M16.561,5.655l1.585-1.139l-0.175-0.244l-1.585,1.139L16.561,5.655z M15.723,5.69c0.262,0.154,0.586,0.143,0.838-0.034
	l-0.174-0.245c-0.153,0.108-0.352,0.115-0.512,0.021L15.723,5.69z M13.791,4.898c0.68,0.171,1.328,0.437,1.932,0.792l0.152-0.258
	c-0.629-0.37-1.303-0.646-2.01-0.825L13.791,4.898z M13.221,4.277c0.051,0.301,0.273,0.546,0.57,0.621l0.073-0.291
	c-0.18-0.045-0.315-0.194-0.348-0.38L13.221,4.277z M12.899,2.361l0.321,1.915l0.296-0.049l-0.321-1.916L12.899,2.361z
	 M12.928,2.386c-0.005,0-0.012-0.002-0.018-0.007c-0.006-0.005-0.01-0.012-0.012-0.019l0.297-0.046
	c-0.021-0.136-0.137-0.228-0.268-0.228V2.386z M10.994,2.386h1.934v-0.3h-1.934V2.386z M11.023,2.359
	c-0.001,0.007-0.005,0.014-0.011,0.019C11.006,2.384,11,2.386,10.994,2.386v-0.3c-0.131,0-0.247,0.092-0.268,0.228L11.023,2.359z
	 M10.692,4.305l0.331-1.943l-0.295-0.05l-0.331,1.942L10.692,4.305z M10.129,4.92c0.289-0.079,0.511-0.317,0.563-0.615l-0.296-0.051
	c-0.031,0.18-0.167,0.328-0.346,0.377L10.129,4.92z M8.247,5.712c0.585-0.351,1.22-0.621,1.88-0.792L10.052,4.63
	C9.362,4.809,8.701,5.09,8.092,5.455L8.247,5.712z M7.403,5.679c0.251,0.177,0.581,0.188,0.842,0.034L8.094,5.454
	C7.933,5.549,7.729,5.542,7.576,5.434L7.403,5.679z M5.818,4.548l1.584,1.13l0.174-0.244l-1.584-1.13L5.818,4.548z M5.836,4.553
	c-0.003,0-0.007,0-0.012-0.002S5.817,4.548,5.815,4.546l0.18-0.24C5.954,4.275,5.899,4.253,5.836,4.253V4.553z M5.855,4.546
	c0,0,0,0-0.002,0.002C5.851,4.549,5.848,4.55,5.845,4.551c-0.006,0.002-0.01,0.002-0.009,0.002v-0.3
	c-0.049,0-0.125,0.012-0.193,0.081L5.855,4.546z M4.486,5.915l1.369-1.369L5.643,4.334L4.274,5.703L4.486,5.915z M4.489,5.879
	c0.006,0.008,0.006,0.015,0.006,0.019c0,0.003-0.002,0.01-0.009,0.018L4.274,5.703C4.18,5.796,4.171,5.947,4.244,6.051L4.489,5.879z
	 M5.632,7.485L4.489,5.878L4.244,6.052l1.144,1.607L5.632,7.485z M5.672,8.319c0.154-0.263,0.137-0.589-0.04-0.834L5.389,7.66
	c0.108,0.15,0.118,0.347,0.024,0.507L5.672,8.319z M4.902,10.208c0.167-0.662,0.423-1.301,0.77-1.89L5.413,8.167
	c-0.361,0.615-0.628,1.28-0.802,1.968L4.902,10.208z M4.281,10.779c0.301-0.051,0.547-0.273,0.621-0.571l-0.291-0.073
	c-0.045,0.18-0.194,0.316-0.38,0.348L4.281,10.779z M2.366,11.101l1.916-0.321l-0.05-0.296l-1.915,0.321L2.366,11.101z M2.39,11.072
	c0,0.005-0.002,0.012-0.007,0.018c-0.005,0.006-0.013,0.01-0.02,0.011l-0.045-0.296c-0.136,0.021-0.229,0.137-0.229,0.268H2.39z
	 M2.39,13.006v-1.934h-0.3v1.934H2.39z M2.364,12.977c0.007,0.002,0.014,0.006,0.02,0.012C2.388,12.994,2.39,13,2.39,13.006h-0.3
	c0,0.131,0.093,0.246,0.229,0.268L2.364,12.977z M4.309,13.309l-1.943-0.331l-0.05,0.296l1.943,0.33L4.309,13.309z M4.925,13.871
	c-0.08-0.289-0.318-0.512-0.615-0.563l-0.051,0.295c0.18,0.031,0.328,0.167,0.377,0.347L4.925,13.871z M5.717,15.754
	c-0.351-0.586-0.621-1.221-0.792-1.881l-0.291,0.075c0.178,0.689,0.459,1.351,0.825,1.96L5.717,15.754z M5.684,16.597
	c0.176-0.251,0.188-0.581,0.034-0.843l-0.259,0.152c0.095,0.161,0.087,0.364-0.021,0.518L5.684,16.597z M4.553,18.182l1.13-1.584
	l-0.245-0.175l-1.13,1.585L4.553,18.182z M4.551,18.145c0.005,0.006,0.008,0.014,0.009,0.02s-0.001,0.01-0.002,0.012l-0.253-0.162
	c-0.066,0.104-0.062,0.248,0.034,0.344L4.551,18.145z M5.919,19.514l-1.369-1.369l-0.212,0.213l1.369,1.368L5.919,19.514z
	 M5.9,19.506c0.003,0,0.006,0.001,0.009,0.002c0.004,0.002,0.007,0.004,0.01,0.006l-0.212,0.212c0.07,0.07,0.151,0.081,0.193,0.081
	V19.506z M5.893,19.505c-0.006,0.003-0.008,0.004-0.007,0.003c0.001,0,0.006-0.002,0.015-0.002v0.301
	c0.063,0,0.113-0.025,0.146-0.045L5.893,19.505z M7.49,18.367l-1.607,1.145l0.174,0.244l1.607-1.145L7.49,18.367z M7.935,18.225
	c-0.152,0-0.313,0.045-0.447,0.145l0.178,0.241c0.077-0.058,0.174-0.085,0.269-0.085V18.225z M8.322,18.327
	c-0.12-0.068-0.256-0.103-0.387-0.103v0.301c0.081,0,0.165,0.021,0.238,0.063L8.322,18.327z M10.168,19.084
	c-0.644-0.166-1.265-0.423-1.846-0.756l-0.149,0.26c0.604,0.346,1.25,0.613,1.92,0.787L10.168,19.084z M10.733,19.7
	c-0.051-0.302-0.274-0.542-0.566-0.616l-0.074,0.291c0.176,0.045,0.313,0.19,0.344,0.375L10.733,19.7z M11.055,21.629l-0.321-1.928
	l-0.296,0.049l0.321,1.929L11.055,21.629z M11.026,21.605c0.005,0,0.012,0.002,0.018,0.007c0.006,0.005,0.01,0.013,0.011,0.019
	l-0.296,0.047c0.021,0.135,0.137,0.228,0.268,0.228V21.605z M12.96,21.605h-1.934v0.3h1.934V21.605z M12.932,21.631
	c0-0.006,0.004-0.014,0.011-0.019c0.006-0.005,0.013-0.007,0.018-0.007v0.3c0.131,0,0.247-0.093,0.268-0.228L12.932,21.631z
	 M13.258,19.7l-0.326,1.929l0.295,0.051l0.326-1.93L13.258,19.7z M13.824,19.084c-0.298,0.074-0.521,0.32-0.566,0.619l0.296,0.045
	c0.027-0.179,0.162-0.328,0.343-0.373L13.824,19.084z M15.708,18.301c-0.589,0.352-1.224,0.612-1.886,0.783l0.075,0.291
	c0.688-0.179,1.35-0.45,1.964-0.816L15.708,18.301z M16.547,18.336c-0.246-0.178-0.577-0.188-0.838-0.035l0.151,0.259
	c0.161-0.095,0.364-0.087,0.512,0.02L16.547,18.336z M18.141,19.47l-1.594-1.134l-0.174,0.244l1.594,1.135L18.141,19.47z
	 M18.122,19.465c0.003,0,0.008,0.001,0.012,0.002c0.005,0.002,0.008,0.004,0.01,0.006l-0.181,0.239
	c0.043,0.031,0.096,0.054,0.159,0.054V19.465z M18.104,19.473c0,0,0-0.001,0.002-0.002c0.002-0.002,0.005-0.003,0.008-0.004
	c0.006-0.002,0.01-0.002,0.009-0.002v0.301c0.05,0,0.125-0.013,0.194-0.081L18.104,19.473z M19.473,18.104l-1.369,1.369l0.213,0.212
	l1.368-1.369L19.473,18.104z M19.469,18.14c-0.006-0.009-0.006-0.015-0.006-0.019s0.002-0.011,0.01-0.018l0.212,0.212
	c0.094-0.094,0.104-0.243,0.03-0.349L19.469,18.14z M18.336,16.542l1.134,1.599l0.245-0.174l-1.135-1.599L18.336,16.542z
	 M18.301,15.704c-0.154,0.262-0.143,0.587,0.034,0.837l0.245-0.172c-0.107-0.154-0.115-0.352-0.021-0.514L18.301,15.704z
	 M19.084,13.818c-0.171,0.662-0.432,1.296-0.783,1.885l0.258,0.153c0.366-0.614,0.638-1.274,0.816-1.964L19.084,13.818z
	 M19.7,13.253c-0.302,0.052-0.542,0.273-0.616,0.565l0.291,0.074c0.045-0.177,0.19-0.313,0.375-0.344L19.7,13.253z M21.629,12.932
	l-1.928,0.321l0.049,0.296l1.929-0.321L21.629,12.932z"/>
<path fill="#FBA800" d="M7.251,11.991c0-2.618,2.126-4.745,4.745-4.745c2.618,0,4.745,2.126,4.745,4.745
	c0,2.618-2.127,4.744-4.745,4.744C9.377,16.734,7.251,14.608,7.251,11.991z M8.491,11.991c0,1.933,1.571,3.504,3.504,3.504
	c1.934,0,3.504-1.571,3.504-3.504c0-1.934-1.57-3.504-3.504-3.504C10.062,8.486,8.491,10.057,8.491,11.991z"/>
</svg>
