<svg width="401" height="425" viewBox="0 0 401 425" fill="none" xmlns="http://www.w3.org/2000/svg">
<path d="M344.679 201.116C344.679 201.116 393.786 260.419 386.285 295.063C378.538 330.845 342.906 307.046 342.906 307.046L320.097 197.391L344.679 201.116Z" fill="white"/>
<path fill-rule="evenodd" clip-rule="evenodd" d="M342.686 307.374C343.27 307.765 354.58 315.213 365.859 315.213C368.506 315.213 371.152 314.803 373.657 313.792C380.184 311.166 384.564 304.892 386.674 295.144C394.13 260.712 345.48 201.457 344.986 200.863L344.89 200.746L319.594 196.914L342.551 307.284L342.686 307.374ZM373.362 313.059C361.174 317.964 344.906 307.859 343.262 306.804L320.601 197.867L344.469 201.483C346.899 204.458 393.114 261.642 385.896 294.978C383.845 304.453 379.628 310.537 373.362 313.059Z" fill="#390075"/>
<g opacity="0.3">
<path d="M386.284 295.066C378.541 330.844 342.907 307.047 342.907 307.047L344.85 291.891C344.85 291.891 377.257 313.536 386.977 284.51C387.205 288.207 387.003 291.751 386.284 295.066Z" fill="#505050"/>
</g>
<path fill-rule="evenodd" clip-rule="evenodd" d="M341.409 309.272C342.022 309.682 353.868 317.48 365.924 317.48C368.827 317.48 371.742 317.027 374.516 315.911C381.789 312.984 386.633 306.159 388.914 295.626C396.603 260.123 348.794 201.873 346.755 199.411L346.101 198.621L316.681 194.165L340.496 308.662L341.409 309.272ZM372.51 310.939C362.448 315 348.897 307.547 345.305 305.384L323.511 200.618L343.241 203.608C348.933 210.692 390.344 263.603 383.655 294.498C381.774 303.182 378.025 308.714 372.51 310.939Z" fill="black"/>
<path d="M264.443 278.785C227.346 273.662 193.809 324.715 186.207 337.193C185.151 338.927 183.371 340.093 181.354 340.36C167.943 342.109 158.459 341.867 151.374 340.394C151.368 340.4 151.368 340.394 151.361 340.394C134.778 336.957 131.343 326.792 121.441 319.66C114.733 314.817 106.714 314.463 98.5996 314.596C98.5932 314.603 98.5932 314.603 98.5868 314.596C89.2103 314.756 79.6988 315.575 71.9344 310.879C70.7916 310.189 69.7968 309.453 68.9096 308.676C61.616 302.274 61.7784 293.071 52.2058 286.006C47.2861 282.369 40.9473 281.27 34.6004 281.506C24.9474 281.84 15.2816 285.25 10.603 287.426C9.61461 287.881 8.51206 287.018 8.72743 285.953L13.5137 261.454L77.6335 231.79L245.674 217.664L264.443 278.785Z" fill="#F16357"/>
<path fill-rule="evenodd" clip-rule="evenodd" d="M151.491 340.799C155.296 341.574 159.601 341.962 164.478 341.962C169.492 341.962 175.112 341.552 181.405 340.735C183.542 340.45 185.41 339.231 186.53 337.39C190.305 331.194 200.59 315.31 214.529 301.659C231.981 284.568 248.765 276.996 264.393 279.158L264.977 279.238L245.949 217.267L77.606 231.417L77.5385 231.423L13.3576 261.114L13.184 261.194L8.36079 285.879C8.23382 286.51 8.47169 287.151 8.98278 287.552C9.49548 287.956 10.1785 288.036 10.7652 287.765C16.1831 285.243 25.6801 282.19 34.6162 281.879C41.7973 281.616 47.6491 283.102 51.9838 286.307C57.1703 290.134 59.4654 294.606 61.6833 298.932L61.6839 298.933C63.5545 302.58 65.3208 306.024 68.6635 308.958C69.6149 309.791 70.6227 310.524 71.7413 311.2C78.7712 315.45 87.3232 315.24 95.594 315.037C96.5438 315.013 97.4969 314.99 98.4468 314.972L98.6011 315.11L98.7537 314.968C106.473 314.849 114.557 315.152 121.221 319.962C124.397 322.249 126.948 324.899 129.415 327.463C134.572 332.823 139.905 338.364 151.208 340.737L151.429 340.858L151.491 340.799ZM151.451 340.027L151.258 339.987L151.257 339.986C140.279 337.667 135.265 332.456 129.958 326.941L129.949 326.932C127.462 324.349 124.89 321.676 121.663 319.352C114.81 314.406 106.582 314.093 98.7345 314.215L98.5818 314.218C97.7487 314.233 96.9145 314.253 96.0802 314.273C95.9117 314.277 95.7432 314.281 95.5747 314.286C87.4132 314.487 78.9721 314.692 72.1302 310.556C71.0486 309.903 70.0762 309.195 69.1585 308.391C65.9263 305.554 64.1923 302.176 62.3557 298.598L62.3503 298.587C60.0922 294.185 57.7569 289.634 52.429 285.701C47.9545 282.395 41.9484 280.852 34.5873 281.128C25.5403 281.442 15.9276 284.532 10.4453 287.083C10.1127 287.237 9.73817 287.191 9.44566 286.962C9.15475 286.733 9.02457 286.382 9.09689 286.022L13.8462 261.71L77.733 232.155L245.406 218.062L263.913 278.337C248.201 276.409 231.41 284.071 214.001 301.121C200.002 314.83 189.675 330.778 185.886 336.998C184.884 338.645 183.214 339.736 181.305 339.989C168.881 341.609 159.116 341.622 151.451 340.027Z" fill="#390075"/>
<g opacity="0.3">
<path d="M141.653 327.929C141.755 334.847 146.607 338.492 151.359 340.392C134.776 336.956 131.341 326.791 121.439 319.658C114.731 314.816 106.712 314.462 98.5977 314.595C112.055 311.888 129.982 306.397 143.601 295.367C167.907 275.677 197.088 275.656 197.208 275.656C157.417 285.73 141.446 314.314 141.653 327.929Z" fill="#A23027"/>
</g>
<g opacity="0.3">
<path d="M169.96 244.54C170.687 251.218 123.364 237.393 69.6218 294.65C66.2145 298.28 66.7979 303.504 68.9098 308.674C61.6163 302.272 61.7786 293.069 52.206 286.004C47.2863 282.367 40.9475 281.269 34.6006 281.504C44.2937 276.582 54.9013 271.11 64.6876 265.872C111.702 240.697 169.497 240.288 169.96 244.54Z" fill="#A23027"/>
</g>
<path fill-rule="evenodd" clip-rule="evenodd" d="M127.738 329.049C134.952 336.548 142.365 344.253 164.511 344.253C169.452 344.253 175.13 343.869 181.702 343.012C184.537 342.644 187.017 341.028 188.509 338.581C194.848 328.171 228.287 276.495 264.075 281.437L268.249 282.013L247.612 214.811L76.9359 229.161L11.1397 259.594L6.08664 285.434C5.79413 286.926 6.35987 288.436 7.56367 289.373C8.76426 290.308 10.3667 290.488 11.7424 289.849C20.476 285.785 39.8381 280.201 50.6033 288.155C55.355 291.666 57.4284 295.705 59.6235 299.982L59.6246 299.984C62.0354 304.684 64.5298 309.542 70.5392 313.173C78.1493 317.772 87.0436 317.554 95.6454 317.342C104.598 317.123 113.058 316.916 119.868 321.826C122.866 323.987 125.226 326.44 127.727 329.038L127.737 329.048L127.738 329.049ZM123.02 317.485C116.345 312.673 108.704 311.895 101.041 311.895C99.1958 311.895 97.3475 311.939 95.5121 311.984C87.3233 312.184 79.5894 312.373 73.3277 308.589C68.6238 305.747 66.6726 301.946 64.4131 297.545L64.4125 297.543L64.4118 297.542C62.1426 293.121 59.5693 288.108 53.8064 283.85C40.3541 273.91 18.999 281.112 11.8501 283.978L15.8939 263.305L78.3358 234.421L243.739 220.515L260.708 275.771C224.269 274.378 192.911 321.026 183.912 335.803C183.274 336.852 182.213 337.544 181.006 337.7C147.687 342.04 139.881 333.929 131.618 325.341C129.059 322.681 126.414 319.933 123.02 317.485Z" fill="black"/>
<path d="M267.867 208.321C231.772 227.823 109.852 191.274 19.5828 247.482C11.2462 252.672 3.01406 267.782 2.69101 285.964C2.63958 288.829 6.0067 290.43 8.21019 288.589C20.7481 278.116 54.5092 252.419 95.1669 241.994C146.828 228.746 258.114 229.361 263.987 217.535C266.4 212.671 267.867 208.321 267.867 208.321Z" fill="#F16357"/>
<path fill-rule="evenodd" clip-rule="evenodd" d="M4.44258 289.378C4.96493 289.628 5.51781 289.75 6.06587 289.75C6.9193 289.75 7.75987 289.452 8.45258 288.874C21.0515 278.348 54.7323 252.747 95.2598 242.354C119.487 236.141 157.122 232.957 190.327 230.149C228.31 226.936 261.115 224.161 264.323 217.7C266.721 212.87 268.209 208.482 268.223 208.439L268.527 207.537L267.688 207.991C254.384 215.18 229.618 214.706 198.26 214.106L198.204 214.105C146.732 213.113 76.2385 211.762 19.3832 247.163C11.1527 252.287 2.64733 267.258 2.31463 285.956C2.28892 287.429 3.10377 288.741 4.44258 289.378ZM19.7802 247.797C66.6193 218.633 122.809 214.5 169.909 214.5C179.698 214.5 189.102 214.679 197.94 214.848L198.189 214.852L198.193 214.853C229.037 215.445 253.529 215.915 267.195 209.091C266.64 210.607 265.385 213.869 263.649 217.367C260.628 223.45 226.449 226.342 190.262 229.402L190.213 229.407C156.991 232.218 119.348 235.403 95.0718 241.629C54.3948 252.06 20.6063 277.743 7.96721 288.3C7.06234 289.056 5.83604 289.21 4.76563 288.702C3.69523 288.193 3.04431 287.146 3.0652 285.969C3.39307 267.537 11.7217 252.814 19.7802 247.797Z" fill="#390075"/>
<g opacity="0.45">
<path d="M267.865 206.738C267.865 206.738 266.399 211.092 263.987 215.954C263.846 216.236 263.645 216.516 263.383 216.785C220.51 229.644 107.2 200.13 22.0465 253.146C14.3158 257.961 6.67993 271.308 5.35559 287.717C3.88981 287.396 2.66029 286.124 2.69404 284.382C3.01709 266.198 11.2444 251.09 19.5859 245.898C109.853 189.694 231.769 226.241 267.865 206.738Z" fill="white"/>
</g>
<path fill-rule="evenodd" clip-rule="evenodd" d="M3.44615 291.457C4.29154 291.86 5.18676 292.057 6.07233 292.057C7.45454 292.057 8.81585 291.577 9.93768 290.64C22.4161 280.217 55.7674 254.862 95.8369 244.586C119.878 238.421 157.409 235.246 190.523 232.445C237.891 228.438 262.778 226.008 266.396 218.721C268.846 213.787 270.332 209.418 270.414 209.177L270.416 209.172L272.592 202.719L266.586 205.963C253.81 212.868 228.059 212.374 198.247 211.8L198.219 211.8C146.461 210.809 75.5835 209.451 18.157 245.208C9.39766 250.662 0.349043 266.395 0.00188449 285.914C-0.0399031 288.302 1.27962 290.425 3.44615 291.457ZM21.0066 249.752C67.3393 220.904 123.143 216.806 169.955 216.806C179.806 216.806 189.263 216.987 198.144 217.16L198.151 217.16C225.768 217.69 248.358 218.124 263.011 213.278C262.582 214.25 262.102 215.288 261.574 216.348C261.317 216.841 259.054 219.445 239.678 222.171C226.49 224.027 208.871 225.518 190.212 227.097L190.066 227.109C156.741 229.928 118.971 233.122 94.4948 239.4C53.3598 249.948 19.2418 275.877 6.48217 286.536C6.20895 286.763 5.94054 286.709 5.76214 286.624C5.58213 286.539 5.37159 286.363 5.37802 286.01C5.68821 268.588 13.6616 254.326 21.0066 249.752Z" fill="black"/>
<path d="M366.488 407.401C366.368 408.573 366.079 409.758 365.614 410.943C359.417 426.856 308.163 426.715 302.287 404.922C297.131 385.775 299.699 361.175 300.901 352.274V352.268C300.821 352.281 300.747 352.295 300.667 352.308C300.565 352.329 300.472 352.342 300.377 352.355C299.974 352.422 299.577 352.481 299.182 352.542C299.108 352.555 299.04 352.563 298.973 352.576C297.11 352.849 295.302 353.051 293.542 353.186C284.527 353.916 276.906 353.038 271.171 351.813C270.438 360.728 267.804 387.873 261.613 404.924C253.91 426.142 204.994 426.649 198.285 410.945C196.511 406.793 196.868 403.223 198.372 400.209C202.641 391.65 216.138 387.624 216.138 387.624C217.738 368.216 213.536 349.443 211.81 334.554C211.715 333.744 211.635 332.952 211.555 332.169C211.333 329.96 211.138 327.775 210.97 325.633C209.248 304.04 209.914 285.629 212.045 270.005C213.135 262.014 214.605 254.761 216.339 248.178C218.45 240.168 220.944 233.156 223.606 227.061C226.079 221.389 228.694 216.507 231.269 212.334L231.275 212.327C234.596 206.969 237.849 202.797 240.66 199.643C245.695 193.99 249.303 191.62 249.303 191.62L286.166 185.384L287.524 191.62H337.435C341.581 198.037 345.166 204.586 348.237 211.197C358.481 233.198 363.16 255.862 364.605 276.556C365.727 292.622 364.907 307.505 363.234 319.969C361.937 329.633 360.129 337.845 358.321 344.026C354.119 358.392 347.941 387.666 347.941 387.666C359.026 390.335 367.469 398.434 366.488 407.401Z" fill="white"/>
<path d="M340.619 399.958C342.091 401.218 343.332 402.784 344.325 404.517C345.31 406.251 346.087 408.171 346.471 410.207C346.61 410.711 346.631 411.227 346.71 411.744C346.779 412.261 346.85 412.785 346.84 413.305L346.869 414.886L346.736 416.46L346.662 417.254C346.625 417.515 346.565 417.771 346.517 418.031L346.205 419.592C345.956 420.62 345.606 421.613 345.296 422.64C344.862 424.071 343.346 424.882 341.909 424.449C340.473 424.017 339.659 422.507 340.092 421.077C340.149 420.886 340.227 420.707 340.32 420.539L340.463 420.289C340.886 419.544 341.373 418.804 341.77 418.029L342.313 416.844C342.401 416.644 342.504 416.447 342.583 416.244L342.787 415.627L343.205 414.378L343.483 413.094C343.599 412.662 343.639 412.226 343.682 411.786C343.716 411.347 343.811 410.897 343.79 410.453C343.88 408.661 343.607 406.834 343.087 405.049C342.564 403.265 341.758 401.518 340.619 399.958Z" fill="#FF6F00"/>
<path d="M352.975 399.14C354.313 400.283 355.508 401.617 356.58 403.068C357.644 404.525 358.561 406.131 359.248 407.896C359.943 409.657 360.295 411.611 360.313 413.626L360.249 415.15C360.177 415.651 360.077 416.154 359.984 416.663C359.934 416.916 359.892 417.174 359.831 417.426L359.59 418.157L359.082 419.634C358.593 421.051 357.044 421.807 355.622 421.32C354.199 420.833 353.441 419.29 353.929 417.872C354.005 417.653 354.106 417.45 354.228 417.264L354.376 417.043L354.969 416.151L355.279 415.698C355.365 415.539 355.432 415.376 355.511 415.214L355.982 414.223L356.308 413.166C356.674 411.73 356.835 410.152 356.641 408.544C356.456 406.938 356.03 405.305 355.406 403.718C354.771 402.136 353.979 400.578 352.975 399.14Z" fill="#FF6F00"/>
<path d="M330.162 387.905C331.511 387.066 332.941 386.452 334.415 385.921C335.892 385.41 337.416 385.013 338.976 384.744C340.534 384.465 342.139 384.31 343.751 384.383C345.36 384.457 346.995 384.748 348.528 385.362C349.759 385.855 350.356 387.248 349.86 388.473C349.473 389.436 348.53 390.007 347.546 389.974L347.353 389.966C345.985 389.914 344.685 389.663 343.319 389.527C341.964 389.373 340.585 389.139 339.168 389.021C336.336 388.744 333.401 388.644 330.354 388.555H330.338C330.143 388.548 329.989 388.387 329.995 388.193C330 388.071 330.068 387.965 330.162 387.905Z" fill="black"/>
<g opacity="0.3">
<path d="M321.102 346.314L293.542 353.186C284.527 353.916 276.906 353.038 271.171 351.813C270.438 360.728 267.804 387.873 261.613 404.924C253.91 426.142 204.994 426.649 198.285 410.945C196.511 406.793 196.868 403.223 198.372 400.209C204.435 417.408 247.59 419.866 255.502 399.185C260.538 386.031 261.142 368.029 260.914 356.67C260.819 351.64 257.789 343.286 270.224 345.512C292.96 349.583 311.38 344.535 320.26 343.805C322.153 343.646 320.884 346.335 321.102 346.314Z" fill="#505050"/>
</g>
<g opacity="0.3">
<path d="M366.489 407.401C366.368 408.573 366.079 409.758 365.615 410.943C359.417 426.856 308.163 426.715 302.287 404.922C297.131 385.775 299.7 361.175 300.902 352.275V352.268C305.842 351.451 316.456 349.408 321.141 346.308C321.141 346.308 308.679 362.944 308.988 385.823C309.296 408.708 323.708 413.637 332.413 415.077C339.89 416.316 360.258 414.514 366.489 407.401Z" fill="#505050"/>
</g>
<path d="M337.178 424.842C336.001 424.842 334.835 424.81 333.689 424.749C319.542 423.988 303.182 418.564 299.691 405.619C294.455 386.164 296.93 361.578 298.238 351.911C298.436 350.444 299.78 349.413 301.261 349.613C302.734 349.812 303.766 351.16 303.566 352.625C302.301 361.972 299.9 385.712 304.884 404.229C307.631 414.418 322.273 418.769 333.978 419.399C348.207 420.166 360.719 416.111 363.109 409.975C364.316 406.878 364.118 403.765 362.52 400.719C360.008 395.927 354.179 391.922 347.311 390.267L344.775 389.655L345.312 387.11C345.375 386.817 351.559 357.57 355.741 343.272C364.595 312.993 370.227 247.285 335.177 193.066C334.373 191.822 334.733 190.164 335.981 189.364C337.228 188.563 338.893 188.922 339.696 190.164C375.794 246.004 370.012 313.621 360.902 344.771C357.482 356.465 352.675 378.434 351.096 385.764C358.409 388.106 364.356 392.651 367.284 398.235C369.597 402.645 369.886 407.374 368.12 411.911C364.591 420.979 350.245 424.842 337.178 424.842Z" fill="black"/>
<g opacity="0.3">
<path d="M301.537 371.614C300.401 375.352 299.832 379.342 300.2 383.415C299.792 379.344 300.401 375.352 301.537 371.614Z" fill="#6B184E"/>
<path d="M299.241 383.423V383.423V383.423C299.241 383.421 299.241 383.421 299.241 383.421C299.114 379.701 299.269 375.72 299.704 371.59L301.071 371.638C300.647 375.666 300.491 379.624 300.611 383.405C300.611 383.406 300.611 383.406 300.611 383.408L299.241 383.423Z" fill="#390075"/>
</g>
<g opacity="0.3">
<path d="M299.97 371.273C300.283 368.346 300.724 365.574 301.209 363.048C300.721 365.574 300.294 368.346 299.97 371.273Z" fill="#6B184E"/>
<path d="M300.271 371.299L299.479 371.249C299.479 371.249 299.479 371.249 299.479 371.247V371.247V371.246C299.644 368.57 299.885 365.803 300.197 363.021C300.197 363.016 300.199 363.01 300.199 363.005L300.988 363.093C300.692 365.748 300.451 368.509 300.271 371.299Z" fill="#390075"/>
</g>
<g opacity="0.3">
<path d="M301.277 362.097C301.678 361.394 302.118 360.711 302.518 360.054C302.11 360.719 301.71 361.394 301.277 362.097Z" fill="#6B184E"/>
<path d="M301.713 362.145L300.353 362.052C300.45 361.561 300.552 361.079 300.652 360.608L300.779 360.006L302.14 360.1V360.1L301.713 362.145Z" fill="#390075"/>
</g>
<g opacity="0.3">
<path d="M363.236 319.967C361.945 309.827 357.017 320.396 349.913 313.336C343.575 307.041 343.595 287.464 351.164 280.265C356.542 275.148 361.186 274.927 364.608 276.554C365.728 292.621 364.909 307.502 363.236 319.967Z" fill="#505050"/>
</g>
<path d="M371.421 274.149C369.234 269.427 362.003 263.189 352.504 272.226C344.936 279.426 344.92 299.007 351.256 305.302C358.52 312.519 363.509 301.31 364.658 312.639C364.658 312.639 370.582 304.522 372.342 296.967C374.475 287.817 373.556 278.755 371.421 274.149Z" fill="white"/>
<path fill-rule="evenodd" clip-rule="evenodd" d="M364.264 312.679L364.369 313.711L364.981 312.873C365.041 312.791 370.973 304.604 372.731 297.058C374.97 287.445 373.81 278.359 371.783 273.984C370.594 271.416 367.781 268.147 363.769 267.387C360.033 266.679 356.151 268.211 352.231 271.941C348.575 275.417 346.344 282.017 346.262 289.591C346.188 296.491 347.995 302.62 350.978 305.584C354.515 309.099 357.604 308.418 359.857 307.92L359.86 307.92C361.077 307.651 362.039 307.438 362.718 307.928C363.501 308.492 363.993 310.002 364.264 312.679ZM363.184 307.286C362.726 306.958 362.225 306.841 361.68 306.841C361.068 306.841 360.402 306.986 359.685 307.145C357.493 307.629 354.767 308.229 351.537 305.02C348.7 302.202 346.984 296.293 347.056 289.597C347.136 282.231 349.277 275.845 352.781 272.511C356.505 268.967 360.156 267.507 363.621 268.163C367.337 268.868 369.952 271.917 371.061 274.314C373.033 278.57 374.155 287.447 371.958 296.877C370.563 302.861 366.468 309.286 364.93 311.555C364.605 309.248 364.055 307.912 363.184 307.286Z" fill="#390075"/>
<g opacity="0.3">
<path d="M369.009 305.486C366.884 309.586 364.659 312.639 364.659 312.639C363.51 301.308 358.523 312.519 351.255 305.299C344.916 299.004 344.937 279.427 352.506 272.227L352.567 272.167C349.468 281.033 350.604 293.585 355.437 298.387C362.703 305.608 367.691 294.395 368.841 305.728C368.841 305.728 368.901 305.648 369.009 305.486Z" fill="#505050"/>
</g>
<path d="M364.288 276.788C362.914 276.301 361.481 276.197 360.082 276.261C358.682 276.332 357.311 276.599 356.026 277.025C353.446 277.871 351.249 279.409 349.844 281.323C349.068 282.382 347.578 282.612 346.516 281.839C345.453 281.065 345.222 279.581 345.998 278.522C346.13 278.341 346.283 278.186 346.451 278.055L346.535 277.992C349.272 275.875 352.52 274.863 355.619 274.717C357.175 274.642 358.711 274.767 360.187 275.095C361.654 275.425 363.094 275.951 364.288 276.788Z" fill="#FF6F00"/>
<path d="M364.288 290.127C362.872 289.389 361.313 289.13 359.799 289.143C358.279 289.157 356.784 289.439 355.365 289.89C353.948 290.35 352.601 290.984 351.4 291.758C350.206 292.526 349.144 293.46 348.456 294.438C347.702 295.511 346.217 295.771 345.14 295.02C344.063 294.269 343.801 292.789 344.557 291.716C344.679 291.543 344.82 291.389 344.975 291.26L345.069 291.183C346.601 289.915 348.248 289.136 349.907 288.571C351.569 288.015 353.256 287.697 354.944 287.583C356.632 287.48 358.324 287.588 359.941 287.978C361.551 288.368 363.101 289.064 364.288 290.127Z" fill="#FF6F00"/>
<path fill-rule="evenodd" clip-rule="evenodd" d="M361.983 312.908L362.691 319.89L366.831 314.213C367.086 313.864 373.097 305.565 374.96 297.572C377.336 287.381 376.119 277.899 373.861 273.025C372.376 269.819 369.057 266.064 364.195 265.141C361.098 264.554 356.234 264.972 350.646 270.287C346.554 274.18 344.057 281.387 343.968 289.564C343.886 297.172 345.9 303.763 349.357 307.198C353.785 311.598 357.896 310.69 360.352 310.148C360.685 310.074 361.103 309.983 361.4 309.939C361.553 310.308 361.805 311.148 361.983 312.908ZM364.526 305.436C363.6 304.769 362.634 304.559 361.699 304.559C360.815 304.559 359.961 304.747 359.198 304.914L359.19 304.916C357.128 305.372 355.498 305.733 353.155 303.404C350.776 301.041 349.282 295.631 349.348 289.623C349.42 282.961 351.342 277.036 354.362 274.164C357.52 271.159 360.487 269.894 363.192 270.407C365.87 270.914 368.03 273.216 368.981 275.272C370.852 279.31 371.709 287.852 369.725 296.362C368.912 299.851 367.093 303.539 365.481 306.349C365.198 305.994 364.881 305.693 364.526 305.436Z" fill="black"/>
<path d="M224.97 401.282C223.723 402.647 222.802 404.245 222.19 405.902C221.584 407.563 221.264 409.283 221.306 410.974C221.298 411.393 221.37 411.818 221.396 412.233C221.417 412.441 221.426 412.647 221.455 412.852L221.585 413.469C221.68 413.877 221.736 414.282 221.854 414.681L222.251 415.864C222.36 416.257 222.535 416.638 222.72 417.016L223.241 418.14C223.643 418.872 224.099 419.581 224.511 420.289L224.634 420.502C225.388 421.796 224.944 423.453 223.646 424.204C222.347 424.955 220.684 424.513 219.93 423.219C219.824 423.037 219.739 422.835 219.679 422.643C219.382 421.658 219.064 420.701 218.811 419.722L218.52 418.217C218.419 417.72 218.329 417.224 218.308 416.707L218.194 415.185C218.175 414.679 218.22 414.162 218.233 413.658L218.265 412.902C218.292 412.65 218.339 412.397 218.376 412.148C218.464 411.648 218.509 411.15 218.639 410.663C219.08 408.702 219.925 406.878 221.002 405.284C222.08 403.691 223.426 402.312 224.97 401.282Z" fill="#FF6F00"/>
<path d="M213.82 398.775C212.65 400.192 211.659 401.731 210.823 403.318C209.997 404.908 209.341 406.562 208.965 408.221C208.589 409.878 208.509 411.536 208.793 413.041C209.068 414.551 209.719 415.884 210.6 417.041C211.504 418.233 211.27 419.929 210.074 420.832C208.878 421.733 207.175 421.5 206.27 420.308C206.135 420.13 206.024 419.94 205.939 419.743L205.892 419.632C205.023 417.587 204.605 415.334 204.762 413.192C204.905 411.044 205.553 409.057 206.442 407.295C207.335 405.531 208.47 403.969 209.717 402.555C210.972 401.149 212.337 399.872 213.82 398.775Z" fill="#FF6F00"/>
<path d="M215.547 385.322C216.843 384.751 218.064 384.548 219.36 384.409C220.642 384.285 221.947 384.364 223.238 384.503C224.528 384.641 225.819 384.918 227.069 385.293C228.318 385.693 229.535 386.226 230.621 386.955C230.787 387.065 230.83 387.29 230.719 387.455C230.66 387.544 230.567 387.597 230.467 387.61L230.449 387.611C229.183 387.772 228.006 387.903 226.841 388.113C225.678 388.314 224.543 388.534 223.415 388.782C222.286 389.029 221.177 389.322 220.062 389.524C218.959 389.714 217.793 389.927 216.733 389.922L216.508 389.921C215.178 389.914 214.102 388.833 214.11 387.507C214.115 386.531 214.707 385.693 215.547 385.322Z" fill="black"/>
<path d="M225.934 424.566C214.136 424.566 199.796 421.322 195.812 411.992C193.931 407.587 193.93 403.331 195.809 399.338C199.483 391.537 209.478 387.17 213.588 385.66C214.475 371.894 212.495 358.425 210.738 346.486C210.005 341.509 209.314 336.805 208.88 332.43C203.243 275.63 213.978 239.896 223.978 219.922C234.96 197.982 247.305 189.718 247.826 189.376L248.297 189.067L285.721 182.739C287.19 182.489 288.572 183.472 288.821 184.931C289.07 186.39 288.085 187.774 286.619 188.02L250.362 194.152C248.172 195.776 237.807 204.117 228.584 222.726C219.012 242.042 208.751 276.662 214.234 331.904C214.655 336.154 215.338 340.794 216.061 345.709C217.933 358.436 220.055 372.862 218.822 387.841L218.673 389.663L216.914 390.188C216.791 390.225 204.217 394.081 200.675 401.625C199.462 404.21 199.491 406.916 200.764 409.896C203.255 415.733 214.253 419.549 227.533 419.187C240.627 418.827 255.462 413.996 259.086 404.013C265.205 387.163 267.833 359.631 268.493 351.595L268.742 348.555L271.737 349.195C282.51 351.498 299.647 352.439 320.098 343.842C321.467 343.267 323.044 343.906 323.621 345.269C324.198 346.631 323.556 348.204 322.189 348.779C302.237 357.165 285.179 356.998 273.594 355.01C272.514 366.909 269.795 390.271 264.142 405.837C259.35 419.037 241.505 424.164 227.68 424.545C227.104 424.558 226.522 424.566 225.934 424.566Z" fill="black"/>
<g opacity="0.3">
<path d="M249.339 328.8C244.124 331.406 240.514 330.187 232.185 332.511C227.91 333.702 225.914 334.941 218.977 335.337C216.947 335.451 214.493 335.196 211.812 334.554C211.717 333.744 211.637 332.952 211.557 332.169C211.335 329.96 211.14 327.775 210.972 325.633C209.25 304.04 209.916 285.629 212.047 270.005C219.072 272.168 224.805 274.586 224.456 276.642C222.568 287.807 228.9 294.209 232.92 293.915C235.38 293.74 239.736 289.922 249.341 293.666C260.665 298.08 257.951 324.501 249.339 328.8Z" fill="#505050"/>
</g>
<path d="M249.339 320.094C244.123 322.699 240.513 321.48 232.185 323.804C227.91 324.995 225.913 326.235 218.977 326.63C216.738 326.757 213.983 326.437 210.971 325.633C197.655 322.103 179.304 309.272 178.424 284.96C177.577 261.572 194.261 238.735 210.669 222.065C226.177 206.312 241.442 196.065 241.442 196.065L240.663 199.641L234.115 229.558L227.487 259.863C227.487 259.863 225.328 262.776 224.456 267.934C222.567 279.099 228.9 285.501 232.919 285.206C235.38 285.032 239.736 281.214 249.34 284.958C260.665 289.373 257.95 315.794 249.339 320.094Z" fill="white"/>
<g opacity="0.3">
<path d="M256.014 308.689C254.837 314.007 252.484 318.521 249.339 320.095C244.123 322.701 240.514 321.482 232.185 323.805C227.91 324.997 225.914 326.236 218.977 326.632C216.738 326.758 213.983 326.438 210.971 325.634C197.656 322.105 179.304 309.273 178.424 284.961C178.014 273.683 181.683 262.525 187.431 252.13C184.513 259.551 182.866 267.247 183.149 274.995C184.03 299.306 202.381 312.138 215.697 315.667C218.709 316.471 221.463 316.793 223.702 316.665C230.639 316.27 232.635 315.032 236.91 313.839C245.239 311.515 248.849 312.734 254.064 310.128C254.75 309.787 255.403 309.297 256.014 308.689Z" fill="#505050"/>
</g>
<path d="M237.405 293.73C238.458 292.408 239.806 291.245 241.423 290.467C243.034 289.681 244.872 289.298 246.705 289.263C248.543 289.224 250.375 289.506 252.142 289.977C253.91 290.449 255.617 291.109 257.264 291.902L257.285 291.913C258.463 292.48 258.958 293.891 258.389 295.066C257.82 296.24 256.404 296.733 255.224 296.166C255.062 296.088 254.903 295.985 254.766 295.878C252.335 293.923 249.559 292.272 246.504 291.601C244.982 291.274 243.386 291.221 241.819 291.573C240.252 291.914 238.739 292.678 237.405 293.73Z" fill="#FF6F00"/>
<path d="M239.688 303.635C240.997 302.909 242.347 302.186 243.824 301.707C245.289 301.207 246.857 300.842 248.5 300.807C250.136 300.756 251.838 301.017 253.424 301.542C254.999 302.034 256.539 302.839 257.692 303.249C258.927 303.689 259.572 305.044 259.13 306.276C258.688 307.507 257.328 308.149 256.092 307.709C255.883 307.635 255.692 307.534 255.52 307.412L255.493 307.393C254.038 306.357 253.109 305.468 251.957 304.738C250.842 304.002 249.623 303.46 248.286 303.14C246.952 302.809 245.517 302.754 244.066 302.853C242.601 302.929 241.148 303.268 239.688 303.635Z" fill="#FF6F00"/>
<path d="M228.205 260.395C227.302 263.114 226.747 266.008 226.67 268.797C226.664 269.499 226.595 270.194 226.654 270.879L226.68 271.902C226.722 272.237 226.759 272.572 226.788 272.906C226.821 273.581 227.003 274.216 227.088 274.868C227.27 275.491 227.382 276.138 227.635 276.721C227.834 277.329 228.122 277.882 228.374 278.449L228.837 279.237C228.991 279.499 229.186 279.72 229.353 279.967C230.057 280.899 230.921 281.669 231.727 282.069C232.099 282.213 232.495 282.375 232.652 282.335C232.713 282.359 232.738 282.337 232.77 282.337C232.773 282.343 232.818 282.335 232.879 282.316L233.038 282.278C233.29 282.209 233.61 282.106 233.973 281.981C235.415 281.475 237.225 280.926 239.012 280.719C242.649 280.271 246.219 280.963 249.358 282.116L249.951 282.332C250.148 282.404 250.338 282.465 250.582 282.582C251.036 282.803 251.516 282.981 251.934 283.259C252.8 283.773 253.596 284.39 254.284 285.077C255.671 286.455 256.661 288.062 257.395 289.687C258.86 292.96 259.351 296.331 259.515 299.641C259.62 302.956 259.33 306.245 258.59 309.48C257.837 312.706 256.74 315.92 254.591 318.913C254.337 319.29 254.001 319.645 253.705 320.009C253.39 320.367 253.016 320.705 252.669 321.048C252.257 321.365 251.884 321.7 251.423 321.98C250.962 322.26 250.47 322.547 250.097 322.701C248.503 323.456 246.738 324.007 245.055 324.305C243.371 324.613 241.799 324.76 240.311 324.946C238.821 325.127 237.39 325.344 235.968 325.644C234.547 325.947 233.133 326.299 231.738 326.731C230.341 327.157 228.848 327.687 227.225 328.12C225.603 328.552 223.933 328.853 222.307 329.036C220.666 329.21 219.132 329.364 217.3 329.319C215.558 329.263 213.882 329.036 212.255 328.686C210.627 328.341 209.031 327.91 207.485 327.369C204.375 326.321 201.424 324.914 198.616 323.269C195.81 321.623 193.169 319.695 190.749 317.512C185.902 313.163 181.933 307.76 179.378 301.731C178.094 298.722 177.158 295.572 176.557 292.374C176.237 290.778 176.054 289.162 175.895 287.548L175.739 285.123L175.752 282.694C175.815 276.21 177.128 269.827 179.225 263.811C181.326 257.785 184.192 252.1 187.482 246.732C194.097 235.997 202.335 226.485 211.206 217.749C213.432 215.57 215.691 213.427 218.006 211.347C220.311 209.256 222.591 207.137 224.941 205.092C227.297 203.057 229.788 201.177 232.392 199.455C233.705 198.608 235.055 197.814 236.477 197.121C237.895 196.419 239.346 195.782 240.938 195.329C241.439 195.186 241.96 195.476 242.103 195.974C242.188 196.27 242.119 196.575 241.945 196.802L241.939 196.81C238.038 201.833 233.329 205.619 228.623 209.478C226.259 211.389 223.869 213.275 221.62 215.322C219.351 217.346 217.151 219.442 214.981 221.564C206.337 230.072 198.361 239.308 192.069 249.528C188.938 254.635 186.247 259.991 184.304 265.571C182.363 271.142 181.185 276.947 181.128 282.748L181.112 284.923L181.252 287.094C181.395 288.534 181.556 289.974 181.842 291.388C182.374 294.222 183.198 296.992 184.325 299.633C186.569 304.922 190.042 309.666 194.348 313.531C196.495 315.469 198.849 317.19 201.353 318.659C203.856 320.126 206.493 321.383 209.222 322.3C211.935 323.224 214.775 323.879 217.463 323.966C218.711 324.007 220.256 323.873 221.675 323.716C223.11 323.554 224.478 323.304 225.835 322.944C227.189 322.585 228.602 322.087 230.152 321.612C231.699 321.133 233.276 320.739 234.869 320.399C238.043 319.696 241.375 319.512 244.062 319.04C245.414 318.796 246.609 318.414 247.8 317.855C248.141 317.714 248.302 317.589 248.503 317.479C248.705 317.366 248.898 317.171 249.105 317.032C249.297 316.827 249.504 316.657 249.694 316.436C249.877 316.199 250.084 316.004 250.256 315.738C251.719 313.731 252.726 311.03 253.342 308.295C253.975 305.542 254.228 302.664 254.138 299.846C254.006 297.045 253.553 294.228 252.484 291.879C251.957 290.71 251.286 289.669 250.488 288.878C250.091 288.478 249.658 288.151 249.202 287.877C248.985 287.717 248.724 287.65 248.493 287.522C248.393 287.463 248.217 287.405 248.051 287.347L247.556 287.178C244.92 286.263 242.244 285.82 239.75 286.206C238.478 286.404 237.328 286.777 235.883 287.331C235.521 287.468 235.113 287.618 234.628 287.767L234.229 287.877C234.105 287.913 233.962 287.948 233.774 287.977C233.425 288.036 233.07 288.089 232.744 288.073C232.411 288.07 232.072 288.062 231.747 288.033C231.447 287.978 231.146 287.917 230.847 287.852C230.537 287.794 230.27 287.697 230.008 287.594C229.743 287.493 229.475 287.391 229.216 287.28C227.255 286.307 225.823 284.904 224.703 283.376C223.594 281.836 222.794 280.154 222.315 278.421C221.262 274.966 221.35 271.39 222.106 268.131C222.48 266.495 223.046 264.903 223.811 263.418C224.584 261.923 225.476 260.558 226.762 259.336C227.124 258.992 227.697 259.007 228.041 259.367C228.279 259.617 228.347 259.966 228.245 260.272L228.205 260.395Z" fill="black"/>
<path d="M221.094 301.226C221.226 299.358 221.648 297.561 222.201 295.777C222.775 294.006 223.513 292.264 224.453 290.593C225.416 288.939 226.558 287.322 228.01 285.929C229.487 284.564 231.261 283.398 233.267 282.774C234.527 282.382 235.866 283.081 236.259 284.335C236.581 285.357 236.174 286.433 235.331 287.01L235.131 287.144C233.887 287.993 232.661 288.789 231.456 289.769C230.284 290.784 229.078 291.855 227.952 293.079C225.719 295.546 223.688 298.398 221.746 301.423L221.737 301.438C221.632 301.6 221.417 301.648 221.255 301.543C221.142 301.473 221.084 301.35 221.094 301.226Z" fill="black"/>
<path d="M207.313 225.561C237.317 245.613 308.835 232.866 307.115 224.267C306.469 221.032 245.678 229.066 214.318 218.451C214.318 218.451 211.037 218.451 208.647 221.144C208.152 221.705 206.277 224.869 207.313 225.561Z" fill="#F16357"/>
<path fill-rule="evenodd" clip-rule="evenodd" d="M207.105 225.873C220.502 234.826 240.829 236.62 254.958 236.62C257.369 236.62 259.601 236.568 261.584 236.488C279.945 235.769 298.685 231.974 305.175 227.66C306.933 226.491 307.711 225.325 307.485 224.193C307.211 222.83 302.396 222.912 288.507 223.343C268.447 223.967 234.871 225.011 214.44 218.095L214.319 218.076C214.178 218.076 210.841 218.108 208.368 220.896C207.963 221.354 206.471 223.729 206.645 225.074C206.701 225.519 206.926 225.754 207.105 225.873ZM208.93 221.391C211.004 219.053 213.826 218.843 214.261 218.825C234.829 225.762 268.441 224.717 288.531 224.091C297.589 223.809 306.149 223.543 306.747 224.339C306.948 225.343 305.776 226.36 304.759 227.037C293.486 234.53 234.366 243.19 207.522 225.25C207.476 225.22 207.413 225.157 207.389 224.978C207.265 224.017 208.495 221.882 208.93 221.391Z" fill="#390075"/>
<path d="M349.564 214.097C330.914 229.197 307.307 227.543 307.114 224.267C306.921 220.99 321.923 220.624 346.288 203.573C346.288 203.573 349.011 203.765 350.951 206.99C352.259 209.164 350.474 213.362 349.564 214.097Z" fill="#F16357"/>
<path fill-rule="evenodd" clip-rule="evenodd" d="M308.203 225.79C309.569 226.389 312.118 226.803 315.44 226.803C324.072 226.803 337.925 224.004 349.802 214.39C350.797 213.583 352.697 209.164 351.274 206.799C349.257 203.446 346.435 203.209 346.316 203.201L346.183 203.191L346.073 203.268C331.308 213.6 320.112 217.745 313.423 220.22C308.911 221.889 306.648 222.726 306.74 224.289C306.775 224.874 307.267 225.378 308.203 225.79ZM313.683 220.922C320.39 218.44 331.599 214.29 346.387 203.962C346.925 204.045 349.032 204.527 350.627 207.182C351.814 209.156 350.146 213.141 349.326 213.805C333.122 226.924 313.302 227.207 308.503 225.103C307.884 224.831 307.505 224.51 307.489 224.244C307.429 223.236 309.783 222.365 313.682 220.922L313.683 220.922Z" fill="#390075"/>
<path fill-rule="evenodd" clip-rule="evenodd" d="M205.815 227.787C219.705 237.07 240.56 238.924 254.994 238.924C257.424 238.924 259.673 238.871 261.674 238.794C280.713 238.048 299.548 234.173 306.457 229.58C309.712 227.417 310.045 225.213 309.75 223.745C309.172 220.858 305.625 220.814 301.866 220.768L301.864 220.768C298.553 220.728 293.862 220.872 288.432 221.042C268.529 221.661 235.217 222.696 215.182 215.914L214.761 215.772H214.317C213.858 215.772 209.735 215.872 206.632 219.371C206.217 219.841 204.034 222.934 204.349 225.37C204.481 226.385 205.002 227.242 205.815 227.787ZM291.169 229.57C269.326 234.842 230.177 236.504 209.994 224.094C210.216 223.626 210.502 223.125 210.664 222.917C211.826 221.607 213.321 221.255 213.981 221.162C234.976 228.061 268.498 227.02 288.597 226.395L288.603 226.395C293.412 226.246 298.323 226.096 301.689 226.12C299.644 227.101 296.327 228.325 291.169 229.57Z" fill="#505050"/>
<path fill-rule="evenodd" clip-rule="evenodd" d="M307.27 227.899C309.091 228.696 311.971 229.17 315.531 229.17C325.041 229.17 339.391 225.788 351.261 216.177C353.133 214.659 355.309 209.028 353.257 205.614C350.672 201.316 346.899 200.932 346.478 200.901L345.524 200.834L344.743 201.382C330.224 211.543 319.204 215.622 312.619 218.059L312.617 218.06L312.609 218.063C307.389 219.996 304.238 221.162 304.431 224.425C304.481 225.279 304.917 226.866 307.27 227.899ZM347.755 212.111C334.701 222.622 319.75 224.246 312.863 223.689C313.401 223.485 313.954 223.28 314.488 223.083L314.488 223.083C321.155 220.616 332.204 216.526 346.765 206.508C347.292 206.778 348.011 207.317 348.644 208.367C348.982 208.969 348.352 211.304 347.755 212.111Z" fill="#505050"/>
<path d="M304.887 241.115C301.864 246.732 296.169 249.927 293.283 251.253C292.363 251.676 291.296 251.106 291.142 250.108C290.655 246.979 290.174 240.485 293.199 234.868C296.222 229.25 301.917 226.056 304.803 224.73C305.723 224.307 306.79 224.877 306.944 225.875C307.431 229.004 307.91 235.499 304.887 241.115Z" fill="#F16357"/>
<path fill-rule="evenodd" clip-rule="evenodd" d="M291.746 251.544C292.028 251.695 292.335 251.77 292.642 251.77C292.913 251.77 293.183 251.711 293.439 251.594C296.531 250.172 302.175 246.944 305.216 241.292C308.259 235.641 307.836 229.17 307.314 225.817C307.222 225.224 306.865 224.723 306.335 224.44C305.806 224.156 305.189 224.139 304.643 224.39C301.55 225.812 295.907 229.041 292.865 234.692C289.822 240.344 290.245 246.814 290.769 250.167C290.861 250.76 291.216 251.261 291.746 251.544ZM304.959 225.071C305.113 225 305.277 224.965 305.441 224.965C305.626 224.965 305.811 225.01 305.981 225.1C306.301 225.271 306.517 225.575 306.573 225.932C307.081 229.194 307.494 235.481 304.556 240.939C301.618 246.396 296.134 249.531 293.125 250.913C292.796 251.066 292.421 251.053 292.103 250.883C291.783 250.713 291.569 250.409 291.513 250.052C291.004 246.79 290.589 240.505 293.529 235.046C296.467 229.587 301.95 226.453 304.959 225.071Z" fill="#390075"/>
<path fill-rule="evenodd" clip-rule="evenodd" d="M290.653 253.573C291.279 253.908 291.958 254.076 292.642 254.076C293.239 254.076 293.841 253.946 294.406 253.687C297.764 252.145 303.895 248.625 307.254 242.381C310.615 236.139 310.167 229.103 309.599 225.463C309.395 224.15 308.603 223.037 307.428 222.409C306.253 221.78 304.885 221.74 303.675 222.297C300.319 223.839 294.188 227.357 290.827 233.601C287.466 239.845 287.916 246.881 288.484 250.518C288.688 251.831 289.479 252.945 290.653 253.573ZM295.565 236.136C297.775 232.032 301.672 229.367 304.487 227.876C304.797 231.036 304.725 235.747 302.515 239.85C300.306 243.954 296.407 246.619 293.595 248.109C293.284 244.95 293.355 240.24 295.565 236.136Z" fill="#505050"/>
<path d="M313.033 240.117C317.334 244.836 323.636 246.559 326.759 247.15C327.753 247.338 328.65 246.527 328.557 245.523C328.269 242.369 327.154 235.954 322.853 231.234C318.552 226.515 312.25 224.792 309.127 224.201C308.133 224.014 307.236 224.824 307.329 225.828C307.618 228.981 308.734 235.398 313.033 240.117Z" fill="#F16357"/>
<path fill-rule="evenodd" clip-rule="evenodd" d="M326.688 247.517C326.808 247.539 326.929 247.551 327.048 247.551C327.515 247.551 327.964 247.381 328.316 247.061C328.761 246.657 328.984 246.085 328.93 245.488C328.623 242.109 327.458 235.729 323.131 230.981C318.806 226.233 312.546 224.465 309.198 223.833C308.608 223.719 308.014 223.887 307.568 224.289C307.123 224.693 306.9 225.265 306.954 225.862C307.263 229.242 308.428 235.62 312.753 240.369C317.08 245.117 323.34 246.886 326.688 247.517ZM326.829 246.782C323.575 246.169 317.493 244.452 313.313 239.866C309.134 235.279 308.006 229.081 307.703 225.795C307.67 225.434 307.805 225.088 308.073 224.845C308.343 224.603 308.698 224.502 309.058 224.57C312.313 225.184 318.396 226.899 322.575 231.486C326.755 236.072 327.882 242.271 328.182 245.557C328.216 245.917 328.081 246.263 327.813 246.507C327.546 246.748 327.189 246.849 326.829 246.782Z" fill="#390075"/>
<path fill-rule="evenodd" clip-rule="evenodd" d="M326.256 249.781C326.523 249.831 326.79 249.857 327.055 249.857C328.09 249.857 329.087 249.477 329.871 248.764C330.858 247.872 331.354 246.601 331.234 245.278C330.9 241.611 329.623 234.677 324.844 229.431C320.065 224.185 313.26 222.252 309.63 221.567C308.323 221.32 307 221.689 306.014 222.582C305.027 223.474 304.53 224.746 304.651 226.07C304.986 229.737 306.263 236.673 311.041 241.917C315.821 247.163 322.626 249.096 326.256 249.781ZM325.687 244.173C322.595 243.406 318.166 241.763 315.024 238.316C311.883 234.869 310.668 230.317 310.199 227.175C313.291 227.942 317.722 229.585 320.863 233.033C324.005 236.48 325.22 241.033 325.687 244.173Z" fill="#505050"/>
<path d="M303.717 39.5648C312.738 31.8495 354.169 -2.69339 363.809 3.59674C380.694 14.6141 371.45 63.1047 369.103 74.1061" fill="#FFCE04"/>
<g opacity="0.35">
<path d="M303.716 39.5664L310.678 43.2431C324.055 32.0832 358.48 4.6712 367.154 10.3336C368.663 11.32 369.967 12.6043 371.081 14.1368C369.523 9.51851 367.19 5.80496 363.808 3.59829C354.171 -2.69023 312.739 31.8478 303.716 39.5664Z" fill="white"/>
</g>
<path d="M369.105 76.7867C368.92 76.7867 368.732 76.7675 368.544 76.7274C367.091 76.42 366.164 74.9964 366.472 73.5504C372.088 47.2241 374.375 13.6949 362.335 5.8402C361.559 5.33257 356.602 3.57268 335.069 18.5278C322.12 27.521 309.138 38.4598 305.467 41.5985C304.341 42.5625 302.643 42.4328 301.676 41.3102C300.708 40.1877 300.839 38.4967 301.965 37.5326C305.683 34.3524 318.839 23.2678 331.993 14.132C354.947 -1.81108 361.985 -0.794215 365.28 1.35801C383.271 13.0976 374.766 60.4352 371.731 74.6649C371.464 75.9236 370.347 76.7867 369.105 76.7867Z" fill="#505050"/>
<path d="M360.498 18.185C360.498 18.185 362.636 17.1041 363.185 22.4414C364.129 31.5884 363.113 54.957 353.601 64.5635C353.601 64.5635 334.985 43.2671 330.417 41.1021C325.85 38.937 334.577 34.8744 336.756 31.2201C338.936 27.5658 358.692 17.5733 360.498 18.185Z" fill="#EBA7A4"/>
<path fill-rule="evenodd" clip-rule="evenodd" d="M353.303 64.8246L353.584 65.1465L353.886 64.8438C363.424 55.2116 364.539 31.6653 363.583 22.403C363.33 19.9498 362.704 18.4365 361.723 17.9032C361.222 17.631 360.73 17.6822 360.445 17.7815C360.426 17.7799 360.405 17.7799 360.384 17.7799C357.38 17.7799 338.539 27.4617 336.418 31.0199C335.68 32.2574 334.115 33.5782 332.602 34.8557L332.6 34.8568L332.599 34.858C330.419 36.699 328.536 38.2888 328.732 39.789C328.82 40.4631 329.331 41.0252 330.249 41.4608C334.69 43.5666 353.118 64.6116 353.303 64.8246ZM337.097 31.4235C339.245 27.8236 358.155 18.5486 360.261 18.5486C360.306 18.5486 360.341 18.5534 360.371 18.5598L360.527 18.6078L360.672 18.5422C360.685 18.5358 360.99 18.3981 361.357 18.6062C361.767 18.8384 362.498 19.6519 362.79 22.4831C363.726 31.5324 362.684 54.3581 353.616 63.9791C351.165 61.1895 334.92 42.7995 330.588 40.7466C329.929 40.4343 329.569 40.0772 329.518 39.6865C329.376 38.6136 331.274 37.0106 333.111 35.4605C334.675 34.141 336.292 32.775 337.097 31.4235Z" fill="#390075"/>
<path d="M330.421 41.102C333.082 42.3671 340.506 50.1129 346.242 56.3629C350.355 60.8499 353.603 64.5651 353.603 64.5651C363.115 54.957 364.127 31.59 363.185 22.4398C362.637 17.1025 360.498 18.1882 360.498 18.1882C359.701 17.9192 355.4 19.7175 350.655 22.1275C344.667 25.1685 337.971 29.1751 336.756 31.2184C334.577 34.8759 325.848 38.9418 330.421 41.102Z" fill="#F16357"/>
<path fill-rule="evenodd" clip-rule="evenodd" d="M349.487 62.2844C349.808 62.6632 350.129 63.042 350.453 63.4186L350.469 63.409C351.194 64.4178 352.417 65.1576 353.726 65.2297C355.019 65.3322 356.395 64.8438 357.321 63.8445C357.549 63.6011 357.766 63.3321 357.93 63.0438C358.009 62.9093 358.11 62.7348 358.163 62.6259L358.329 62.2912C358.549 61.8444 358.756 61.3961 358.962 60.9461C359.369 60.0461 359.748 59.1381 360.109 58.227C360.833 56.4046 361.495 54.5663 362.082 52.7103C362.127 52.5659 362.172 52.4219 362.217 52.2782C362.758 50.5593 363.285 48.8849 363.745 47.0863C364.745 43.2143 365.235 39.2189 365.307 35.2251C365.33 31.2313 364.975 27.2375 364.174 23.319C363.972 22.3406 363.742 21.3653 363.486 20.3949L363.287 19.6679L363.234 19.4789L363.129 19.1699C363.065 18.9679 362.97 18.7736 362.876 18.581L362.869 18.5678C362.472 17.7799 361.85 17.1105 361.117 16.6317C360.384 16.1481 359.528 15.8663 358.647 15.807C358.207 15.7718 357.763 15.8086 357.327 15.8839C357.309 15.8882 357.29 15.8925 357.272 15.8968C357.076 15.9421 356.879 15.9877 356.689 16.052C356.506 16.1145 356.222 16.2234 356.153 16.2586C355.248 16.651 354.351 17.0577 353.457 17.4692C349.902 19.1523 346.443 21.0275 343.089 23.0932C339.749 25.1814 336.519 27.4617 333.467 29.9886C330.437 32.5396 327.583 35.3388 325.079 38.4646L323.656 40.2405L325.606 41.3343C326.705 41.9524 327.907 42.7322 329.034 43.5009C330.175 44.2776 331.297 45.0958 332.399 45.943C334.603 47.6372 336.761 49.4083 338.844 51.2723C340.903 53.1603 342.94 55.0867 344.859 57.13C345.508 57.783 346.123 58.467 346.738 59.1518C347.06 59.5098 347.383 59.8681 347.71 60.2223C348.312 60.9002 348.899 61.5922 349.487 62.2844ZM353.808 62.8789C353.173 62.9237 352.552 62.6467 352.083 62.1567L352.099 62.1487C351.791 61.7473 351.485 61.3436 351.179 60.9396C350.622 60.204 350.064 59.4678 349.491 58.7442C349.18 58.3685 348.875 57.9882 348.569 57.6078C347.978 56.8728 347.387 56.1369 346.76 55.431C344.915 53.2371 342.944 51.149 340.935 49.0928C338.894 47.0687 336.798 45.0878 334.572 43.2431C333.463 42.3159 332.329 41.4159 331.162 40.548C330.593 40.1271 330.035 39.7187 329.459 39.3163C331.521 37.1503 333.788 35.159 336.175 33.3131C339.114 31.0055 342.245 28.9189 345.484 27.0021C348.703 25.0533 352.059 23.3126 355.465 21.6968C356.316 21.2965 357.17 20.8993 358.03 20.5182C358.121 20.4758 358.136 20.4735 358.143 20.4724C358.148 20.4717 358.149 20.4714 358.165 20.4622C358.174 20.4581 358.182 20.4566 358.191 20.4552C358.203 20.4532 358.214 20.4513 358.224 20.443C358.24 20.443 358.256 20.4409 358.271 20.4389C358.295 20.4358 358.318 20.4327 358.343 20.4366C358.422 20.4398 358.514 20.4606 358.584 20.5102C358.655 20.5583 358.718 20.6095 358.751 20.6832C358.754 20.6918 358.759 20.699 358.763 20.7062C358.77 20.7165 358.776 20.7267 358.777 20.7408C358.78 20.752 358.785 20.7616 358.792 20.7712L358.837 20.9282L359.023 21.5895C359.262 22.4735 359.483 23.367 359.677 24.267C360.481 27.862 360.924 31.5484 360.992 35.2347C361.045 38.9194 360.772 42.6169 360 46.2248C359.25 49.8839 358.261 53.6087 357.194 57.2069C356.919 58.1085 356.628 59.002 356.313 59.8828C356.156 60.3215 355.993 60.7587 355.823 61.1911L355.694 61.5146C355.669 61.5787 355.651 61.6164 355.633 61.6517C355.62 61.6773 355.608 61.7017 355.595 61.7339C355.539 61.8701 355.455 61.987 355.368 62.1023C355.027 62.5666 354.43 62.8373 353.808 62.8789ZM329.459 39.3163C328.836 38.8814 328.193 38.4535 327.496 38.0243L328.023 40.8923C328.489 40.3568 328.968 39.8316 329.459 39.3163Z" fill="#505050"/>
<g opacity="0.3">
<path d="M348.924 204.588C345.886 206.45 341.129 209.301 337.8 210.921C337.8 210.921 283.582 232.852 235.702 224.017C232.147 223.36 228.63 222.537 225.196 221.519C220.732 220.193 216.404 218.545 212.256 216.523C227.764 200.77 241.44 196.064 241.44 196.064L240.66 199.64C245.696 193.987 249.304 191.617 249.304 191.617L286.167 185.381L287.525 191.617H337.435C341.584 198.033 345.852 197.979 348.924 204.588Z" fill="#505050"/>
</g>
<path d="M398.18 150.307C398.159 155.732 385.428 150.675 385.428 150.675C385.428 150.675 384.917 152.436 387.848 156.97C390.02 160.333 391.881 162.776 391.351 164.772C390.793 166.895 387.344 167.693 383.216 167.672C380.327 167.659 377.953 168.288 375.164 172.032C374.619 172.756 374.062 173.606 373.483 174.591C373.477 174.598 373.477 174.598 373.47 174.604V174.61C365.222 186.545 353.237 195.928 338.684 203.014C338.684 203.014 256.912 234.713 206.854 206.678C199.104 202.151 192.159 196.403 186.439 189.237C185.201 189.029 184.018 189.164 182.768 189.445C178.748 190.35 175.206 190.317 174.19 188.36C173.25 186.525 174.264 183.532 175.481 179.7C176.476 176.599 176.792 174.682 176.885 173.839C176.913 173.618 176.717 173.464 176.556 173.565C174.579 174.838 165.458 180.409 164.396 175.695C164.187 174.756 164.47 173.089 164.96 170.947C165.841 167.068 167.372 161.638 167.742 156.252C168.676 142.63 169.55 133.012 170.135 127.199C170.148 127.039 170.162 126.877 170.182 126.723C170.188 126.57 170.209 126.416 170.222 126.269C170.235 126.121 170.256 125.974 170.269 125.833C170.45 124.139 170.678 122.457 170.955 120.776C172.205 113.014 174.377 105.211 177.247 96.3377L204.491 60.1647L219.676 39.9988L222.654 36.0402C232.474 29.9263 243.694 25.3576 256.304 22.7794H256.325C258.12 22.4111 259.948 22.0828 261.796 21.801C262.945 21.6264 264.094 21.4663 265.231 21.3254C267.06 21.098 268.868 20.917 270.655 20.7969C270.729 20.7841 270.803 20.7841 270.877 20.7841C276.314 20.3886 281.525 20.6832 286.567 21.3734C291.634 22.0636 296.543 23.1413 301.367 24.3071C313.587 27.268 324.256 32.6117 333.081 38.4727C351.344 50.595 361.75 64.9207 361.75 64.9207C367.27 72.5752 371.752 79.5619 375.315 86.8144C376.68 89.5864 377.909 92.3792 379.012 95.2728C379.329 96.0959 379.631 96.9206 379.92 97.7581C379.92 97.7581 379.947 97.8254 379.994 97.9727C380.552 99.5532 384.377 110.55 390.716 132.043C393.085 140.072 398.186 147.621 398.18 150.307Z" fill="white"/>
<path d="M379.013 95.2712C363.894 101.781 345.816 104.729 326.959 97.1688C284.225 80.0343 283.755 41.0316 286.568 21.3766C291.637 22.0604 296.541 23.1445 301.372 24.3087C338.862 33.3964 361.752 64.9207 361.752 64.9207C367.274 72.572 371.757 79.5619 375.317 86.8128C376.683 89.5848 377.914 92.3807 379.013 95.2712Z" fill="#FFCE04"/>
<path d="M232.582 46.2969C222.263 40.4119 175.048 14.2569 166.769 22.2429C152.267 36.2307 173.983 88.7648 178.365 99.1288" fill="white"/>
<g opacity="0.35">
<path d="M398.178 150.307C398.178 151.363 397.693 152.014 396.92 152.396C395.237 148.917 392.931 144.404 391.553 139.738C385.218 118.251 381.401 107.249 380.838 105.667C380.798 105.529 380.772 105.465 380.772 105.465C379.453 101.675 377.919 98.0655 376.163 94.5121C372.595 87.2612 369.771 79.099 364.248 71.4478C364.248 71.4478 339.701 41.0941 302.218 32.0064C292.578 29.6892 282.637 27.6827 271.719 28.4802C271.652 28.4802 271.578 28.4802 271.499 28.501C268.593 28.6947 265.643 29.0358 262.642 29.5002C247.775 31.7822 235.559 35.595 224.133 43.9413L220.395 46.9326C205.145 38.479 172.206 22.2941 164.761 29.4842C163.462 30.7301 162.424 32.2418 161.622 33.952C162.276 29.1271 163.872 25.0405 166.772 22.2365C173.858 15.4035 205.035 30.4434 220.343 38.6087L219.829 37.8897C232.327 29.0246 246.933 24.0828 261.793 21.8025C264.8 21.3365 267.753 20.997 270.659 20.8017C270.737 20.7808 270.811 20.7808 270.879 20.7808C281.789 19.9834 291.737 21.9899 301.377 24.307C338.861 33.3947 361.757 64.919 361.757 64.919C367.273 72.5703 371.756 79.5602 375.316 86.8128C377.079 90.3662 378.604 93.9756 379.932 97.7661C379.932 97.7661 379.951 97.8317 379.998 97.9678C380.56 99.55 384.377 110.551 390.713 132.038C393.083 140.072 398.191 147.621 398.178 150.307Z" fill="white"/>
</g>
<path d="M172.778 35.9473C172.778 35.9473 170.475 35.2875 170.943 40.6329C171.743 49.7926 177.156 72.5543 188.313 80.204C188.313 80.204 202.574 55.7977 206.65 52.8144C210.726 49.8311 201.388 47.4787 198.558 44.2968C195.726 41.1165 174.435 35.0073 172.778 35.9473Z" fill="#EBA7A4"/>
<path fill-rule="evenodd" clip-rule="evenodd" d="M188.087 80.5307L188.44 80.7725L188.654 80.4026L188.664 80.3851C189.116 79.614 202.965 56.0002 206.883 53.1331C207.703 52.5342 208.096 51.8856 208.056 51.2066C207.966 49.6966 205.816 48.4875 203.326 47.088L203.321 47.0851C201.595 46.114 199.812 45.1108 198.853 44.0342C196.076 40.9163 175.454 34.8792 172.754 35.539C172.46 35.4973 171.963 35.5358 171.521 35.8977C170.66 36.6055 170.33 38.21 170.545 40.6665C171.357 49.9432 176.9 72.8602 188.087 80.5307ZM172.013 36.5222C172.215 36.3509 172.419 36.3172 172.546 36.3172C172.62 36.3172 172.669 36.3284 172.673 36.3316L172.832 36.3637L172.971 36.2932C174.29 35.6415 195.411 41.3631 198.257 44.561C199.305 45.738 201.15 46.7757 202.936 47.7781L202.944 47.7827C205.037 48.9599 207.198 50.1752 207.264 51.2547C207.286 51.647 207 52.065 206.412 52.4957C202.547 55.3253 190.065 76.4328 188.186 79.6323C177.464 71.885 172.128 49.6613 171.336 40.5993C171.089 37.7633 171.654 36.8281 172.013 36.5222Z" fill="#390075"/>
<path d="M206.646 52.8127C204.272 54.555 198.443 63.553 193.991 70.7671C190.799 75.9459 188.311 80.2039 188.311 80.2039C177.154 72.5511 171.746 49.7926 170.942 40.6296C170.473 35.2843 172.777 35.9505 172.777 35.9505C173.51 35.5357 178.073 36.4949 183.189 37.9746C189.645 39.8385 196.979 42.5176 198.557 44.2967C201.387 47.4786 210.727 49.8342 206.646 52.8127Z" fill="#F16357"/>
<path fill-rule="evenodd" clip-rule="evenodd" d="M189.335 80.0823C190.198 79.7332 190.891 79.0302 191.256 78.2183L191.27 78.2247C196.076 69.2395 202.002 60.8388 209.314 53.9322C210.113 53.1651 210.602 52.0666 210.648 50.9536C210.705 49.8407 210.303 48.6845 209.53 47.8246C209.337 47.6084 209.123 47.4178 208.898 47.2433L208.482 46.9406L207.67 46.3561C207.133 45.959 206.585 45.5795 206.026 45.2208C203.811 43.7411 201.516 42.3976 199.15 41.2126C194.43 38.8138 189.51 36.8745 184.481 35.326C183.226 34.9337 181.961 34.5686 180.693 34.2179C180.057 34.0449 179.419 33.8864 178.779 33.7278L177.818 33.4972C177.698 33.4626 177.406 33.411 177.181 33.3713L177.169 33.3691C176.973 33.3289 176.772 33.316 176.572 33.3032C176.525 33.3002 176.479 33.2972 176.432 33.2939C174.448 33.1914 172.451 34.0241 171.145 35.4877C170.486 36.2131 169.986 37.0907 169.701 38.0259C169.693 38.0541 169.685 38.0823 169.677 38.1105C169.617 38.3174 169.557 38.5239 169.526 38.7353C169.483 38.9691 169.438 39.2397 169.428 39.3886L169.427 39.3978C169.391 39.7486 169.354 40.0979 169.337 40.4455C169.142 43.2559 169.433 45.991 169.896 48.6477C170.386 51.2995 171.06 53.8889 171.921 56.3966C172.784 58.9076 173.768 61.34 174.846 63.7389C175.947 66.1297 177.172 68.4709 178.543 70.7368C179.925 72.9947 181.479 75.1629 183.245 77.1726C183.686 77.6771 184.146 78.1655 184.62 78.6443C184.828 78.8577 185.032 79.0517 185.254 79.2634C185.287 79.2946 185.32 79.3263 185.354 79.3585C185.703 79.6852 186.121 79.9478 186.568 80.1271C187.472 80.473 188.483 80.4458 189.335 80.0823ZM196.915 63.63C194.072 68.0145 191.595 72.6008 189.408 77.3056L189.425 77.3152C189.022 78.0102 188.106 78.1927 187.54 77.8628C187.399 77.7828 187.27 77.6867 187.161 77.5602C187.108 77.4999 187.053 77.4375 186.996 77.3738C186.853 77.2124 186.703 77.0424 186.564 76.8748C186.171 76.4024 185.786 75.9204 185.418 75.4224C183.938 73.4383 182.67 71.2829 181.521 69.0666C180.356 66.8567 179.332 64.5652 178.413 62.2288C177.482 59.8956 176.64 57.5176 175.934 55.1332C174.539 50.3771 173.588 45.4418 173.935 40.7722C173.95 40.5019 173.98 40.2357 174.01 39.9712C174.012 39.9505 174.015 39.9298 174.017 39.9091C174.026 39.7908 174.038 39.7331 174.049 39.6819C174.055 39.6582 174.059 39.6359 174.063 39.6096C174.068 39.5556 174.084 39.5059 174.1 39.4567C174.107 39.433 174.115 39.4094 174.121 39.3854C174.213 39.094 174.369 38.8282 174.576 38.604C174.989 38.146 175.611 37.9074 176.203 37.9474C176.229 37.9508 176.255 37.952 176.282 37.9532C176.33 37.9554 176.379 37.9576 176.428 37.973C176.462 37.9816 176.487 37.9853 176.514 37.9894C176.558 37.996 176.611 38.0039 176.727 38.0355L177.644 38.2645L179.475 38.7417C180.693 39.0652 181.911 39.4014 183.118 39.7666C187.947 41.2302 192.702 42.9501 197.233 45.0975C199.498 46.1704 201.727 47.3121 203.847 48.6189C204.387 48.9311 204.911 49.2658 205.425 49.6133L206.205 50.1257L206.581 50.3739C206.593 50.384 206.605 50.3929 206.618 50.4016C206.635 50.4138 206.652 50.4256 206.666 50.4396C206.876 50.5997 206.928 51.0465 206.682 51.3107C204.854 53.1507 203.088 55.1796 201.465 57.2261C199.846 59.2967 198.334 61.4377 196.915 63.63Z" fill="#505050"/>
<path d="M330.124 204.743C336.174 201.95 342.109 198.961 347.739 195.53C353.369 192.107 358.647 188.172 363.34 183.644C364.493 182.491 365.636 181.331 366.716 180.111C367.275 179.519 367.783 178.883 368.31 178.263L369.049 177.385L369.776 176.397C370.255 175.736 370.732 175.064 371.156 174.418L371.45 173.954C371.487 173.888 371.544 173.802 371.563 173.758L371.704 173.494C371.947 173.047 372.19 172.655 372.45 172.261C373.487 170.703 374.726 169.265 376.283 168.056C377.833 166.866 379.757 165.907 381.88 165.652L382.674 165.604C382.92 165.593 383.251 165.571 383.41 165.577C383.799 165.58 384.183 165.574 384.565 165.559C385.327 165.526 386.076 165.455 386.777 165.327C387.474 165.202 388.133 165.013 388.619 164.776C389.111 164.535 389.31 164.282 389.286 164.246C389.344 164.147 389.355 163.673 389.164 163.087C388.987 162.499 388.685 161.825 388.333 161.141C387.619 159.755 386.754 158.358 385.896 156.837C385.046 155.304 384.249 153.769 383.588 151.988L383.558 151.902L383.511 151.757C383.482 151.658 383.46 151.559 383.442 151.453C383.374 151.032 383.416 150.566 383.604 150.124C383.791 149.687 384.133 149.242 384.684 148.947C385.229 148.64 386.004 148.603 386.529 148.798L387.156 149.022L388.291 149.4C389.051 149.644 389.816 149.86 390.576 150.05C392.082 150.423 393.654 150.697 394.916 150.638C395.53 150.627 396.041 150.431 396.015 150.401C396.015 150.391 395.959 150.473 395.977 150.455C395.973 150.443 395.977 150.431 395.985 150.42C395.985 150.396 395.981 150.361 395.986 150.332C396.004 150.271 395.957 150.215 395.97 150.153C395.898 149.727 395.613 148.971 395.327 148.286C395.012 147.568 394.675 146.838 394.315 146.095C392.873 143.124 391.322 140.063 390.046 136.838C389.72 136.034 389.424 135.211 389.131 134.384C388.858 133.556 388.58 132.685 388.35 131.904L386.91 127.103L383.972 117.522C381.978 111.16 379.943 104.764 377.76 98.5267L382.098 97.0262L382.167 97.2296L377.805 98.6628C375.938 93.2791 373.447 87.9241 370.605 82.8542C367.752 77.7635 364.511 72.8618 361.089 68.0577C357.802 63.3593 353.773 59.0549 349.607 54.9714C345.402 50.9136 340.965 47.0831 336.232 43.6578C335.076 42.7643 333.834 41.9956 332.639 41.1565L330.831 39.9235C330.221 39.5247 329.587 39.1628 328.967 38.7801C327.718 38.0291 326.479 37.2588 325.222 36.5238L321.36 34.4837C320.712 34.1538 320.084 33.7807 319.419 33.4844L317.429 32.5924C316.098 32.008 314.785 31.377 313.441 30.8294L309.353 29.3305C308.669 29.0839 307.993 28.8197 307.307 28.5891L305.214 27.9998L301.03 26.8148C299.608 26.4528 298.157 26.131 296.723 25.8075C293.848 25.1718 290.974 24.6017 288.099 24.1549C285.222 23.7145 282.342 23.4007 279.463 23.2549C278.023 23.1765 276.586 23.1589 275.149 23.1669L272.997 23.2245L271.88 23.2918L271.321 23.3254L271.041 23.3414C271.027 23.343 270.974 23.3446 270.992 23.3446L271.048 23.3414C271.085 23.3366 271.123 23.3286 271.159 23.3158L270.829 23.3606C266.432 23.6729 262.012 24.2878 257.727 25.1958C253.425 26.1102 249.18 27.3672 245.032 28.8965C236.742 31.9471 228.76 36.0017 221.656 41.1101L220.249 42.1221L218.743 41.267C213.919 38.5255 209.008 35.9089 204.033 33.4604C199.057 31.0183 194.009 28.7316 188.881 26.7971C186.317 25.8347 183.731 24.962 181.14 24.2686C178.561 23.5912 175.933 23.0436 173.49 22.9843C172.265 22.9363 171.122 23.074 170.187 23.3414C169.711 23.4727 169.343 23.6713 169.015 23.8699C168.877 24.0076 168.749 24.0572 168.572 24.2334L168.017 24.8595C166.543 26.5409 165.56 28.7796 164.975 31.2137C164.388 33.6525 164.17 36.2692 164.154 38.9114C164.131 41.5568 164.335 44.2455 164.681 46.9294C165.013 49.6149 165.476 52.3019 166.048 54.9778C166.603 57.6553 167.26 60.3215 167.985 62.975C169.428 68.2835 171.143 73.5375 173.046 78.7243C174.951 83.8967 177.031 89.0707 179.369 93.9708L179.856 94.9909L179.477 96.0542C178.593 98.5315 177.825 101.079 177.135 103.661C176.468 106.253 175.865 108.871 175.327 111.51C174.8 114.153 174.322 116.809 173.9 119.477C173.689 120.811 173.488 122.147 173.308 123.484L173.046 125.489L172.823 127.396L172.802 127.588L172.608 129.279L172.431 131.06L172.106 134.647L171.526 141.851L170.499 156.297C170.158 161.441 168.903 166.354 167.813 170.98C167.554 172.119 167.297 173.278 167.182 174.239C167.154 174.474 167.127 174.71 167.135 174.854C167.117 175.084 167.154 175.043 167.13 175.083C167.143 175.088 167.141 175.12 167.14 175.11C167.143 175.075 167.122 175.097 167.103 175.036C167.053 174.969 166.953 174.844 166.852 174.799C166.651 174.694 166.756 174.777 167.051 174.758C167.342 174.748 167.767 174.674 168.212 174.551C169.115 174.304 170.121 173.898 171.11 173.421C172.103 172.945 173.099 172.397 174.072 171.813L174.793 171.368L174.97 171.256C175.055 171.222 174.821 171.304 175.505 170.969C176.023 170.745 176.695 170.676 177.264 170.801C178.43 171.06 179.109 171.822 179.438 172.575C179.604 172.959 179.684 173.363 179.691 173.749C179.692 173.845 179.689 173.936 179.681 174.031L179.666 174.178L179.658 174.245C179.567 174.966 179.445 175.621 179.306 176.269C179.028 177.562 178.688 178.796 178.315 180.012C177.94 181.218 177.566 182.337 177.248 183.434C176.934 184.51 176.664 185.592 176.627 186.356C176.603 186.734 176.65 186.995 176.672 187.056C176.685 187.054 176.683 187.085 176.68 187.067C176.685 187.04 176.638 187.029 176.646 187.014C176.629 186.989 176.621 187.003 176.69 187.04C176.802 187.117 177.121 187.256 177.522 187.356C177.931 187.46 178.422 187.528 178.932 187.593C179.972 187.708 181.113 187.751 182.288 187.765C182.746 187.769 183.811 187.783 184.541 187.938C185.332 188.071 186.045 188.288 186.737 188.52C188.103 189.002 189.316 189.612 190.467 190.265C192.757 191.582 194.811 193.072 196.778 194.618C198.742 196.166 200.618 197.777 202.45 199.393L205.168 201.793C205.615 202.184 206.062 202.572 206.496 202.93C206.918 203.284 207.389 203.653 207.64 203.819L207.01 203.548C207.285 203.621 207.632 203.801 207.804 203.926L207.833 203.946L207.891 203.986L208.005 204.066L208.233 204.226L208.691 204.546L209.618 205.172C210.24 205.584 210.869 205.989 211.507 206.38C212.778 207.166 214.082 207.903 215.395 208.628C216.711 209.347 218.053 210.024 219.414 210.663C220.793 211.31 222.108 211.9 223.527 212.439C226.34 213.517 229.217 214.473 232.153 215.267C235.086 216.081 238.077 216.734 241.097 217.338L241.105 217.339C241.645 217.448 241.996 217.972 241.888 218.512C241.792 218.992 241.363 219.32 240.888 219.311C234.601 219.178 228.281 218.214 222.169 216.363C220.649 215.914 219.075 215.373 217.618 214.768C216.137 214.172 214.673 213.53 213.228 212.843C211.779 212.162 210.369 211.4 208.976 210.606C208.278 210.209 207.59 209.797 206.907 209.376L205.888 208.735L205.383 208.407L205.131 208.242L205.004 208.159L204.941 208.117L204.909 208.096C205.06 208.207 205.388 208.373 205.644 208.433L205.014 208.162C204.234 207.688 203.757 207.296 203.241 206.884C202.736 206.477 202.261 206.077 201.79 205.678L199.024 203.307C197.2 201.744 195.374 200.222 193.509 198.797C191.648 197.375 189.742 196.046 187.809 194.975C186.846 194.445 185.87 193.984 184.943 193.674C184.483 193.53 184.03 193.402 183.62 193.343C183.156 193.268 183 193.276 182.248 193.274C180.997 193.274 179.708 193.252 178.334 193.122C177.638 193.048 176.928 192.946 176.158 192.757C175.386 192.555 174.546 192.288 173.636 191.708C173.189 191.426 172.72 191.035 172.317 190.544C172.108 190.316 171.941 190.019 171.772 189.745C171.613 189.466 171.516 189.208 171.402 188.931C171.024 187.846 170.997 186.877 171.037 186.05C171.145 184.395 171.521 183.125 171.867 181.881C172.222 180.654 172.614 179.478 172.955 178.375C173.289 177.28 173.59 176.18 173.818 175.107C173.932 174.574 174.028 174.037 174.088 173.558L174.093 173.513C174.096 173.486 174.093 173.501 174.083 173.605C174.077 173.68 174.075 173.754 174.077 173.83C174.081 174.141 174.144 174.469 174.282 174.783C174.554 175.398 175.11 176.045 176.127 176.273C176.622 176.383 177.215 176.319 177.662 176.125C178.278 175.821 177.982 175.949 178.003 175.955L177.797 176.087L176.971 176.596C175.865 177.261 174.737 177.885 173.543 178.458C172.347 179.028 171.106 179.562 169.665 179.951C168.94 180.141 168.167 180.303 167.243 180.338C166.336 180.356 165.179 180.297 163.932 179.562C163.326 179.189 162.762 178.652 162.397 178.064C162.185 177.767 162.082 177.488 161.94 177.189C161.823 176.9 161.756 176.634 161.677 176.353C161.569 175.795 161.51 175.152 161.539 174.777C161.54 174.314 161.584 173.949 161.627 173.585C161.812 172.146 162.101 170.943 162.379 169.726C163.528 164.957 164.678 160.445 164.993 155.918L166.082 141.425L166.696 134.171L167.04 130.535L167.23 128.706C167.3 128.075 167.36 127.516 167.46 126.795L167.439 126.988L167.696 124.819L167.974 122.755C168.164 121.381 168.366 120.01 168.583 118.641C169.017 115.905 169.506 113.174 170.05 110.449C170.605 107.725 171.229 105.009 171.928 102.301C172.651 99.5964 173.461 96.8981 174.419 94.2206L174.527 96.304C172.047 91.1028 169.956 85.884 167.993 80.5627C166.045 75.2478 164.285 69.8608 162.794 64.3762C162.045 61.6363 161.362 58.8707 160.783 56.0731C160.189 53.2804 159.698 50.4524 159.343 47.5908C158.975 44.7323 158.75 41.8323 158.774 38.8858C158.795 35.9441 159.027 32.9512 159.748 29.9502C160.468 26.9701 161.73 23.9051 163.948 21.3541L164.795 20.4173C165.111 20.0987 165.574 19.7592 165.973 19.4501C166.82 18.8944 167.722 18.4733 168.598 18.2219C170.351 17.7094 172.039 17.5765 173.615 17.6278C176.789 17.7158 179.691 18.3564 182.529 19.093C185.358 19.8489 188.091 20.776 190.777 21.7833C196.145 23.809 201.324 26.1582 206.414 28.6547C211.5 31.1608 216.491 33.8159 221.412 36.6183L218.498 36.7752C226.139 31.3322 234.493 27.1446 243.224 23.9659C247.591 22.3774 252.067 21.0675 256.641 20.1131C261.233 19.1603 265.821 18.5437 270.474 18.2299L270.145 18.2731C270.273 18.2539 270.403 18.2379 270.535 18.2251L270.821 18.2059L271.101 18.1898L271.659 18.1578L272.776 18.0954L275.096 18.0409C276.643 18.0377 278.189 18.0633 279.728 18.153C282.808 18.3196 285.865 18.6687 288.885 19.1411C291.901 19.6231 294.883 20.2268 297.829 20.8897C299.303 21.2276 300.764 21.5575 302.231 21.937L306.654 23.2053L308.864 23.841C309.589 24.086 310.301 24.3663 311.021 24.6289L315.323 26.2287C316.736 26.8116 318.113 27.4761 319.509 28.0974L321.595 29.0454C322.291 29.3593 322.948 29.75 323.625 30.0991L327.662 32.253C328.973 33.0264 330.264 33.8351 331.566 34.6246C332.212 35.0265 332.871 35.4092 333.507 35.8272L335.388 37.1195C336.629 37.997 337.921 38.8073 339.12 39.7409C344.031 43.3263 348.62 47.3185 352.968 51.5477C357.278 55.8137 361.421 60.2591 364.951 65.3306C371.892 75.1277 378.201 85.5893 382.175 97.26L377.813 98.6932L377.744 98.4899L382.082 96.9894C384.295 103.398 386.293 109.771 388.278 116.191L391.189 125.822L392.614 130.644C392.854 131.47 393.084 132.192 393.331 132.956C393.593 133.709 393.861 134.461 394.162 135.211C395.339 138.218 396.801 141.147 398.272 144.202C398.638 144.968 399.001 145.757 399.355 146.574C399.694 147.437 400.057 148.239 400.281 149.464C400.372 150.194 400.396 150.853 400.163 151.65C399.946 152.435 399.416 153.248 398.76 153.762C398.109 154.284 397.418 154.563 396.82 154.713C396.216 154.867 395.645 154.942 395.122 154.96C393.019 155.029 391.256 154.648 389.511 154.227C388.644 154.007 387.794 153.761 386.957 153.49L385.705 153.067L385.149 152.866C385.576 153.027 386.237 152.995 386.688 152.739C387.148 152.494 387.418 152.134 387.564 151.793C387.712 151.448 387.743 151.09 387.691 150.773C387.677 150.691 387.661 150.617 387.64 150.544C387.606 150.438 387.611 150.457 387.617 150.473L387.64 150.536C388.135 151.898 388.866 153.356 389.638 154.75C390.417 156.15 391.314 157.607 392.129 159.201C392.536 160.008 392.936 160.859 393.241 161.876C393.522 162.874 393.794 164.153 393.283 165.648C393.024 166.411 392.536 167.063 392.031 167.516C391.52 168 390.989 168.301 390.473 168.564C389.443 169.052 388.464 169.295 387.511 169.468C386.56 169.635 385.633 169.717 384.716 169.753C384.26 169.769 383.805 169.776 383.354 169.769C383.093 169.763 383.005 169.785 382.831 169.79L382.367 169.809C381.139 169.952 379.94 170.516 378.834 171.35C377.735 172.191 376.738 173.315 375.922 174.538C375.719 174.841 375.522 175.163 375.364 175.451L375.208 175.739C375.133 175.882 375.073 175.971 375.006 176.087L374.626 176.682C374.128 177.434 373.63 178.125 373.124 178.819L372.357 179.852L371.479 180.897C370.918 181.552 370.375 182.223 369.782 182.848C368.635 184.134 367.421 185.357 366.198 186.569C361.235 191.354 355.64 195.423 349.756 198.881C346.818 200.62 343.784 202.174 340.732 203.662C337.67 205.131 334.546 206.45 331.418 207.736C330.579 208.08 329.62 207.683 329.272 206.847C328.936 206.034 329.304 205.107 330.097 204.74L330.124 204.743Z" fill="black"/>
<path d="M381.056 96.0558C381.27 96.4177 381.447 96.7956 381.643 97.1671L381.212 96.485L381.219 96.4914L381.752 97.7741C381.752 97.7676 381.752 97.7981 381.752 97.7612C381.752 97.6219 381.735 97.4698 381.693 97.3161C381.614 97.0054 381.429 96.7108 381.23 96.5186L381.76 97.7997C381.767 97.6219 381.739 97.4346 381.685 97.2648L381.778 97.8397L381.791 97.8669L381.794 97.8733L381.796 97.8765V97.8781C381.796 97.8733 381.797 97.9022 381.796 97.8269C381.802 97.4089 381.572 96.8821 381.272 96.6051L381.702 97.2936C382.628 99.2313 383.276 101.26 383.983 103.264L386.044 109.296C387.398 113.322 388.721 117.355 390.023 121.396C390.68 123.413 391.31 125.441 391.937 127.468C392.572 129.492 393.162 131.572 393.829 133.399C395.208 137.191 397.12 140.815 399.03 144.711C399.502 145.699 399.985 146.697 400.404 147.925C400.607 148.519 400.83 149.254 400.875 150.324C400.865 150.572 400.848 150.822 400.824 151.07C400.787 151.331 400.719 151.612 400.65 151.876C400.562 152.153 400.441 152.44 400.312 152.71C400.155 152.979 399.993 153.255 399.793 153.492C398.98 154.48 397.939 154.955 397.116 155.194C396.27 155.436 395.531 155.5 394.84 155.521C393.469 155.543 392.268 155.376 391.105 155.162C389.944 154.944 388.835 154.662 387.75 154.334C387.207 154.171 386.67 153.999 386.137 153.817L385.336 153.535L384.925 153.383L384.898 153.373C384.89 153.37 384.849 153.357 384.988 153.405C385.171 153.466 385.383 153.509 385.618 153.525C386.081 153.557 386.568 153.445 386.944 153.245C387.696 152.84 388.043 152.249 388.197 151.692C388.273 151.407 388.295 151.122 388.268 150.843C388.258 150.713 388.226 150.56 388.199 150.454L388.147 150.284C388.136 150.252 388.147 150.286 388.147 150.286L388.207 150.455L388.323 150.763L388.586 151.405C388.774 151.841 388.982 152.281 389.199 152.723C389.636 153.609 390.111 154.484 390.623 155.37C391.145 156.286 391.691 157.213 392.235 158.201C392.767 159.199 393.334 160.232 393.774 161.558C393.991 162.217 394.186 162.975 394.207 163.896C394.215 164.355 394.174 164.847 394.06 165.358C393.932 165.896 393.699 166.467 393.398 166.935C392.789 167.888 392.008 168.492 391.294 168.91C390.568 169.337 389.885 169.59 389.223 169.79C387.898 170.165 386.664 170.324 385.462 170.357C384.862 170.373 384.268 170.389 383.686 170.351L382.951 170.307C382.773 170.29 382.594 170.298 382.414 170.299C381.696 170.338 380.955 170.448 380.107 170.623C379.255 170.796 378.337 171.063 377.207 171.307L377.128 171.323C376.524 171.452 375.928 171.07 375.798 170.468C375.753 170.264 375.77 170.056 375.833 169.87C376.653 167.484 378.953 165.625 381.767 165.166C382.114 165.111 382.464 165.058 382.818 165.041L383.678 164.988C384.158 164.953 384.626 164.929 385.086 164.877C386.002 164.772 386.886 164.632 387.599 164.405C388.339 164.229 388.787 163.824 388.697 163.932C388.588 164.28 388.805 163.88 388.556 163.172C388.352 162.478 387.961 161.609 387.488 160.744C387.021 159.87 386.495 158.97 385.957 158.052C385.402 157.106 384.857 156.124 384.351 155.114C384.097 154.606 383.85 154.091 383.615 153.554L383.27 152.729L383.102 152.294L383.028 152.09L383.012 152.046L382.946 151.829C382.908 151.692 382.876 151.506 382.86 151.343C382.829 150.998 382.853 150.646 382.946 150.297C383.135 149.613 383.564 148.905 384.435 148.438C384.872 148.207 385.425 148.081 385.954 148.117C386.222 148.135 386.466 148.185 386.682 148.257L386.839 148.311L387.175 148.433L387.879 148.675C388.352 148.832 388.827 148.981 389.301 149.12C390.253 149.395 391.203 149.642 392.13 149.823C393.051 150.004 393.967 150.118 394.724 150.108C395.092 150.102 395.42 150.058 395.595 150.007C395.785 149.956 395.73 149.924 395.597 150.089C395.463 150.265 395.463 150.425 395.48 150.294C395.459 150.307 395.444 150.001 395.291 149.599C395.028 148.82 394.633 147.885 394.202 146.96C392.461 143.216 390.476 139.286 389.039 135.079C388.302 132.911 387.784 130.9 387.19 128.871L385.438 122.778C384.274 118.715 383.086 114.659 381.871 110.614L380.018 104.557C379.401 102.54 378.705 100.551 378.237 98.4883L378.668 99.1768C378.363 98.8902 378.13 98.3553 378.131 97.9294L378.13 97.8749V97.8733V97.8701L378.128 97.8637L378.122 97.8365L378.215 98.4114C378.151 98.216 378.115 98.0014 378.112 97.7965L378.642 99.0776C378.441 98.8774 378.253 98.5731 378.171 98.2545C378.128 98.0959 378.109 97.939 378.107 97.7965V97.7708L378.641 99.0535L378.634 99.0471L378.244 98.5683L378.204 98.365C378.126 97.9726 378.028 97.5867 377.969 97.1848L377.962 97.1383C377.829 96.2303 378.459 95.3848 379.37 95.2519C380.068 95.1526 380.722 95.4921 381.056 96.0558Z" fill="#390075"/>
<path d="M171.192 132.871C171.396 135.036 171.258 137.169 171.122 139.302L170.733 145.703L170.344 152.102C170.201 154.249 170.12 156.315 169.9 158.616C169.458 163.085 168.341 167.388 167.443 171.475C167.219 172.489 167.026 173.497 166.941 174.345L166.911 174.654V174.891C166.895 175.102 166.938 175.07 166.917 175.131C166.965 175.275 166.951 175.153 166.805 175.02C166.662 174.902 166.639 174.947 166.853 174.953C167.054 174.963 167.396 174.927 167.767 174.847C168.527 174.682 169.41 174.359 170.283 173.968C171.158 173.579 172.042 173.118 172.915 172.625C173.352 172.38 173.788 172.125 174.217 171.862L174.855 171.464L175.001 171.369L175.13 171.288C175.467 171.071 175.99 170.874 176.514 170.854C177.615 170.802 178.465 171.36 178.917 171.923C179.391 172.508 179.6 173.188 179.587 173.867C179.585 173.952 179.579 174.052 179.571 174.122L179.567 174.156L179.559 174.223L179.543 174.357L179.511 174.591L179.442 175.046L179.281 175.925C179.167 176.502 179.037 177.065 178.899 177.621C178.624 178.724 178.296 179.828 177.967 180.865C177.644 181.885 177.33 182.891 177.059 183.842C176.792 184.785 176.581 185.713 176.543 186.393C176.525 186.725 176.559 186.968 176.588 187.058C176.644 187.183 176.546 187.019 176.589 187.082C176.633 187.123 176.838 187.245 177.141 187.349C177.46 187.448 177.848 187.541 178.278 187.609C179.143 187.746 180.135 187.804 181.147 187.825C181.655 187.834 182.174 187.842 182.697 187.834C182.806 187.83 182.997 187.838 183.187 187.849L183.743 187.882C184.126 187.895 184.461 187.961 184.802 188.025C185.508 188.132 186.112 188.332 186.748 188.512C187.332 188.731 187.952 188.931 188.492 189.189C189.63 189.663 190.64 190.248 191.644 190.835C193.618 192.049 195.386 193.43 197.041 194.904C198.709 196.36 200.178 198.019 201.043 200.304C201.263 200.887 200.968 201.537 200.382 201.757C200.169 201.837 199.947 201.848 199.74 201.803H199.736C197.354 201.281 195.542 200.171 193.83 198.981C192.1 197.819 190.405 196.65 188.704 195.636C187.862 195.132 187.012 194.634 186.181 194.245C185.762 194.019 185.355 193.888 184.944 193.705C184.548 193.586 184.138 193.422 183.778 193.367C183.592 193.324 183.402 193.274 183.245 193.276L182.997 193.25C182.918 193.239 182.843 193.226 182.682 193.228L181.009 193.194C179.874 193.154 178.716 193.104 177.454 192.919C176.822 192.821 176.159 192.685 175.453 192.464C174.741 192.222 173.953 191.891 173.161 191.255C172.364 190.651 171.654 189.553 171.408 188.651C171.122 187.714 171.089 186.875 171.118 186.139C171.202 184.678 171.506 183.511 171.803 182.391C172.105 181.278 172.454 180.246 172.78 179.225C173.106 178.223 173.394 177.273 173.645 176.301C173.77 175.819 173.883 175.339 173.981 174.867L174.114 174.167L174.169 173.827L174.193 173.662L174.201 173.598L174.206 173.566L174.207 173.55C174.201 173.606 174.195 173.688 174.193 173.755C174.185 174.3 174.349 174.846 174.738 175.326C175.106 175.787 175.826 176.271 176.792 176.228C177.25 176.212 177.705 176.036 177.986 175.856C178.09 175.789 178.002 175.847 178.018 175.835L177.994 175.851L177.944 175.883L177.751 176.005L177.02 176.454C176.531 176.747 176.038 177.032 175.537 177.307C174.532 177.856 173.499 178.367 172.402 178.83C171.303 179.29 170.157 179.711 168.812 179.978C168.132 180.105 167.398 180.201 166.525 180.145C165.673 180.087 164.564 179.848 163.571 179.062C163.331 178.873 163.114 178.641 162.907 178.414C162.73 178.178 162.549 177.927 162.412 177.679C162.293 177.437 162.163 177.176 162.081 176.937C162.007 176.703 161.935 176.466 161.88 176.226C161.806 175.755 161.742 175.193 161.771 174.868L161.79 174.303L161.843 173.815C162.002 172.533 162.25 171.441 162.504 170.368C163.544 166.117 164.617 162.11 165.175 158.06C165.43 156.107 165.596 153.894 165.805 151.772L166.404 145.362L167.004 138.951C167.197 136.815 167.388 134.677 167.922 132.572C168.147 131.684 169.05 131.146 169.94 131.371C170.641 131.547 171.125 132.141 171.189 132.82L171.192 132.871Z" fill="#390075"/>
<path d="M381.057 96.0558C381.359 95.9726 381.438 95.9709 381.468 95.9886L381.586 96.0286C381.663 96.0558 381.748 96.0798 381.809 96.1135C381.95 96.1727 382.058 96.2464 382.159 96.32C382.253 96.3985 382.376 96.4658 382.397 96.5699C382.441 96.6659 382.346 96.8101 382.569 96.8437L381.907 95.7948C381.912 95.7948 381.921 95.7948 381.921 95.7948L382.744 97.7757C382.746 97.7645 382.748 97.8093 382.749 97.7533C382.749 97.5371 382.723 97.3001 382.659 97.0599C382.535 96.5779 382.249 96.1167 381.939 95.8204L382.76 97.8013C382.762 97.5195 382.696 97.2232 382.577 96.9734L382.719 97.8429C382.696 97.8525 382.67 97.8605 382.635 97.8702L382.609 97.8766L382.593 97.8798L382.585 97.8814C382.582 97.875 382.58 97.915 382.576 97.8077C382.56 97.212 382.216 96.4754 381.774 96.1151L382.38 97.0967C382.347 97.1303 382.31 97.1656 382.228 97.2136C382.156 97.2584 382.09 97.3001 381.949 97.3625C381.819 97.4202 381.721 97.4666 381.561 97.5275L380.959 97.7292C381.092 98.2609 380.768 98.7989 380.234 98.9319C379.7 99.0648 379.16 98.7413 379.027 98.2112L378.415 98.3762L378.018 98.5043C377.873 98.5539 377.802 98.5828 377.728 98.6148C377.645 98.65 377.603 98.674 377.568 98.6965L378.172 99.6781C377.725 99.3098 377.378 98.5635 377.357 97.9598C377.352 97.8525 377.351 97.8926 377.347 97.883L377.339 97.8814L377.322 97.8782L377.291 97.8718C377.249 97.8622 377.219 97.8541 377.19 97.8445L377.331 98.7141C377.203 98.437 377.129 98.1152 377.121 97.8061L377.942 99.787C377.63 99.4811 377.341 99.0119 377.214 98.5203C377.148 98.2769 377.121 98.0335 377.119 97.8141C377.121 97.7533 377.122 97.7933 377.124 97.7789L377.947 99.7598C377.947 99.7598 377.947 99.7502 377.947 99.7453L377.285 98.6965C377.439 98.5379 377.277 98.4915 377.251 98.397C377.201 98.3105 377.259 98.1872 377.283 98.0735C377.317 97.9566 377.355 97.8397 377.429 97.7084C377.457 97.646 377.506 97.5755 377.55 97.5066L377.617 97.4042C377.63 97.3721 377.691 97.3241 377.977 97.1928L378.043 97.1624C378.996 96.7188 380.076 96.3345 381.057 96.0558Z" fill="#390075"/>
<path d="M290.345 150.23C291.362 153.898 298.964 155.346 304.337 154.81C308.394 154.404 314.609 151.07 314.172 147.024C313.826 143.827 309.961 141.912 300.385 143.696C292.555 145.157 289.666 147.78 290.345 150.23Z" fill="#505050"/>
<g opacity="0.7">
<path d="M300.903 145.733C300.815 146.422 302.665 147.062 304.073 146.921C304.872 146.841 307.737 146.521 307.834 145.767C307.93 145.012 307.057 144.412 304.377 144.444C301.94 144.476 300.99 145.044 300.903 145.733Z" fill="white"/>
<path fill-rule="evenodd" clip-rule="evenodd" d="M300.797 146.431C301.315 146.96 302.554 147.338 303.668 147.338C303.819 147.338 303.968 147.33 304.11 147.317C308.085 146.92 308.187 146.12 308.226 145.818L308.226 145.818C308.269 145.47 308.168 145.147 307.933 144.884C307.411 144.3 306.222 144.016 304.37 144.05C301.344 144.087 300.599 144.958 300.508 145.683C300.485 145.866 300.516 146.145 300.797 146.431ZM304.032 146.529C302.711 146.657 301.344 146.057 301.297 145.781C301.355 145.344 302.195 144.868 304.381 144.841C306.559 144.819 307.183 145.23 307.343 145.411C307.425 145.502 307.454 145.599 307.445 145.699C307.369 145.844 306.612 146.271 304.032 146.529Z" fill="#505050"/>
</g>
<g opacity="0.3">
<path d="M318.546 168.042C313.203 171.467 307.666 169.142 305.114 165.921C305.114 165.921 300.01 173.859 291.572 169.928C286.292 167.468 288.224 160.182 288.224 160.182L319.908 158.991C319.908 158.991 322.689 165.385 318.546 168.042Z" fill="#505050"/>
</g>
<path d="M318.642 156.755C318.642 156.755 321.205 162.651 317.387 165.1C312.459 168.258 307.367 164.346 305.011 161.374C305.011 161.374 299.887 170.003 292.512 166.842C287.575 164.727 289.426 157.855 289.426 157.855" fill="white"/>
<path d="M295.742 167.929C294.676 167.929 293.543 167.715 292.356 167.206C287.163 164.98 289.024 157.825 289.043 157.753L289.811 157.958C289.794 158.023 288.109 164.523 292.671 166.479C299.635 169.464 304.468 161.513 304.67 161.172L304.966 160.675L305.324 161.127C305.928 161.889 311.396 168.466 317.173 164.765C320.66 162.53 318.302 156.967 318.278 156.911L319.008 156.597C319.119 156.85 321.66 162.831 317.603 165.431C312.669 168.592 307.558 164.964 305.049 162.04C304.035 163.507 300.576 167.929 295.742 167.929Z" fill="#390075"/>
<path d="M318.878 156.653C319.873 157.351 320.476 158.304 320.839 159.37C321.202 160.44 321.239 161.651 320.958 162.908C320.901 163.222 320.792 163.535 320.668 163.849C320.566 164.166 320.397 164.467 320.217 164.767C320.051 165.073 319.826 165.337 319.593 165.6C319.373 165.877 319.114 166.099 318.841 166.309L318.436 166.626C318.303 166.719 318.177 166.785 318.045 166.863C317.787 167.017 317.521 167.161 317.256 167.303C316.682 167.526 316.123 167.785 315.504 167.901C314.296 168.187 313.007 168.195 311.835 167.936C310.657 167.688 309.572 167.243 308.589 166.695C306.647 165.556 305.046 164.109 303.691 162.411L306.462 162.225C305.778 163.295 305.107 164.144 304.299 165.004C303.499 165.845 302.61 166.618 301.623 167.302C300.604 167.947 299.511 168.536 298.273 168.857C297.978 168.966 297.655 168.999 297.34 169.055C297.021 169.1 296.71 169.182 296.388 169.188C295.747 169.183 295.091 169.268 294.46 169.143L293.502 169.012C293.193 168.94 292.894 168.839 292.59 168.751C292.287 168.649 291.991 168.576 291.682 168.437C291.369 168.287 291.065 168.115 290.761 167.949C289.564 167.186 288.653 165.958 288.246 164.695C287.828 163.426 287.794 162.166 287.982 161.008C288.172 159.846 288.555 158.765 289.183 157.79C289.263 157.665 289.431 157.628 289.556 157.708C289.625 157.753 289.667 157.823 289.678 157.899L289.681 157.921C289.955 160.043 290.329 162.069 291.199 163.407C291.623 164.073 292.111 164.528 292.696 164.898C292.859 164.978 293.019 165.052 293.172 165.15C293.336 165.239 293.56 165.292 293.749 165.372C293.945 165.446 294.14 165.537 294.339 165.603L294.942 165.728C296.565 166.093 298.24 165.494 299.747 164.523C300.493 164.005 301.202 163.394 301.854 162.709C302.494 162.04 303.129 161.225 303.569 160.517L304.842 158.467L306.34 160.331C307.419 161.673 308.814 162.829 310.281 163.587C311.766 164.307 313.298 164.613 314.651 164.248C315.001 164.2 315.326 164.027 315.668 163.916C315.831 163.825 315.991 163.731 316.159 163.649C316.239 163.607 316.335 163.567 316.401 163.524L316.575 163.394C317.041 163.06 317.366 162.634 317.592 162.009C317.811 161.383 317.843 160.611 317.949 159.759C318.049 158.899 318.14 157.959 318.41 156.855L318.417 156.824C318.457 156.664 318.619 156.565 318.78 156.605C318.814 156.616 318.849 156.632 318.878 156.653Z" fill="#505050"/>
<g opacity="0.3">
<path d="M292.515 166.841C299.885 170.002 305.012 161.372 305.012 161.372C307.365 164.346 312.46 168.258 317.388 165.098C319.884 163.497 318.584 159.111 318.127 157.176C317.86 158.206 317.435 160.187 316.83 161.108C314.488 164.672 308.373 158.509 306.022 155.54C306.022 155.54 299.124 167.291 292.413 162.904C290.547 161.684 290.454 159.071 290.081 157.487C289.789 159.51 288.799 165.249 292.515 166.841Z" fill="#505050"/>
</g>
<path d="M306.599 150.928C306.87 151.786 307.084 152.603 307.279 153.46C307.468 154.31 307.634 155.171 307.745 156.057C307.851 156.944 307.936 157.846 307.909 158.797C307.88 159.746 307.783 160.739 307.442 161.806L307.412 161.899C307.071 162.965 305.925 163.553 304.856 163.213C303.786 162.874 303.196 161.732 303.537 160.667C303.584 160.525 303.649 160.381 303.722 160.256C304.006 159.772 304.234 159.116 304.398 158.413C304.569 157.708 304.654 156.936 304.717 156.159C304.778 155.38 304.787 154.579 304.771 153.775C304.754 152.978 304.704 152.146 304.622 151.375L304.619 151.338C304.559 150.782 304.964 150.282 305.522 150.223C306.01 150.174 306.456 150.478 306.599 150.928Z" fill="#505050"/>
<path d="M398.183 150.308C398.162 155.144 388.059 151.661 385.848 150.837C385.672 150.769 385.512 150.971 385.586 151.171C385.86 151.975 386.587 153.77 388.22 156.589C390.243 160.078 391.876 162.77 391.352 164.773C390.788 166.897 387.333 167.741 383.212 167.673C380.751 167.638 378.705 168.724 377.138 170.043C376.727 170.389 376.182 170.541 375.65 170.456C334.449 163.79 319.556 133.912 300.546 136.812C290.806 138.298 285.564 146.851 281.637 152.377C273.416 163.947 248.376 200.669 201.093 201.05C200.642 201.054 200.206 200.893 199.864 200.599C194.631 196.096 187.664 190.538 182.853 190.531C178.726 190.525 175.204 190.317 174.195 188.355C173.247 186.52 174.263 183.533 175.486 179.695C176.474 176.594 176.789 174.686 176.89 173.834C176.911 173.626 176.715 173.465 176.554 173.573C174.578 174.846 165.463 180.411 164.401 175.696C163.809 173.078 167.163 164.612 167.742 156.254C168.504 145.248 169.063 138.242 169.452 133.882C169.515 133.169 169.981 132.562 170.656 132.319C235.864 108.654 340.625 94.1471 378.29 96.5347C379.031 96.5811 379.676 97.0567 379.922 97.7533C379.923 97.7565 379.925 97.7613 379.927 97.7645C379.927 97.7645 379.927 97.7645 379.933 97.7709V97.7773C379.933 97.7837 379.933 97.7901 379.939 97.7982C379.939 97.8046 379.946 97.819 379.952 97.8382C379.952 97.8446 379.959 97.851 379.959 97.859C379.959 97.8654 379.965 97.8718 379.965 97.8798C379.965 97.8862 379.965 97.8862 379.972 97.8926C380.422 99.1849 384.268 110.189 390.713 132.037C393.08 140.076 398.189 147.623 398.183 150.308Z" fill="#1CC3A5"/>
<g opacity="0.35">
<path d="M361.961 103.469C340.908 104.188 287.701 109.467 169.181 137.033C169.282 135.854 169.369 134.809 169.449 133.885C169.517 133.167 169.979 132.565 170.653 132.317C235.862 108.655 340.622 94.1486 378.292 96.5331C379.031 96.5795 379.678 97.0551 379.919 97.7517C379.925 97.7581 379.925 97.7645 379.925 97.7645C379.925 97.7645 379.925 97.7645 379.931 97.7709V97.7773C379.931 97.7837 379.931 97.7901 379.938 97.7981C379.938 97.8045 379.944 97.819 379.951 97.8382C379.951 97.8446 379.957 97.851 379.957 97.859C379.957 97.8654 379.964 97.8718 379.964 97.8798C379.964 97.8862 379.964 97.8862 379.97 97.8926C380.42 99.1849 384.265 110.189 390.711 132.037C393.077 140.074 398.186 147.621 398.18 150.307C398.173 152.363 391.114 143.43 388.172 136.833C383.871 127.193 380.497 119.365 378.117 113.741C375.393 107.305 368.967 103.23 361.961 103.469Z" fill="white"/>
</g>
<g opacity="0.3">
<path d="M376.57 170.373C378.742 168.136 380.751 167.681 383.091 167.675C380.685 167.681 378.681 168.746 377.134 170.046C376.967 170.186 376.779 170.299 376.57 170.373Z" fill="#6B184E"/>
<path d="M375.109 171.31L376.286 170.098C378.549 167.768 380.641 167.286 383.089 167.278V167.278L383.091 168.069V168.069C381.099 168.075 379.182 168.841 377.39 170.348C377.178 170.527 376.946 170.66 376.702 170.746L375.109 171.31Z" fill="#390075"/>
</g>
<g opacity="0.3">
<path d="M383.367 167.675C386.413 167.675 389.068 167.227 390.439 166.115C389.066 167.239 386.405 167.709 383.367 167.675Z" fill="#6B184E"/>
<path d="M383.674 168.072C383.57 168.072 383.465 168.072 383.362 168.07L383.367 167.279C386.643 167.279 389 166.77 390.187 165.808L390.69 166.419C389.044 167.771 386.029 168.072 383.674 168.072Z" fill="#390075"/>
</g>
<g opacity="0.3">
<path d="M391.434 163.921C391.362 162.198 389.912 160.134 388.173 157.481C388.327 157.407 388.469 157.327 388.604 157.239C390.174 159.955 391.416 162.161 391.434 163.921Z" fill="#6B184E"/>
<path d="M391.037 163.939C390.974 162.461 389.772 160.632 388.249 158.317L387.593 157.319L388.003 157.124C388.141 157.058 388.268 156.986 388.387 156.907L388.739 156.68L388.948 157.042C390.679 160.03 391.813 162.125 391.831 163.918L391.037 163.939Z" fill="#390075"/>
</g>
<g opacity="0.3">
<path d="M392.865 166.07C393.034 165.47 392.986 164.833 392.974 164.203C393.034 164.839 393.022 165.464 392.865 166.07Z" fill="#6B184E"/>
<path d="M392.494 166.087L391.136 165.732C391.144 165.599 391.15 165.466 391.155 165.333C391.163 165.022 391.158 164.701 391.155 164.379V164.379C391.155 164.335 391.155 164.29 391.152 164.24L392.522 164.113C392.533 164.645 392.533 165.178 392.513 165.693C392.511 165.826 392.502 165.954 392.494 166.087Z" fill="#390075"/>
</g>
<g opacity="0.3">
<path d="M389.913 155.612C389.738 156.275 389.275 156.811 388.602 157.239C388.475 157.024 388.346 156.81 388.219 156.589C386.586 153.769 385.86 151.974 385.585 151.171C385.511 150.971 385.672 150.769 385.847 150.837C386.478 151.07 387.75 151.52 389.241 151.935C389.879 153.355 390.183 154.574 389.913 155.612Z" fill="#6B184E"/>
<path fill-rule="evenodd" clip-rule="evenodd" d="M388.261 157.444L388.472 157.794L388.819 157.575C389.61 157.071 390.106 156.445 390.299 155.714V155.713C390.571 154.664 390.357 153.448 389.605 151.775L389.529 151.605L389.349 151.556C387.856 151.141 386.601 150.696 385.99 150.47C385.773 150.387 385.534 150.436 385.365 150.601C385.18 150.781 385.121 151.059 385.209 151.301C385.433 151.953 386.138 153.793 387.876 156.789C387.979 156.97 388.084 157.147 388.189 157.323C388.213 157.363 388.237 157.404 388.261 157.444ZM388.565 156.393C387.082 153.834 386.37 152.151 386.067 151.339C386.726 151.576 387.758 151.927 388.956 152.267C389.562 153.658 389.743 154.693 389.531 155.513C389.418 155.94 389.148 156.328 388.726 156.667C388.671 156.577 388.618 156.486 388.565 156.393Z" fill="#390075"/>
</g>
<path fill-rule="evenodd" clip-rule="evenodd" d="M198.106 202.629C198.933 203.34 199.988 203.731 201.079 203.731C201.086 203.731 201.094 203.731 201.1 203.731C201.106 203.731 201.11 203.732 201.114 203.733C248.798 203.348 274.764 166.72 283.302 154.675L283.306 154.67L283.831 153.927C284.141 153.49 284.46 153.035 284.788 152.566C288.495 147.261 293.113 140.658 300.951 139.462C308.616 138.298 316.093 143.613 325.561 150.348C337.494 158.837 352.348 169.403 375.219 173.103C376.521 173.313 377.856 172.947 378.872 172.093C380.267 170.919 381.725 170.341 383.167 170.356C390.983 170.492 393.337 167.766 393.953 165.454C394.735 162.467 392.993 159.466 390.787 155.668L390.547 155.255C390.518 155.204 390.489 155.153 390.46 155.103C390.441 155.069 390.422 155.035 390.402 155.002C393.609 155.69 396.772 155.794 398.787 154.408C400.123 153.488 400.864 152.038 400.87 150.323V150.318C400.875 148.411 399.711 146.023 397.948 142.407C396.396 139.222 394.464 135.255 393.294 131.286C387.587 111.943 383.859 100.908 382.652 97.4217L382.628 96.6483L382.143 96.1711C381.402 94.8451 380.025 93.9644 378.461 93.8651C340.863 91.4823 236.645 105.521 169.737 129.804C168.091 130.4 166.929 131.91 166.773 133.649C166.288 139.108 165.711 146.652 165.06 156.073C164.774 160.194 163.746 164.474 162.92 167.914L162.919 167.917L162.917 167.926C161.978 171.839 161.357 174.426 161.778 176.287C162.154 177.959 163.189 179.216 164.69 179.828C166.951 180.75 170.02 179.972 173.011 178.607C172.982 178.7 172.953 178.793 172.922 178.888L172.784 179.32L172.784 179.32C171.444 183.517 170.384 186.833 171.8 189.578C173.661 193.198 178.968 193.207 182.846 193.213H182.848C187.173 193.22 195.401 200.301 198.106 202.629ZM178.147 171.273C177.681 170.994 177.164 170.857 176.653 170.857C176.104 170.857 175.563 171.014 175.092 171.328C171.149 173.867 168.147 174.895 167.011 174.899C167.016 173.884 167.631 171.319 168.136 169.209L168.136 169.209L168.147 169.164L168.149 169.155C169.022 165.523 170.107 161.006 170.423 156.443C171.051 147.36 171.609 140.035 172.082 134.656C236.947 111.237 340.707 97.0822 377.479 99.1736L377.619 99.3145C378.843 102.857 382.519 113.765 388.133 132.794C389.425 137.186 391.463 141.367 393.103 144.731L393.111 144.747C394.064 146.7 395.229 149.091 395.455 150.089C394.345 150.331 391.192 149.97 386.812 148.338C385.766 147.937 384.563 148.185 383.758 148.973C382.935 149.78 382.66 151.005 383.041 152.042C383.347 152.931 384.123 154.88 385.891 157.932L386.134 158.349L386.144 158.366C387.311 160.379 388.893 163.106 388.766 164.022C388.482 164.29 386.961 165.055 383.25 164.996C380.611 164.964 378.009 165.91 375.703 167.752C354.289 164.196 340.107 154.11 328.696 145.994L328.685 145.986L328.679 145.981C318.221 138.542 309.962 132.668 300.138 134.165C290.019 135.71 284.445 143.682 280.376 149.503C280.056 149.961 279.746 150.404 279.444 150.83L278.913 151.578C269.934 164.248 246.115 197.854 201.384 198.37C195.288 193.138 188.356 187.862 182.858 187.854C178.26 187.847 176.894 187.432 176.587 187.131C176.184 186.351 177.177 183.238 177.905 180.957L177.909 180.944L178.049 180.508C179.1 177.203 179.447 175.105 179.566 174.098C179.679 172.963 179.121 171.854 178.147 171.273ZM178.007 175.897C178.037 175.876 178.069 175.856 178.102 175.835C178.086 175.845 178.071 175.855 178.056 175.865C178.04 175.876 178.023 175.887 178.007 175.897ZM384.964 153.394C384.954 153.391 384.944 153.387 384.934 153.383C384.951 153.388 384.967 153.395 384.984 153.402L384.964 153.394ZM384.984 153.402C384.991 153.404 384.997 153.407 385.004 153.41L384.988 153.403L384.984 153.402ZM395.495 150.37C395.493 150.381 395.492 150.393 395.491 150.404L398.183 150.339L395.504 150.329C395.5 150.343 395.497 150.357 395.495 150.37ZM388.157 150.312C388.153 150.3 388.148 150.288 388.144 150.276C388.156 150.312 388.168 150.346 388.18 150.38C388.172 150.356 388.165 150.334 388.157 150.312Z" fill="black"/>
<path d="M233.162 159.873C232.364 157.473 232.058 155.042 232.034 152.521C232.047 150.017 232.37 147.431 233.307 144.932C234.223 142.447 235.736 140.021 237.862 138.181C239.948 136.308 242.576 135.079 245.141 134.455C247.716 133.779 250.535 133.553 253.282 134.114C253.958 134.288 254.638 134.453 255.297 134.669C255.94 134.937 256.592 135.185 257.213 135.486C257.806 135.838 258.412 136.173 258.978 136.553C259.516 136.969 260.069 137.368 260.577 137.808C261.056 138.277 261.554 138.727 262.001 139.217C262.412 139.736 262.843 140.236 263.222 140.767C263.576 141.315 263.947 141.848 264.272 142.404C264.574 142.971 264.881 143.536 265.143 144.116C266.183 146.439 266.803 148.897 266.941 151.36C266.969 151.858 266.588 152.283 266.088 152.312C265.68 152.334 265.32 152.084 265.186 151.721L265.183 151.711C263.626 147.442 261.136 143.586 257.798 141.241C256.139 140.076 254.292 139.345 252.386 139.086C250.475 138.82 248.49 139.049 246.531 139.598C242.55 140.625 239.521 143.08 237.709 146.795C235.867 150.468 235.139 155.043 234.922 159.57L234.919 159.636C234.895 160.134 234.471 160.517 233.972 160.493C233.595 160.472 233.277 160.216 233.162 159.873Z" fill="#505050"/>
<path d="M329.222 139.654C328.441 137.377 328.139 135.07 328.104 132.674C328.104 130.293 328.402 127.83 329.29 125.447C330.158 123.075 331.599 120.755 333.629 118.995C335.62 117.203 338.134 116.03 340.577 115.435C343.033 114.792 345.725 114.579 348.348 115.117C348.996 115.283 349.643 115.443 350.273 115.65C350.887 115.906 351.509 116.143 352.102 116.433C352.67 116.771 353.245 117.091 353.787 117.455C354.3 117.853 354.827 118.235 355.31 118.656C355.765 119.104 356.241 119.533 356.665 120.002C357.056 120.497 357.466 120.976 357.824 121.484C358.158 122.007 358.512 122.517 358.819 123.047C359.105 123.588 359.394 124.126 359.642 124.678C360.621 126.895 361.199 129.233 361.313 131.574C361.337 132.072 360.952 132.495 360.452 132.519C360.049 132.538 359.693 132.291 359.56 131.934L359.557 131.925C358.049 127.897 355.678 124.276 352.535 122.089C350.973 121.002 349.243 120.326 347.459 120.089C345.672 119.844 343.814 120.062 341.974 120.579C338.237 121.549 335.418 123.827 333.698 127.308C331.951 130.749 331.239 135.068 330.99 139.35L330.987 139.417C330.958 139.915 330.529 140.295 330.029 140.266C329.65 140.242 329.338 139.991 329.222 139.654Z" fill="#505050"/>
<g opacity="0.3">
<path d="M376.564 170.373C376.108 170.842 375.643 171.392 375.166 172.034C374.615 172.758 374.057 173.608 373.478 174.585C373.478 174.598 373.472 174.598 373.465 174.606V174.612C365.217 186.547 353.239 195.929 338.679 203.015C338.679 203.015 256.913 234.714 206.849 206.673C200.442 202.935 194.587 198.368 189.52 192.842C188.457 191.682 187.429 190.485 186.434 189.239C185.204 189.031 184.021 189.165 182.771 189.447C179.054 190.284 175.739 190.312 174.463 188.763C174.423 188.71 174.383 188.656 174.343 188.603C174.29 188.523 174.242 188.443 174.195 188.355C173.899 187.778 173.792 187.09 173.825 186.299C173.832 186.198 173.838 186.098 173.846 185.998C173.853 185.897 173.867 185.804 173.88 185.703C173.981 184.859 174.203 183.914 174.499 182.87C174.566 182.643 174.634 182.407 174.708 182.174C174.843 181.738 174.982 181.29 175.124 180.827C175.244 180.459 175.367 180.084 175.487 179.701C175.568 179.44 175.648 179.192 175.715 178.958C177.295 179.192 179.365 178.979 181.57 178.482C181.583 178.476 181.598 178.476 181.611 178.476C183.56 178.04 185.482 178.857 186.887 180.265C190.383 183.761 195.687 188.134 201.003 191.859C203.006 193.271 205.01 194.584 206.918 195.729C209.499 197.276 212.194 198.642 214.978 199.841C262.859 220.51 337.485 192.052 337.485 192.052C349.812 186.058 360.293 178.402 368.224 168.953C370.605 169.536 373.078 170.045 375.651 170.46C375.96 170.508 376.275 170.474 376.564 170.373Z" fill="#505050"/>
</g>
</svg>
