<svg width="128" height="30" viewBox="0 0 128 30" fill="none" xmlns="http://www.w3.org/2000/svg">
<path fill-rule="evenodd" clip-rule="evenodd" d="M93.7638 11.3452C93.4843 11.6247 93.143 11.7644 92.74 11.7644C92.337 11.7644 91.9958 11.6247 91.7163 11.3452C91.4368 11.0657 91.297 10.7244 91.297 10.3214C91.297 9.93145 91.4368 9.5967 91.7163 9.3172C91.9958 9.0377 92.337 8.89795 92.74 8.89795C93.143 8.89795 93.4843 9.0377 93.7638 9.3172C94.0433 9.5967 94.183 9.93145 94.183 10.3214C94.183 10.7244 94.0433 11.0657 93.7638 11.3452ZM64.6405 23.2304C65.5765 23.2304 66.454 22.9964 67.273 22.5284C68.092 22.0604 68.7388 21.4364 69.2133 20.6564C69.6878 19.8764 69.925 19.0249 69.925 18.1019L69.9055 8.93695L67.7215 10.1069V13.6559C66.7855 12.9929 65.7585 12.6614 64.6405 12.6614C63.6915 12.6614 62.814 12.8954 62.008 13.3634C61.189 13.8444 60.5423 14.4912 60.0678 15.3037C59.5933 16.1162 59.356 16.9969 59.356 17.9459C59.356 18.9079 59.5965 19.7854 60.0775 20.5784C60.5455 21.3974 61.1858 22.0442 61.9983 22.5187C62.8108 22.9932 63.6915 23.2304 64.6405 23.2304ZM42.4495 23.2304C43.2945 23.2304 44.0745 23.0484 44.7895 22.6844C45.5175 22.3204 46.1285 21.8199 46.6225 21.1829C47.1165 20.5459 47.448 19.8309 47.617 19.0379H45.3355C45.1145 19.6229 44.7408 20.1007 44.2143 20.4712C43.6878 20.8417 43.0995 21.0269 42.4495 21.0269C41.8775 21.0269 41.364 20.8839 40.909 20.5979C40.441 20.3249 40.0673 19.9512 39.7878 19.4767C39.5083 19.0022 39.3685 18.4919 39.3685 17.9459C39.3685 17.3739 39.5115 16.8604 39.7975 16.4054C40.0705 15.9374 40.4443 15.5637 40.9188 15.2842C41.3933 15.0047 41.9035 14.8649 42.4495 14.8649C43.0995 14.8649 43.6845 15.0469 44.2045 15.4109C44.7245 15.7749 45.095 16.2494 45.316 16.8344L47.617 16.8539C47.448 16.0739 47.1165 15.3589 46.6225 14.7089C46.1155 14.0719 45.498 13.5714 44.77 13.2074C44.042 12.8434 43.2685 12.6614 42.4495 12.6614C41.5005 12.6614 40.623 12.8954 39.817 13.3634C38.998 13.8444 38.3513 14.4912 37.8768 15.3037C37.4023 16.1162 37.165 16.9969 37.165 17.9459C37.165 18.9079 37.4055 19.7854 37.8865 20.5784C38.3545 21.3974 38.9948 22.0442 39.8073 22.5187C40.6198 22.9932 41.5005 23.2304 42.4495 23.2304ZM53.4865 23.2304C54.4485 23.2304 55.3325 22.9899 56.1385 22.5089C56.9445 22.0409 57.5848 21.4007 58.0593 20.5882C58.5338 19.7757 58.771 18.8949 58.771 17.9459C58.771 16.9969 58.537 16.1129 58.069 15.2939C57.588 14.4879 56.938 13.8477 56.119 13.3732C55.3 12.8987 54.4225 12.6614 53.4865 12.6614C52.5375 12.6614 51.66 12.8954 50.854 13.3634C50.035 13.8444 49.3883 14.4912 48.9138 15.3037C48.4393 16.1162 48.202 16.9969 48.202 17.9459C48.202 18.9079 48.4425 19.7854 48.9235 20.5784C49.3915 21.3974 50.0318 22.0442 50.8443 22.5187C51.6568 22.9932 52.5375 23.2304 53.4865 23.2304ZM52.024 20.4809C52.479 20.7409 52.9665 20.8709 53.4865 20.8709C54.0195 20.8709 54.5103 20.7409 54.9588 20.4809C55.4073 20.2209 55.7615 19.8634 56.0215 19.4084C56.2815 18.9534 56.4115 18.4659 56.4115 17.9459C56.4115 17.4129 56.2848 16.9222 56.0313 16.4737C55.7778 16.0252 55.4235 15.6709 54.9685 15.4109C54.5135 15.1509 54.0195 15.0209 53.4865 15.0209C52.9535 15.0209 52.4628 15.1477 52.0143 15.4012C51.5658 15.6547 51.2115 16.0089 50.9515 16.4639C50.6915 16.9189 50.5615 17.4129 50.5615 17.9459C50.5615 18.4789 50.6915 18.9697 50.9515 19.4182C51.2115 19.8667 51.569 20.2209 52.024 20.4809ZM63.1 20.5979C63.555 20.8839 64.0685 21.0269 64.6405 21.0269C65.1865 21.0269 65.6968 20.8872 66.1713 20.6077C66.6458 20.3282 67.026 19.9544 67.312 19.4864C67.585 19.0184 67.7215 18.5049 67.7215 17.9459C67.7215 17.3999 67.5818 16.8897 67.3023 16.4152C67.0228 15.9407 66.649 15.5604 66.181 15.2744C65.713 15.0014 65.1995 14.8649 64.6405 14.8649C64.0945 14.8649 63.5843 15.0047 63.1098 15.2842C62.6353 15.5637 62.2615 15.9374 61.9885 16.4054C61.7025 16.8604 61.5595 17.3739 61.5595 17.9459C61.5595 18.4919 61.6993 19.0022 61.9788 19.4767C62.2583 19.9512 62.632 20.3249 63.1 20.5979ZM75.775 23.2304C76.672 23.2304 77.517 23.0159 78.31 22.5869C79.103 22.1579 79.74 21.5729 80.221 20.8319L78.0955 20.0129C77.8095 20.3379 77.4618 20.5882 77.0523 20.7637C76.6428 20.9392 76.217 21.0269 75.775 21.0269C75.385 21.0269 75.021 20.9619 74.683 20.8319C74.267 20.6759 73.903 20.4387 73.591 20.1202C73.279 19.8017 73.045 19.4279 72.889 18.9989L80.962 18.7844V18.7649L81.001 18.7844C81.04 18.5114 81.0595 18.2319 81.0595 17.9459C81.0595 16.8799 80.754 15.8854 80.143 14.9624C79.584 14.1434 78.908 13.5552 78.115 13.1977C77.322 12.8402 76.555 12.6614 75.814 12.6614C74.722 12.6614 73.721 12.9734 72.811 13.5974C71.901 14.2214 71.251 15.0404 70.861 16.0544C70.627 16.6784 70.51 17.3024 70.51 17.9264C70.51 18.9924 70.822 19.9869 71.446 20.9099C72.005 21.7419 72.6778 22.3367 73.4643 22.6942C74.2508 23.0517 75.021 23.2304 75.775 23.2304ZM72.9085 16.8539L72.8695 16.9709L78.661 16.8344C78.518 16.4314 78.2938 16.0772 77.9883 15.7717C77.6828 15.4662 77.322 15.2354 76.906 15.0794C76.568 14.9494 76.204 14.8844 75.814 14.8844C75.177 14.8844 74.592 15.0599 74.059 15.4109C73.526 15.7619 73.1425 16.2429 72.9085 16.8539ZM84.5695 23.2499C84.5825 23.2239 84.589 23.1654 84.589 23.0744V19.9544L84.9985 19.0964L88.021 23.2499H90.439L86.227 17.5949L90.01 12.7199H87.4165L84.589 16.4639V8.95645H82.2295V23.2499H84.5695ZM94.066 23.2694V12.6809H91.5115V23.2694H94.066ZM97.7125 14.3969V23.1914H95.158V8.95645H97.7125V12.1349H100.053L99.448 14.3969H97.7125ZM103.582 23.1914V14.3969H105.318L105.922 12.1349H103.582V8.95645H101.028V23.1914H103.582ZM114.307 22.5869C113.514 23.0159 112.669 23.2304 111.772 23.2304C111.018 23.2304 110.248 23.0517 109.461 22.6942C108.675 22.3367 108.002 21.7419 107.443 20.9099C106.819 19.9869 106.507 18.9924 106.507 17.9264C106.507 17.3024 106.624 16.6784 106.858 16.0544C107.248 15.0404 107.898 14.2214 108.808 13.5974C109.718 12.9734 110.719 12.6614 111.811 12.6614C112.552 12.6614 113.319 12.8402 114.112 13.1977C114.905 13.5552 115.581 14.1434 116.14 14.9624C116.751 15.8854 117.057 16.8799 117.057 17.9459C117.057 18.2319 117.037 18.5114 116.998 18.7844L116.959 18.7649V18.7844L108.886 18.9989C109.042 19.4279 109.276 19.8017 109.588 20.1202C109.9 20.4387 110.264 20.6759 110.68 20.8319C111.018 20.9619 111.382 21.0269 111.772 21.0269C112.214 21.0269 112.64 20.9392 113.049 20.7637C113.459 20.5882 113.807 20.3379 114.093 20.0129L116.218 20.8319C115.737 21.5729 115.1 22.1579 114.307 22.5869ZM108.867 16.9709L108.906 16.8539C109.14 16.2429 109.523 15.7619 110.056 15.4109C110.589 15.0599 111.174 14.8844 111.811 14.8844C112.201 14.8844 112.565 14.9494 112.903 15.0794C113.319 15.2354 113.68 15.4662 113.985 15.7717C114.291 16.0772 114.515 16.4314 114.658 16.8344L108.867 16.9709ZM119.826 17.3219V23.2304H117.642V17.3219C117.642 16.4119 117.866 15.6027 118.314 14.8942C118.763 14.1857 119.371 13.6364 120.138 13.2464C120.892 12.8694 121.685 12.6809 122.517 12.6809C123.375 12.6809 124.174 12.8727 124.915 13.2562C125.656 13.6397 126.261 14.1759 126.729 14.8649C127.184 15.5929 127.411 16.4119 127.411 17.3219L127.372 23.2304H125.188V17.3219C125.188 16.5679 124.928 15.9732 124.408 15.5377C123.888 15.1022 123.258 14.8844 122.517 14.8844C121.763 14.8844 121.126 15.1022 120.606 15.5377C120.086 15.9732 119.826 16.5679 119.826 17.3219Z" fill="black"/>
<path d="M33.3728 18.6948C33.5794 19.8595 34.1752 20.9996 34.1328 21.3763C34.0447 22.1383 32.3431 21.2299 32.3431 21.2299C32.3431 21.2299 32.2422 21.4687 32.5821 22.1508C32.8344 22.6583 33.0562 23.0295 32.9511 23.3015C32.8391 23.5908 32.3441 23.6497 31.7677 23.5826C31.3634 23.5356 31.0207 23.5876 30.5732 24.0698C30.484 24.1631 30.3936 24.2738 30.2981 24.4023C30.2973 24.4034 30.2962 24.4034 30.2953 24.4034L30.2945 24.4045C28.9543 25.9524 27.3232 27.3768 25.1624 28.388C23.1579 29.3261 14.3273 32.4054 6.48098 26.3138C5.48151 25.538 4.58457 24.6439 3.89655 23.547C3.72718 23.4986 3.56039 23.4992 3.38027 23.5184C2.80316 23.5831 2.30837 23.5235 2.19789 23.2323C2.09472 22.9605 2.28279 22.5575 2.51385 22.0362C2.70042 21.6162 2.77457 21.3528 2.80123 21.2352C2.80768 21.2056 2.78296 21.1811 2.75888 21.1922C2.46248 21.341 1.10063 21.9814 1.02454 21.3023C0.98263 20.925 1.58489 19.7881 1.79574 18.6236C2.14136 16.7238 2.41305 15.3865 2.58564 14.5795C2.58951 14.5576 2.59446 14.5357 2.60026 14.5135C2.60413 14.4924 2.60907 14.4705 2.61294 14.4505C2.61681 14.4295 2.62283 14.4095 2.6267 14.3895C2.67828 14.1545 2.73653 13.9221 2.80166 13.6904C3.09763 12.6192 3.52192 11.5573 4.06292 10.3557C3.28269 9.00289 -0.00694758 2.98625 1.78908 0.702036C2.81477 -0.602584 9.82499 2.00279 11.359 2.59544C13.0383 1.78847 14.9427 1.29297 17.0577 1.20333C17.485 1.18506 17.9035 1.1842 18.3134 1.20161C18.3237 1.20032 18.3351 1.20075 18.3445 1.20226C19.7214 1.25363 20.9558 1.60876 22.1412 2.02364C22.2805 2.07329 22.4187 2.12295 22.5569 2.17239C23.1196 2.37725 23.6516 2.61715 24.1562 2.88285C25.7094 2.34114 32.978 -0.11526 33.96 1.22139C35.6755 3.55462 32.221 9.42938 31.3846 10.7828C31.5871 11.225 31.7668 11.6611 31.9259 12.1023C32.1165 12.6291 32.2743 13.161 32.4004 13.713C32.4004 13.713 32.4017 13.7224 32.4062 13.7422C32.4415 13.8942 32.6102 14.6388 32.878 16.0161C33.0173 16.7356 33.1841 17.6262 33.3728 18.6948Z" fill="white"/>
<path fill-rule="evenodd" clip-rule="evenodd" d="M16.4923 1.36365H18.1968C18.1968 1.36365 18.5377 2.80029 18.5377 3.69368C18.5377 3.99998 18.4977 4.30325 18.445 4.56955C18.3373 5.1141 17.8318 5.45456 17.2767 5.45456V5.45456C16.7917 5.45456 16.3459 5.18688 16.2486 4.71175C16.1938 4.44362 16.1514 4.10378 16.1514 3.69368C16.1514 2.53067 16.4923 1.36365 16.4923 1.36365Z" fill="black"/>
<path fill-rule="evenodd" clip-rule="evenodd" d="M19.2198 1.70459H20.9244C20.9244 1.70459 21.2653 2.78207 21.2653 3.45211C21.2653 3.66362 21.2313 3.8732 21.1848 4.06099C21.0726 4.5142 20.6318 4.77277 20.1649 4.77277V4.77277C19.6053 4.77277 19.1259 4.39596 19.0996 3.83695C19.0941 3.71951 19.0908 3.5912 19.0908 3.45211C19.0908 2.57986 19.2198 1.70459 19.2198 1.70459Z" fill="black"/>
<path fill-rule="evenodd" clip-rule="evenodd" d="M15.3407 1.70459H13.6362C13.6362 1.70459 13.2953 2.78207 13.2953 3.45211C13.2953 3.66362 13.3293 3.8732 13.3757 4.06099C13.488 4.5142 13.9287 4.77277 14.3956 4.77277V4.77277C14.9553 4.77277 15.4347 4.39596 15.4609 3.83695C15.4664 3.71951 15.4697 3.5912 15.4697 3.45211C15.4697 2.57986 15.3407 1.70459 15.3407 1.70459Z" fill="black"/>
<path d="M10.4505 28.9716C9.77113 28.7582 9.11214 28.4772 8.47375 28.1534C8.15616 27.9885 7.84221 27.8149 7.53556 27.6288C7.22976 27.4414 6.9289 27.2452 6.63554 27.0377C6.34411 26.8289 6.05547 26.6118 5.77541 26.3814C5.49642 26.1499 5.22644 25.9053 4.96803 25.6472C4.82354 25.5036 3.86407 24.6193 3.45326 23.6761C2.88167 22.3636 1.64696 17.7573 1.64696 17.7573L2.27399 14.5342L2.26798 14.561C2.30637 14.3665 2.35762 14.1871 2.40201 13.9995L2.47127 13.7209L2.54826 13.4476C2.65484 13.0841 2.77342 12.7248 2.90209 12.371C3.15835 11.6625 3.45106 10.9736 3.75407 10.2938L3.77123 10.6401C3.3447 9.89089 2.95034 9.12832 2.58493 8.34845C2.22016 7.56858 1.8852 6.77249 1.60235 5.95134C1.31929 5.13105 1.08726 4.28396 0.97532 3.39752C0.921495 2.9542 0.903911 2.49791 0.956235 2.03362C1.00749 1.57213 1.14409 1.09098 1.42158 0.670356L1.52794 0.514944C1.55024 0.485764 1.58284 0.450531 1.61093 0.419838C1.64074 0.390225 1.67226 0.364071 1.70378 0.337052C1.83181 0.236542 1.96519 0.175156 2.09278 0.130196C2.34968 0.0413585 2.58857 0.0177981 2.82167 0.00418066C3.28551 -0.0144083 3.72405 0.0314156 4.15615 0.0936669C5.01864 0.222709 5.85068 0.429348 6.67457 0.657171C8.31978 1.12016 9.92467 1.67935 11.5137 2.29192L11.2141 2.3038C11.7665 2.03837 12.3348 1.80666 12.9153 1.61299C13.4964 1.42105 14.0891 1.26542 14.6883 1.14589C15.2879 1.02787 15.8941 0.947461 16.5021 0.90034C17.1098 0.854084 17.7199 0.838305 18.3319 0.864891L18.2674 0.867701C18.3132 0.863162 18.3611 0.864027 18.4067 0.870079L18.3613 0.86554C18.8884 0.886074 19.4123 0.949838 19.9265 1.0497C20.4405 1.15021 20.9451 1.28379 21.4385 1.43834C21.6858 1.51507 21.9294 1.59678 22.1728 1.68194C22.4162 1.76862 22.6508 1.85097 22.8987 1.94651C23.3859 2.13564 23.8609 2.3546 24.3215 2.59885L24.0213 2.57637C25.641 2.01135 27.275 1.49648 28.9447 1.07564C29.7804 0.868133 30.6244 0.683325 31.4933 0.569198C31.9289 0.514944 32.3698 0.475388 32.8319 0.494626C33.0639 0.507379 33.3 0.528561 33.5518 0.603133C33.6772 0.640743 33.807 0.688945 33.938 0.77173C34.0032 0.813447 34.0677 0.862081 34.1286 0.922387C34.1595 0.950271 34.187 0.987016 34.215 1.02009C34.2309 1.03868 34.2382 1.05121 34.2468 1.0644L34.2725 1.10439C34.5588 1.52696 34.6967 2.01568 34.7471 2.48364C34.7977 2.95463 34.7692 3.41525 34.7068 3.86203C34.5764 4.7556 34.3169 5.60291 34.0081 6.42168C33.6993 7.24132 33.3367 8.03308 32.9453 8.80777C32.5529 9.58223 32.1311 10.3383 31.6786 11.0795L31.7007 10.7209C32.1392 11.6849 32.5038 12.6954 32.739 13.741L32.745 13.7734L33.2406 16.1915C33.2406 16.1915 31.6239 21.1167 30.9714 23.754C30.9106 23.9996 30.7113 24.3841 30.494 24.8027C30.2767 25.2214 30.2065 25.262 30.0175 25.4652C29.921 25.5661 29.8269 25.6692 29.7285 25.7686C29.6283 25.8663 29.531 25.9664 29.4287 26.062C29.2269 26.2556 29.0191 26.443 28.8051 26.6233C28.5921 26.8049 28.3738 26.9802 28.148 27.1453C27.9237 27.3124 27.6943 27.4726 27.4573 27.6206C27.2225 27.7719 26.9806 27.9118 26.7344 28.0425C26.2421 28.3037 25.7317 28.5291 25.2031 28.6971C25.1362 28.7182 25.0648 28.6808 25.0438 28.6134C25.0262 28.5572 25.0489 28.4982 25.0956 28.4675C25.5533 28.1686 26.0021 27.8709 26.4355 27.5551C26.6521 27.3973 26.8654 27.2359 27.0762 27.072C27.2853 26.9058 27.4931 26.7387 27.6964 26.5662C27.8988 26.3929 28.0989 26.2167 28.2953 26.0367C28.4911 25.8558 28.6826 25.6703 28.8724 25.4827C29.0605 25.2935 29.1976 25.1702 29.43 24.9073C29.4814 24.8491 29.7285 24.4237 29.8713 23.8461C30.0141 23.2685 32.4995 16.3358 32.4995 16.3358L31.9973 13.8782L32.0033 13.9106C31.7811 12.9239 31.4367 11.9664 31.0145 11.038L30.9304 10.8532L31.0366 10.6794C31.4768 9.95833 31.8907 9.21651 32.2731 8.46193C32.6545 7.70691 33.0067 6.9372 33.3026 6.15128C33.5994 5.36687 33.8423 4.56193 33.9594 3.75547C34.0163 3.35321 34.0386 2.94988 33.997 2.56664C33.9558 2.18406 33.8462 1.82481 33.6508 1.53604C33.5739 1.35426 33.1812 1.27147 32.7987 1.25526C32.4092 1.23861 31.9979 1.2732 31.589 1.32464C30.7683 1.43229 29.9444 1.61147 29.1267 1.81487C27.491 2.22707 25.8698 2.7374 24.2703 3.2955L24.1148 3.34976L23.97 3.27302C23.5341 3.04174 23.0863 2.83532 22.6278 2.65743C22.4025 2.57053 22.1589 2.48472 21.9247 2.40129C21.6896 2.31893 21.4523 2.23939 21.2155 2.1659C20.7416 2.0174 20.2647 1.89161 19.7841 1.79758C19.3035 1.70442 18.8189 1.64563 18.3334 1.6266L18.2877 1.62207C18.3126 1.62769 18.3398 1.6279 18.3647 1.62293L18.2999 1.62574C17.7218 1.60045 17.1392 1.61536 16.5595 1.65946C15.9801 1.7042 15.4035 1.78094 14.8339 1.8929C14.2648 2.0066 13.7029 2.15423 13.1522 2.33601C12.6022 2.51952 12.0644 2.73891 11.5416 2.99008L11.3942 3.06076L11.242 3.00197C9.67591 2.39783 8.08325 1.84362 6.47364 1.39078C5.66905 1.16815 4.85695 0.967779 4.04764 0.846951C3.64449 0.788158 3.23855 0.748818 2.85749 0.764597C2.66985 0.774324 2.48393 0.797885 2.34111 0.849328C2.2697 0.873969 2.20965 0.904879 2.17084 0.935788C2.16291 0.944002 2.15283 0.951135 2.14511 0.958484C2.13867 0.967779 2.13374 0.970372 2.12366 0.983342L2.05118 1.09142C1.85925 1.38084 1.74839 1.73987 1.70657 2.12224C1.66347 2.50461 1.67612 2.90557 1.72544 3.30674C1.82666 4.1106 2.0441 4.91533 2.31602 5.7019C2.58729 6.48977 2.91238 7.26359 3.26814 8.02379C3.62412 8.78356 4.0114 9.5323 4.42571 10.2599L4.52199 10.4289L4.44286 10.6064C4.14414 11.2766 3.85851 11.9497 3.6119 12.6321C3.48773 12.9732 3.37451 13.3169 3.27308 13.6629L3.19952 13.9236L3.13497 14.1836C3.09423 14.3559 3.04384 14.5325 3.01038 14.7011L3.00438 14.7279L2.38957 17.8956C2.38957 17.8956 4.33621 22.1194 4.55465 23.162C4.77309 24.2045 5.37179 24.9367 5.52301 25.096C5.99157 25.5897 6.00637 25.5774 6.26284 25.8047C6.51781 26.0336 6.78415 26.2522 7.05692 26.4655C7.32819 26.6799 7.60311 26.8907 7.88617 27.09C8.16774 27.2914 8.45337 27.4883 8.74587 27.6753C9.32744 28.0555 9.93067 28.404 10.5481 28.7381C10.6096 28.7714 10.6328 28.8486 10.5999 28.9106C10.5706 28.9649 10.5071 28.9893 10.4505 28.9716Z" fill="black"/>
<path d="M7.98705 5.23927C7.66565 5.4794 6.87129 6.7273 6.26402 7.72809C5.36801 6.31643 4.92606 4.16933 4.8511 3.1747C4.85028 3.16367 4.84925 3.15243 4.84863 3.14246C5.71487 3.40994 6.69817 3.79218 6.90867 4.04227C7.28593 4.48921 8.53949 4.82882 7.98705 5.23927Z" fill="#FC7E81"/>
<path fill-rule="evenodd" clip-rule="evenodd" d="M6.22114 7.75716L6.26509 7.82631L6.30719 7.75652C7.16377 6.34507 7.77084 5.46646 8.01666 5.28276C8.12715 5.20067 8.18075 5.11137 8.17623 5.0174C8.16618 4.80811 7.87943 4.63753 7.54731 4.43996L7.54596 4.43916C7.31451 4.30149 7.07526 4.15916 6.94711 4.00749C6.71854 3.73597 5.68164 3.3444 4.86325 3.09176L4.79199 3.0697L4.8 3.17894C4.87722 4.20476 5.33108 6.35525 6.22114 7.75716ZM6.26345 7.62925C5.42596 6.26488 4.9912 4.23361 4.90597 3.21564C5.75557 3.48207 6.675 3.84543 6.86989 4.07728C7.00913 4.24252 7.25598 4.38931 7.49483 4.53122C7.77597 4.69816 8.06657 4.87104 8.07396 5.0227C8.07663 5.07828 8.0372 5.13682 7.9569 5.19643C7.63612 5.43613 6.86825 6.63546 6.26345 7.62925Z" fill="#390075"/>
<path d="M5.9313 8.23203C6.64989 6.95591 7.4007 6.03556 7.93851 5.4595C8.33901 5.03058 8.23196 4.36434 7.71513 4.0678C6.52165 3.38313 5.19324 2.96957 4.34274 2.75194C3.86958 2.63082 3.4066 2.97162 3.40919 3.436C3.41373 4.22929 3.53418 5.46749 4.09816 6.76799C4.39572 7.45431 4.68895 7.94184 4.93309 8.27957C5.18135 8.62263 5.72456 8.59906 5.9313 8.23203Z" fill="#F9F154"/>
<path fill-rule="evenodd" clip-rule="evenodd" d="M5.59836 9.18656C5.83459 9.13554 6.03734 8.96295 6.13221 8.75215L6.13455 8.75323C6.48548 8.15034 6.86667 7.56786 7.28454 7.01708C7.49326 6.7418 7.71093 6.47411 7.93798 6.21663L8.10833 6.02407C8.1192 6.01189 8.12938 6.0008 8.13956 5.9897C8.15754 5.97011 8.17554 5.95049 8.19745 5.92485C8.20775 5.91175 8.21838 5.89892 8.22901 5.88609C8.25558 5.85404 8.28215 5.82197 8.30362 5.78569C8.43303 5.59008 8.51383 5.35562 8.5215 5.11681C8.53238 4.87843 8.47993 4.63593 8.36417 4.42382C8.30937 4.31614 8.2339 4.22018 8.15246 4.13117C8.14626 4.12529 8.14006 4.11938 8.13386 4.11346C8.09654 4.07785 8.05891 4.04195 8.01815 4.01068C7.97231 3.97681 7.91496 3.93448 7.8817 3.91494C7.5764 3.71825 7.26343 3.53523 6.94065 3.37479C6.29637 3.05153 5.62907 2.78537 4.94641 2.57326C4.77457 2.51964 4.60721 2.4697 4.42919 2.42086C4.15843 2.34921 3.85292 2.38981 3.61094 2.53635C3.36875 2.68029 3.17943 2.92171 3.10716 3.20242C3.08968 3.27167 3.07497 3.3431 3.0722 3.41387L3.06943 3.46706L3.06836 3.49355L3.06857 3.51092L3.06921 3.58039C3.06939 3.65735 3.07178 3.73416 3.07418 3.81107C3.07466 3.82659 3.07514 3.8421 3.07561 3.85763C3.10737 4.59555 3.22122 5.32804 3.41758 6.03818C3.51735 6.39249 3.63738 6.74115 3.77745 7.08091C3.91965 7.41959 4.07891 7.74372 4.2548 8.06437C4.34264 8.22438 4.439 8.38004 4.53899 8.53353C4.5893 8.61016 4.6409 8.68615 4.69441 8.76083L4.77798 8.87481L4.83853 8.94732C4.85604 8.96567 4.87507 8.98276 4.89395 8.99971C4.89852 9.00381 4.90308 9.00791 4.90761 9.01201C5.1014 9.17658 5.36406 9.23867 5.59836 9.18656ZM6.85026 6.70142C6.4584 7.30213 6.11068 7.92912 5.80559 8.57477L5.80794 8.57629C5.73801 8.67811 5.63376 8.73478 5.52481 8.74107C5.41544 8.74867 5.31183 8.70243 5.24787 8.62883C5.2326 8.61209 5.22021 8.5926 5.20789 8.57323C5.20679 8.5715 5.20569 8.56977 5.20459 8.56804L5.14234 8.4621C5.10034 8.38894 5.06004 8.31447 5.02081 8.23936C4.94215 8.08934 4.8703 7.93498 4.79973 7.77975C4.65966 7.46974 4.53302 7.14734 4.42514 6.82538C4.31364 6.50494 4.22154 6.17799 4.1482 5.84691C3.99811 5.18541 3.9171 4.50762 3.90175 3.83027C3.90147 3.8145 3.90117 3.79872 3.90086 3.78294C3.89955 3.7142 3.89824 3.64538 3.89876 3.5767V3.5133V3.49746L3.89983 3.49094L3.90111 3.47792C3.9008 3.46505 3.90383 3.45332 3.90682 3.44174C3.90797 3.4373 3.90911 3.43287 3.91006 3.42842C3.92626 3.36524 3.97274 3.31097 4.02988 3.2771C4.08872 3.24301 4.1531 3.23867 4.2192 3.25344C4.37739 3.29447 4.54453 3.34158 4.70571 3.38934C5.35383 3.58668 5.99406 3.81377 6.60806 4.09361C6.91421 4.23494 7.21717 4.38236 7.50818 4.54974C7.5346 4.56372 7.54938 4.57346 7.56296 4.5824C7.57153 4.58804 7.57961 4.59336 7.58983 4.59924C7.6039 4.60818 7.61657 4.61871 7.62929 4.62928C7.63758 4.63618 7.6459 4.6431 7.65465 4.64961C7.65613 4.65114 7.65762 4.65267 7.65911 4.6542C7.69565 4.69179 7.73289 4.73011 7.75911 4.77704C7.81945 4.87061 7.85143 4.98481 7.85356 5.10009C7.85825 5.21602 7.82499 5.33065 7.76743 5.43225C7.76018 5.44872 7.7494 5.46303 7.73857 5.47741C7.73155 5.48673 7.72451 5.49608 7.71839 5.50607C7.70502 5.52413 7.68632 5.54699 7.66761 5.56988C7.65708 5.58275 7.64655 5.59563 7.63695 5.60767L7.46959 5.81978C7.25149 6.10613 7.04576 6.40073 6.85026 6.70142Z" fill="black"/>
<path d="M29.2664 8.50407C28.6344 7.26529 27.9727 6.35803 27.4901 5.77832C27.1139 5.32669 27.2403 4.64767 27.7542 4.36002C29.0118 3.65622 30.4074 3.26947 31.2316 3.0847C31.6381 2.99358 32.0283 3.29173 32.0421 3.70619C32.0697 4.54542 31.9309 5.99984 30.9635 7.67366C30.7515 8.04026 30.5557 8.34282 30.3844 8.58721C30.1018 8.99139 29.4902 8.94289 29.2664 8.50407Z" fill="#F9F154"/>
<path fill-rule="evenodd" clip-rule="evenodd" d="M28.0428 6.87623C28.4634 7.446 28.8479 8.04577 29.1981 8.6671L29.201 8.66576C29.249 8.76887 29.3131 8.86798 29.3981 8.95087C29.484 9.03198 29.5853 9.09842 29.6969 9.14354C29.9209 9.22776 30.1826 9.2282 30.413 9.12331C30.5295 9.07442 30.6316 8.99354 30.7173 8.90176L30.7785 8.82998L30.8209 8.77465L30.9044 8.66376C31.0143 8.51532 31.1226 8.36554 31.2247 8.21199C31.2297 8.2044 31.2347 8.19682 31.2397 8.18924C31.3362 8.04261 31.4316 7.89781 31.5217 7.74377C31.62 7.58489 31.711 7.42155 31.7994 7.25622C31.9703 6.92267 32.1243 6.57912 32.2559 6.22512C32.3889 5.87157 32.4879 5.50491 32.568 5.13358C32.6455 4.76158 32.7028 4.38314 32.7183 3.99981C32.7236 3.90404 32.7254 3.80804 32.7265 3.71182C32.7275 3.67983 32.727 3.64774 32.7265 3.61563C32.7262 3.59955 32.7259 3.58346 32.7258 3.56737L32.725 3.49515C32.7241 3.46715 32.7203 3.42515 32.7172 3.39071C32.6852 3.10049 32.5338 2.82027 32.3048 2.63961C32.0788 2.4565 31.7772 2.36183 31.4844 2.39183C31.3664 2.40761 31.3026 2.42372 31.2415 2.43916C31.2157 2.44568 31.1904 2.45207 31.1617 2.45828L30.8929 2.52672C30.177 2.71138 29.4758 2.95405 28.7948 3.25182C28.4539 3.3996 28.1216 3.56982 27.7962 3.75359L27.6748 3.82382C27.667 3.82838 27.6593 3.83279 27.6516 3.8372C27.6192 3.85579 27.5866 3.87449 27.5414 3.90537C27.4371 3.97026 27.3456 4.05581 27.263 4.14692C27.0995 4.33248 26.9945 4.56359 26.951 4.80203C26.9095 5.04136 26.9356 5.29047 27.0215 5.51602C27.0682 5.62713 27.1241 5.73468 27.1976 5.82868L27.2524 5.8989L27.2957 5.94913L27.3816 6.04912C27.6118 6.31512 27.8317 6.59201 28.0428 6.87623ZM30.1761 8.65021C29.9921 8.77421 29.6829 8.72221 29.542 8.49221L29.5449 8.49043C29.2432 7.82622 28.8943 7.18156 28.5016 6.56112C28.3047 6.25112 28.0976 5.9469 27.8768 5.65091L27.7927 5.54091L27.7507 5.48646L27.7254 5.44802C27.6899 5.39802 27.6672 5.3418 27.6464 5.28624C27.6122 5.17225 27.6067 5.05002 27.634 4.93536C27.6639 4.82181 27.7194 4.71581 27.8004 4.63603C27.8419 4.59759 27.8843 4.55959 27.936 4.53359C27.9528 4.52226 27.9904 4.50338 28.026 4.48549C28.0295 4.48373 28.0329 4.48199 28.0364 4.48025L28.1522 4.42159C28.4623 4.26648 28.7835 4.13181 29.1071 4.00226C29.7562 3.74693 30.4285 3.54271 31.1082 3.3716L31.3636 3.31027C31.4427 3.29227 31.5581 3.26627 31.5694 3.26738C31.6358 3.26138 31.703 3.28004 31.7581 3.32204C31.814 3.36382 31.846 3.42538 31.856 3.49249L31.8591 3.52271L31.8606 3.5856C31.8609 3.60022 31.8613 3.61478 31.8617 3.62935C31.8626 3.65661 31.8634 3.68385 31.8628 3.71137C31.8628 3.79537 31.8624 3.87937 31.8586 3.96381C31.8386 4.63914 31.7146 5.31669 31.5119 5.9729C31.3084 6.63156 31.0231 7.26 30.6807 7.87866L30.6723 7.89365C30.5892 8.04265 30.5061 8.19155 30.4185 8.33754L30.3501 8.45043L30.3157 8.50621L30.2927 8.53976C30.2605 8.58287 30.2232 8.62265 30.1761 8.65021Z" fill="black"/>
<path d="M18.7495 21.3919C18.7385 21.6929 18.2263 22.0502 17.7583 22.3149C17.2907 22.5794 16.7099 22.559 16.2627 22.2625C15.815 21.9657 15.33 21.5733 15.341 21.2723C15.3611 20.7156 16.1194 20.7839 17.0606 20.817C18.0018 20.8501 18.7697 20.8354 18.7495 21.3919Z" fill="black"/>
<path d="M19.4808 22.1933C19.5574 22.2759 19.6142 22.3648 19.6605 22.4636C19.7067 22.5618 19.7406 22.6677 19.7578 22.7795C19.7949 23.0025 19.7648 23.2489 19.6556 23.4709C19.5523 23.6955 19.3604 23.8992 19.1231 24.0262C18.8861 24.1537 18.6142 24.2117 18.3519 24.1983C18.0892 24.1861 17.8332 24.1109 17.6091 23.9808C17.5533 23.9477 17.4971 23.9157 17.4471 23.8739C17.3954 23.8349 17.3449 23.7945 17.3001 23.7476L17.2317 23.6795C17.2111 23.6565 17.1928 23.6334 17.1736 23.6105C17.1341 23.565 17.0989 23.5171 17.066 23.4678C16.9314 23.2722 16.8364 23.0583 16.7745 22.8414C16.742 22.7331 16.7202 22.6231 16.7043 22.5123C16.6956 22.4569 16.6897 22.4013 16.6856 22.3443C16.6833 22.3163 16.6824 22.2868 16.6812 22.258C16.6808 22.2262 16.6799 22.203 16.682 22.1582L16.6973 21.823L17.0571 21.8206H17.0595L17.4163 21.8181L17.4344 22.1582C17.4367 22.2032 17.4363 22.2262 17.4363 22.258C17.4354 22.2871 17.435 22.3163 17.4329 22.3445C17.4297 22.4015 17.4255 22.4573 17.4178 22.5131C17.404 22.6245 17.3824 22.7349 17.3512 22.8441C17.2921 23.0626 17.196 23.2779 17.0603 23.4741C17.027 23.5236 16.9916 23.5717 16.9518 23.6174C16.9322 23.6405 16.9138 23.6636 16.893 23.6866L16.8235 23.7547C16.7779 23.8014 16.7268 23.8416 16.6742 23.8801C16.6233 23.9213 16.5671 23.954 16.5109 23.9869C16.2842 24.1143 16.0283 24.1908 15.7647 24.2026C15.502 24.2156 15.2282 24.1624 14.9888 24.0348C14.7484 23.9108 14.548 23.7099 14.4398 23.4828C14.3805 23.3712 14.3499 23.2513 14.3289 23.1328C14.3132 23.0129 14.3151 22.894 14.3338 22.7805C14.3535 22.6671 14.3896 22.5598 14.4405 22.4614C14.489 22.3619 14.5526 22.2737 14.6353 22.1939C14.6608 22.1694 14.7021 22.1692 14.7278 22.1935C14.7405 22.2055 14.7469 22.2211 14.7471 22.2369V22.2459C14.7501 22.4364 14.7744 22.6174 14.8226 22.77C14.8718 22.923 14.9413 23.0514 15.0336 23.1535C15.1222 23.2558 15.2195 23.3292 15.3345 23.3753C15.4496 23.4183 15.58 23.4388 15.7136 23.4252C15.8466 23.4118 15.9799 23.3735 16.0959 23.3089C16.2134 23.2456 16.3056 23.163 16.4011 23.0415C16.4912 22.9252 16.5624 22.7899 16.6101 22.6426C16.6347 22.5693 16.653 22.4928 16.6657 22.4159C16.6725 22.3776 16.6776 22.3388 16.6803 22.3009L16.6835 22.2448L16.6839 22.2022L17.0588 22.5399H17.0565L17.4314 22.2022L17.4308 22.2448L17.4329 22.3009C17.4348 22.3388 17.4384 22.3778 17.4439 22.4165C17.4547 22.494 17.4725 22.5709 17.4959 22.6448C17.5408 22.7939 17.6131 22.9305 17.7045 23.0476C17.8002 23.1707 17.8971 23.2513 18.0158 23.3146C18.1341 23.3767 18.2677 23.4163 18.4015 23.4291C18.6734 23.4518 18.9185 23.3729 19.1028 23.1647C19.1537 23.1147 19.1901 23.0514 19.2296 22.9873C19.2637 22.9208 19.2934 22.8487 19.3178 22.7704C19.3598 22.6144 19.3791 22.4313 19.3685 22.2457L19.368 22.2379C19.3661 22.2041 19.3933 22.1748 19.4287 22.173C19.4495 22.1716 19.4683 22.1799 19.4808 22.1933Z" fill="black"/>
<path d="M14.2484 17.8973C14.2074 17.8973 14.166 17.8913 14.1247 17.8787L13.8077 17.7808L9.14602 16.1123C8.93567 16.037 8.82835 15.8116 8.90626 15.6085C8.98418 15.4055 9.21814 15.3024 9.42871 15.3773L14.0818 17.0427L14.3718 17.1319C14.5858 17.1977 14.7037 17.4182 14.6356 17.6243C14.5804 17.7911 14.4205 17.8973 14.2484 17.8973Z" fill="black"/>
<path d="M9.12819 18.7124C9.24153 20.2981 10.3886 21.3597 11.6906 21.0838C12.9927 20.8079 13.9562 19.2988 13.8431 17.7131C13.8358 17.6117 13.8242 17.5124 13.8088 17.4155L10.0404 16.0664C9.42462 16.7153 9.05564 17.698 9.12819 18.7124Z" fill="black"/>
<ellipse cx="10.7368" cy="17.784" rx="0.932375" ry="0.578402" transform="rotate(-79.216 10.7368 17.784)" fill="white"/>
<circle cx="12.27" cy="19.3297" r="0.5" transform="rotate(-82.7613 12.27 19.3297)" fill="white"/>
<path d="M20.8605 17.8973C20.6883 17.8973 20.5286 17.791 20.4735 17.6243C20.4052 17.4182 20.5233 17.1978 20.7373 17.1319L21.0272 17.0427L25.6803 15.3774C25.8911 15.3026 26.1247 15.4057 26.2028 15.6086C26.2807 15.8114 26.1734 16.037 25.963 16.1123L21.2833 17.7868L20.9843 17.8787C20.9431 17.8913 20.9015 17.8973 20.8605 17.8973Z" fill="black"/>
<path d="M25.9808 18.7124C25.8675 20.2981 24.7204 21.3597 23.4183 21.0838C22.1163 20.8079 21.1527 19.2988 21.2659 17.7131C21.2732 17.6117 21.2847 17.5124 21.3002 17.4155L25.0685 16.0664C25.6841 16.7153 26.0531 17.698 25.9808 18.7124Z" fill="black"/>
<ellipse cx="24.3706" cy="17.7796" rx="0.578402" ry="0.932375" transform="rotate(-10.784 24.3706 17.7796)" fill="white"/>
<circle cx="22.8383" cy="19.3274" r="0.5" transform="rotate(-7.23873 22.8383 19.3274)" fill="white"/>
<path d="M29.6633 24.3858C29.405 24.4363 29.1421 24.7929 28.8814 24.8222C28.7299 24.8402 28.5776 24.8495 28.425 24.8499C28.262 24.8493 28.0988 24.8651 27.9358 24.8765C27.814 24.885 27.6922 24.8759 27.5701 24.8802C27.3287 24.8885 27.0864 24.8891 26.8451 24.8781C26.519 24.8632 26.1928 24.8414 25.868 24.8086C25.6757 24.7892 25.486 24.7444 25.2913 24.7438C25.1297 24.6906 24.9589 24.6876 24.7937 24.6518C24.6156 24.6132 24.4353 24.5869 24.2607 24.5307C24.1557 24.4969 24.0479 24.4678 23.9416 24.4419C23.7921 24.4055 23.6507 24.3486 23.5104 24.2931C23.3494 24.2294 23.1832 24.1761 23.0309 24.087C22.9243 24.0247 22.8086 23.976 22.6977 23.9194C22.4418 23.7887 22.2108 23.6211 21.9758 23.4595C21.8273 23.3574 21.6959 23.2328 21.5678 23.1056C21.5115 23.0342 21.4402 22.9764 21.3855 22.9036C21.0701 22.558 20.881 22.1327 20.6505 21.7336C20.1593 20.8831 19.7952 19.9713 19.3801 19.0842C19.2941 18.9004 19.2054 18.7178 19.1179 18.5347C19.0851 18.4636 19.0473 18.3949 19.015 18.3236C18.9517 18.119 18.8784 17.9203 18.7011 17.7821C18.6065 17.702 18.5081 17.6281 18.3939 17.577C18.3416 17.5526 18.2858 17.5366 18.2286 17.5296C17.994 17.4642 17.752 17.4296 17.5086 17.4267C17.3965 17.4088 17.2833 17.4167 17.171 17.411C17.0296 17.4038 16.8898 17.4188 16.7493 17.4199C16.5146 17.424 16.2812 17.4569 16.0544 17.5179C15.9119 17.5174 15.8 17.5937 15.6951 17.675C15.497 17.8284 15.3554 18.024 15.2928 18.2713C15.1592 18.5461 15.0218 18.819 14.8848 19.0921C14.7718 19.3177 14.6707 19.5492 14.5546 19.7733C14.4347 20.0214 14.3147 20.2695 14.1947 20.5176C13.886 21.1522 13.5311 21.7616 13.1603 22.3605C12.9562 22.69 12.6805 22.9643 12.3749 23.2069C12.1669 23.372 11.9399 23.5069 11.7121 23.6382C11.5702 23.7194 11.4239 23.7924 11.2738 23.857C11.1419 23.9143 11.0078 23.9671 10.8743 24.0195C10.7151 24.0839 10.5516 24.1369 10.3849 24.1779C10.2639 24.2065 10.1454 24.2442 10.0231 24.2703C9.83637 24.3101 9.64971 24.3462 9.46094 24.3762C9.24458 24.4105 9.02721 24.4372 8.80981 24.4525C8.66117 24.4629 8.51022 24.4719 8.36395 24.4898C8.09824 24.5222 7.83283 24.4966 7.56775 24.5176C7.43213 24.5274 7.29588 24.5239 7.16096 24.507C7.02274 24.4902 6.88367 24.491 6.74628 24.4845C6.48594 24.472 6.22616 24.4514 5.96766 24.425C5.82002 24.4099 5.67063 24.3916 5.52287 24.3724C5.38032 24.3539 5.23872 24.3268 5.09772 24.3033C4.93524 24.2762 4.76953 24.2537 4.61243 24.1961C4.50864 24.1581 4.39861 24.1398 4.29241 24.1101C4.15062 24.0704 4.01449 24.0168 3.87622 23.9695C3.74023 23.9229 3.60034 23.8736 3.48038 23.7968C3.10134 23.5543 2.68458 23.4403 2.24414 23.3879C2.0118 23.3602 1.77854 23.357 1.54569 23.3456C1.40151 23.3386 1.26062 23.3854 1.11713 23.3991C1.02587 23.4077 0.935293 23.4149 0.845692 23.3806C0.802846 23.3642 0.795357 23.347 0.81659 23.3079C0.843057 23.2591 0.865264 23.208 0.889311 23.1579C0.90313 23.1331 0.919979 23.1102 0.939467 23.0897C0.971565 23.0343 1.01701 22.9889 1.05653 22.9388C1.12543 22.8645 1.17459 22.7755 1.21689 22.6862C1.3275 22.4527 1.45072 22.2212 1.52571 21.9757C1.60518 21.7155 1.57224 21.4512 1.39964 21.2216C1.37294 21.1859 1.33609 21.1592 1.29395 21.1449C1.1688 21.098 1.03591 21.0753 0.902325 21.078C0.785633 21.081 0.668836 21.0796 0.552087 21.0805C0.468746 21.0811 0.394068 21.0569 0.356584 20.9786C0.315906 20.8937 0.36065 20.8215 0.414815 20.7585C0.461933 20.7038 0.512827 20.652 0.564811 20.6018C0.675259 20.4951 0.705276 20.345 0.774378 20.2162C0.87934 20.0204 0.978971 19.8218 1.08057 19.6243C1.22524 19.3423 1.34577 19.0485 1.44087 18.7461C1.51371 18.5211 1.56122 18.2887 1.58248 18.0532C1.59107 17.9509 1.59474 17.8481 1.60155 17.7457C1.62365 17.4135 1.64893 17.0819 1.68119 16.7503C1.70862 16.4684 1.74608 16.1877 1.77447 15.906C1.79364 15.7158 1.8345 15.5279 1.85851 15.3381C1.90593 14.9632 2.0052 14.597 2.04082 14.2202C2.04634 14.2088 2.05074 14.1969 2.05397 14.1846C2.09351 13.7254 2.17158 13.275 2.37007 12.8543C2.4478 12.6895 2.56391 12.5484 2.68704 12.4175C2.79299 12.3048 2.88009 12.1716 3.01489 12.0872C3.18385 11.9301 3.38948 11.8406 3.60462 11.7719C3.70003 11.7415 3.79446 11.71 3.88713 11.672C4.05256 11.6042 4.22954 11.6007 4.40309 11.5996C5.15325 11.5949 5.90346 11.5972 6.65365 11.5978C6.88322 11.598 7.11293 11.5939 7.3423 11.5998C7.46652 11.603 7.59083 11.5901 7.71477 11.6041C7.83523 11.5765 7.95705 11.6019 8.07836 11.5958C8.20451 11.5895 8.33202 11.5918 8.45817 11.5966C8.577 11.6011 8.69557 11.5835 8.81437 11.6005C8.90184 11.613 8.99185 11.6023 9.07889 11.5998C9.2693 11.5942 9.45976 11.6016 9.65005 11.5978C9.75917 11.5955 9.87032 11.5903 9.98117 11.6004C10.0932 11.6105 10.2073 11.5993 10.3204 11.5968C10.4226 11.5947 10.5248 11.5978 10.627 11.5968C10.7675 11.5953 10.9088 11.5916 11.0487 11.5974C11.1675 11.6024 11.2864 11.5979 11.4049 11.6011C11.5736 11.6056 11.7429 11.6057 11.912 11.6055C12.2705 11.6051 12.6289 11.605 12.9874 11.6051C13.4099 11.6055 13.8324 11.6062 14.255 11.6072C14.6941 11.6077 15.1333 11.6077 15.5725 11.6073C15.9895 11.6067 16.4064 11.604 16.8234 11.6039C17.1681 11.6038 17.5127 11.607 17.8574 11.6072C18.2883 11.6074 18.7192 11.6056 19.1501 11.6056C19.5809 11.6056 20.0118 11.6072 20.4427 11.607C20.8819 11.6067 21.3211 11.6044 21.7603 11.6041C22.1244 11.6038 22.4884 11.6064 22.8524 11.6052C23.0574 11.6045 23.2626 11.5906 23.4671 11.5983C23.5779 11.6025 23.6881 11.594 23.7988 11.6003C23.9227 11.6074 24.0474 11.5994 24.1718 11.5981C24.2768 11.597 24.3819 11.5987 24.4869 11.5977C24.633 11.5962 24.7797 11.5936 24.9255 11.5979C25.0387 11.6012 25.1516 11.5919 25.2651 11.6005C25.3833 11.6095 25.5027 11.6037 25.6216 11.6044C25.6588 11.5925 25.6989 11.5935 25.7354 11.6074C25.7479 11.6139 25.7621 11.6161 25.7759 11.6138C25.8972 11.577 26.0222 11.6399 26.1435 11.5988C26.1852 11.5846 26.2254 11.6224 26.2655 11.6132C26.3874 11.5851 26.5115 11.634 26.6333 11.5991C26.6605 11.5921 26.6893 11.5941 26.7154 11.6046C26.7547 11.619 26.7978 11.6193 26.8374 11.6055C26.88 11.5921 26.9257 11.5924 26.9681 11.6062C27.0052 11.6183 27.0452 11.6186 27.0825 11.6071C27.093 11.6039 27.1035 11.596 27.1142 11.5983C27.2396 11.6244 27.3673 11.5813 27.4925 11.6106C27.5382 11.6213 27.5809 11.5914 27.6238 11.5989C27.7449 11.6201 27.866 11.5996 27.987 11.602C28.1054 11.6043 28.225 11.6003 28.3436 11.6011C28.4708 11.6018 28.5982 11.5941 28.7256 11.603C28.8333 11.6104 28.9415 11.6017 29.0496 11.6024C29.2906 11.604 29.5317 11.5993 29.7729 11.6024C29.9946 11.6052 30.2166 11.5981 30.4385 11.5975C30.725 11.5968 31.0094 11.6142 31.2832 11.7086C31.3914 11.7446 31.4949 11.7932 31.5918 11.8535C31.7157 11.9324 31.849 11.9944 31.9675 12.0849C32.0723 12.1649 32.1726 12.2468 32.2562 12.3482C32.3465 12.4578 32.4423 12.5624 32.5362 12.6687C32.6012 12.7162 32.6376 12.7872 32.6742 12.8543C32.7361 12.9683 32.802 13.0817 32.8305 13.2111C32.9259 13.4506 32.9867 13.7026 33.011 13.9594C33.029 14.1661 33.0374 14.374 33.0632 14.5796C33.088 14.7774 33.1012 14.9752 33.1101 15.1739C33.1124 15.1904 33.1166 15.2066 33.1226 15.2221C33.1614 15.4305 33.1612 15.6424 33.1765 15.8528C33.1975 16.1407 33.2143 16.429 33.2386 16.7165C33.2673 17.0555 33.2978 17.3949 33.3563 17.7303C33.3809 17.8717 33.4054 18.0134 33.435 18.154C33.4829 18.4333 33.5453 18.7098 33.6221 18.9825C33.7131 19.2977 33.832 19.6041 33.9776 19.898C34.0646 20.0748 34.1634 20.2457 34.2512 20.422C34.3333 20.5866 34.4376 20.7376 34.5269 20.8974C34.5912 21.0126 34.5867 20.9943 34.6362 21.1181C34.6713 21.2013 34.6018 21.322 34.5269 21.3644C34.4636 21.4038 34.461 21.338 34.3859 21.3388C34.2222 21.3406 34.0408 21.3359 33.8779 21.3644C33.542 21.4231 33.367 21.5001 33.435 21.8392C33.5386 22.3559 33.5653 22.6826 33.8437 23.1276C33.8748 23.1774 33.8969 23.2319 33.9263 23.2819C33.9654 23.348 33.9357 23.3672 33.8779 23.384C33.7614 23.418 33.6438 23.402 33.5311 23.3793C33.1731 23.3074 33.1581 23.352 32.8027 23.3894C32.5374 23.4189 32.2762 23.4776 32.0237 23.5645C31.8596 23.6198 31.7121 23.7081 31.561 23.7909C31.4141 23.8685 31.2628 23.9373 31.1078 23.997C30.9491 24.0606 30.7869 24.1165 30.624 24.1687C30.4468 24.2231 30.267 24.2683 30.0853 24.3042C29.945 24.3337 29.8056 24.367 29.6633 24.3858Z" fill="#1CC3A5"/>
<path fill-rule="evenodd" clip-rule="evenodd" d="M7.57091 11.261L7.59521 11.257C7.63996 11.2507 7.68426 11.2491 7.74277 11.2504L7.88614 11.2557L7.93346 11.2552C7.99344 11.2522 8.0541 11.2509 8.1193 11.2511L8.25694 11.2534L8.33247 11.2559L8.38093 11.2564L8.55261 11.2521C8.61102 11.2519 8.66038 11.2546 8.71165 11.2619L8.72883 11.2638C8.74696 11.2654 8.7681 11.2658 8.79404 11.2652L8.98193 11.2578L9.08205 11.2568L9.39964 11.258L9.67308 11.2536L9.73136 11.2537L9.81133 11.2567L9.90057 11.2629L9.96823 11.2633L10.195 11.2556L10.482 11.2559L10.6855 11.2536L10.8292 11.2542L10.9969 11.2588L11.1957 11.2591L11.3658 11.2625L11.5935 11.2645L12.8362 11.2642L14.099 11.2663C14.5364 11.2667 14.9738 11.2667 15.4111 11.2663L16.5813 11.263L17.688 11.2662L22.6932 11.264L23.0544 11.2559L23.1874 11.2552C23.2203 11.2555 23.2517 11.2563 23.2854 11.2576L23.3653 11.2586L23.5224 11.257L23.5566 11.2574L23.6908 11.2622L23.7456 11.2621L23.9568 11.2575L24.2493 11.2571L24.5792 11.2547L24.6859 11.2559L24.7364 11.2571L24.8079 11.2576L24.9441 11.2559L25.0052 11.2563L25.0322 11.2572L25.1526 11.2638L25.2048 11.2646L25.395 11.2635L25.428 11.2581C25.4667 11.2535 25.5058 11.2546 25.5442 11.2611L25.5728 11.2675L25.6014 11.2632C25.6414 11.2588 25.6828 11.2596 25.7362 11.2639L25.8377 11.2722L25.857 11.2721C25.8618 11.2718 25.8652 11.2711 25.8678 11.2702L25.8969 11.262C25.9355 11.2532 25.9736 11.2527 26.0109 11.2584C26.0194 11.2597 26.0268 11.261 26.0339 11.2626L26.0592 11.2693L26.0753 11.2668C26.1162 11.2619 26.1569 11.2618 26.2112 11.2648L26.2547 11.2676L26.3238 11.271C26.3457 11.2711 26.3592 11.2693 26.373 11.2654C26.4425 11.2478 26.5155 11.2509 26.577 11.2718L26.6029 11.265C26.6674 11.251 26.7343 11.2514 26.7989 11.2662L26.82 11.2721L26.8386 11.266C26.8663 11.2586 26.8955 11.2552 26.9264 11.2577L26.9697 11.2643L26.9992 11.2661C27.0051 11.2662 27.0115 11.2661 27.0186 11.266L27.1222 11.2607C27.188 11.2575 27.2342 11.2579 27.2816 11.2646L27.3085 11.2693L27.3338 11.2635C27.3533 11.2596 27.3697 11.2574 27.3882 11.2568L27.4182 11.2571L27.4377 11.2586L27.4905 11.2657L27.5277 11.2675L27.5758 11.267L27.6721 11.2631L27.7434 11.2609L27.8281 11.2617L28.4159 11.2579L28.4934 11.2603L28.5715 11.2646L28.6168 11.265L28.7812 11.2618L29.4291 11.2605L29.5619 11.2615L29.7243 11.262L30.1805 11.2568L30.3128 11.2571C30.6408 11.2614 30.8922 11.2945 31.1375 11.3786C31.2627 11.42 31.3825 11.476 31.4967 11.5466L31.5309 11.5678L31.7144 11.6734L31.7794 11.7127L31.8346 11.749C31.8522 11.7612 31.8693 11.7736 31.8872 11.7873C32.0338 11.8986 32.1271 11.9809 32.2133 12.085L32.266 12.1475L32.4725 12.3801L32.4793 12.3855C32.5352 12.4319 32.5748 12.4837 32.6173 12.5563L32.6388 12.5943L32.6984 12.7034L32.7427 12.7886C32.7753 12.8542 32.7975 12.9082 32.8146 12.9657L32.8288 13.0193L32.8589 13.0987C32.9293 13.2944 32.9785 13.4972 33.0057 13.7043L33.0174 13.8082L33.0217 13.8585L33.0454 14.1791L33.058 14.322L33.0814 14.5257C33.0974 14.676 33.1081 14.8319 33.1148 14.9998L33.1255 15.0371L33.139 15.1166L33.1495 15.1969C33.1526 15.2246 33.1554 15.2535 33.158 15.2848L33.1652 15.3873L33.1772 15.6041L33.2038 15.9918L33.2386 16.4724L33.272 16.8509L33.2983 17.1036L33.3119 17.2153L33.3263 17.3209L33.3418 17.4232C33.3472 17.4571 33.3529 17.4908 33.3588 17.5249L33.4077 17.7965L33.4373 17.9454C33.4837 18.2142 33.5441 18.4804 33.618 18.7413C33.7048 19.0404 33.8183 19.3312 33.9574 19.6105L33.9932 19.6814L34.1741 20.0208L34.2296 20.1287L34.2675 20.2007L34.3147 20.2826L34.4438 20.4952L34.499 20.59L34.5118 20.6105L34.5297 20.6345L34.556 20.6663L34.6068 20.7258C34.6716 20.8032 34.7056 20.8543 34.7351 20.9278C34.8149 21.1163 34.7673 21.2656 34.5964 21.3614C34.4977 21.4227 34.3937 21.4465 34.2698 21.4478L34.2003 21.4476L34.0105 21.4426L33.9443 21.4427L33.8895 21.4451C33.8811 21.4458 33.8729 21.4465 33.865 21.4473L33.8182 21.4539C33.6102 21.49 33.5505 21.576 33.5921 21.7822C33.6842 22.2394 33.8714 22.6815 34.1521 23.1278L34.1774 23.1708C34.1857 23.1859 34.1944 23.2027 34.2051 23.2239L34.2184 23.2502L34.2526 23.3128C34.2986 23.4038 34.307 23.501 34.2449 23.5969C34.1955 23.6733 34.1396 23.7013 34.0538 23.7262C33.9089 23.7683 33.7774 23.7625 33.5966 23.7263L33.5148 23.7118C33.4202 23.6973 33.3267 23.6909 33.216 23.6922L33.1165 23.6951C33.0642 23.6974 33.0077 23.7011 32.9457 23.7061L32.8139 23.7179L32.6032 23.7395C32.3561 23.7668 32.1127 23.8212 31.8761 23.9022L31.82 23.9226C31.8107 23.9263 31.8013 23.9301 31.7918 23.9341L31.732 23.9612C31.7214 23.9663 31.7106 23.9716 31.6993 23.9773L31.6253 24.0157L31.4497 24.1117C31.2952 24.1929 31.136 24.265 30.9759 24.3262C30.825 24.3864 30.6653 24.4423 30.4755 24.5028C30.2913 24.5591 30.1044 24.6058 29.9183 24.6423L29.6472 24.699L29.5517 24.7158L29.4946 24.7239L29.4103 24.7393L29.3248 24.7528L29.2333 24.7651L29.1311 24.7771L28.5783 24.8336C28.458 24.8444 28.3371 24.8499 28.2151 24.8503C28.1614 24.85 28.1044 24.8518 28.0392 24.8553L28.0173 24.8566L27.7793 24.8736L27.6938 24.8788L27.6398 24.8801L27.4318 24.879L27.218 24.8843C27.0144 24.8884 26.8199 24.8865 26.6313 24.8779C26.2801 24.8619 25.9557 24.8394 25.645 24.8082L25.5549 24.7976L25.3333 24.7657L25.2597 24.7562L25.1987 24.7498L25.1713 24.7477L25.1192 24.7454L25.0561 24.745L24.9998 24.7269L24.9564 24.7155L24.9063 24.7053L24.8438 24.6951L24.653 24.6679L24.5994 24.6589L24.2911 24.5971L24.2038 24.5785L24.1296 24.5611L24.0624 24.5431L23.9254 24.5012C23.8537 24.4799 23.7771 24.4595 23.6939 24.4394L23.6555 24.4297C23.5925 24.4133 23.5334 24.3948 23.4625 24.3695L23.3707 24.3356L22.9981 24.1921L22.9087 24.1553C22.8401 24.1256 22.7839 24.0974 22.7239 24.0625L22.7059 24.0522L22.6474 24.0211L22.4036 23.9028L22.3278 23.8632L22.2544 23.8226L22.1804 23.7791L22.1026 23.7309L21.972 23.6457L21.8153 23.5396L21.6116 23.3988C21.4884 23.3098 21.3749 23.2078 21.2196 23.0544L21.2008 23.0334L21.1746 23.003L21.0854 22.9106L21.0521 22.8741C21.0432 22.8637 21.0362 22.8547 21.0301 22.8461C20.9469 22.7553 20.8765 22.6689 20.8065 22.5694L20.7462 22.4806L20.6844 22.383C20.6739 22.3658 20.6632 22.3482 20.6524 22.3301L20.5849 22.2148L20.5115 22.0847L20.3128 21.7244L20.1918 21.513L20.1543 21.446L20.0803 21.3105L20.0068 21.1716L19.9329 21.0276L19.8577 20.877L19.7803 20.718L19.6582 20.4601L19.5263 20.1741L19.1452 19.3318L18.9933 19.0038L18.7249 18.4439L18.658 18.3099L18.6283 18.2475L18.618 18.2205C18.546 17.9887 18.4878 17.8781 18.3773 17.7922L18.3365 17.7586C18.2574 17.695 18.1925 17.6529 18.1235 17.6222C18.0936 17.6083 18.0618 17.5992 18.0291 17.5952L17.9947 17.5884C17.7806 17.529 17.5597 17.4976 17.3375 17.495L17.3034 17.4921C17.2631 17.4857 17.22 17.4832 17.1481 17.4824L17.0345 17.4808L16.9691 17.4782L16.9221 17.4774L16.8353 17.4794L16.6498 17.4871L16.5879 17.4883C16.3732 17.492 16.1598 17.5219 15.9523 17.5774L15.9221 17.5855L15.8908 17.5854C15.8358 17.5852 15.7806 17.6124 15.6768 17.6924C15.5115 17.8197 15.4061 17.9723 15.359 18.1572L15.3428 18.2014L15.3068 18.2748L14.8957 19.0965L14.7471 19.4071L14.6779 19.5504L14.6076 19.6893L14.2488 20.4272C14.0605 20.812 13.8512 21.1977 13.6051 21.6166L13.453 21.8722C13.4269 21.9155 13.4004 21.9592 13.3734 22.0034L13.2068 22.2738C13.0029 22.6011 12.7272 22.8907 12.3711 23.1719L12.2839 23.2387C12.2399 23.2713 12.195 23.303 12.1475 23.335L12.0486 23.3997C12.0142 23.4216 11.9781 23.444 11.94 23.4672L11.8186 23.5396L11.6816 23.6189C11.5326 23.7037 11.3789 23.78 11.2219 23.8472L11.0499 23.919L10.7166 24.0498C10.58 24.1003 10.4402 24.1431 10.2969 24.1782L10.251 24.1894L10.0094 24.253L9.93157 24.2708C9.72741 24.3141 9.54072 24.3493 9.35934 24.3779C9.12572 24.4148 8.90448 24.4409 8.69033 24.4559L8.38601 24.4783L8.29899 24.487L8.22198 24.4958L8.15143 24.5024L8.11562 24.5048L8.03943 24.5084L7.95244 24.5105L7.62388 24.5126L7.53412 24.5153L7.36314 24.5251C7.24263 24.5291 7.12205 24.5236 7.00302 24.5088L6.96437 24.5046L6.87911 24.4983L6.67178 24.4905L6.45387 24.4797C6.24847 24.4675 6.03754 24.4502 5.81857 24.428L5.75003 24.4208L5.60711 24.4047L5.34035 24.3714L5.25381 24.3588L4.73646 24.2719C4.60759 24.2484 4.51057 24.2242 4.41167 24.1882L4.39357 24.1819L4.35469 24.1698L4.30628 24.157L4.17608 24.1257L4.11026 24.1086L4.02508 24.0834L3.9316 24.0526L3.56683 23.9247C3.4258 23.8735 3.33519 23.8318 3.23827 23.7701L3.16951 23.7282C2.86828 23.552 2.52416 23.4496 2.10503 23.4L2.06663 23.3956L1.9889 23.3881L1.90576 23.3818L1.81218 23.3763L1.40555 23.359C1.38521 23.359 1.36328 23.3605 1.33677 23.3638L1.27675 23.3728L1.18028 23.3901L1.09942 23.4036L1.05478 23.4093L0.979723 23.4161C0.846548 23.426 0.76161 23.4193 0.655822 23.379C0.484483 23.3138 0.415541 23.1453 0.505219 22.981L0.528033 22.9363L0.579018 22.8299C0.597499 22.797 0.619215 22.766 0.643837 22.7374L0.658274 22.7157C0.6725 22.6952 0.688348 22.675 0.709572 22.6496L0.79858 22.5447C0.83205 22.5032 0.863212 22.4499 0.898265 22.3763L0.994917 22.1769L1.06115 22.0377L1.09659 21.9597L1.12641 21.8903L1.15177 21.8264L1.17382 21.7651L1.19372 21.7037C1.25445 21.5059 1.22569 21.3227 1.10431 21.1622L1.1063 21.165L1.04506 21.1449C0.965839 21.122 0.88365 21.1111 0.801908 21.1128L0.772573 21.1135L0.44874 21.1154C0.272411 21.1167 0.120237 21.046 0.0416032 20.8827C-0.0434316 20.7062 0.00922351 20.5575 0.133082 20.4144C0.181059 20.359 0.23339 20.305 0.297252 20.2436L0.307274 20.2333C0.323483 20.2153 0.337614 20.1929 0.355571 20.1555L0.379335 20.1027L0.430641 19.9829L0.451418 19.9399L0.508177 19.8334L0.756142 19.3543L0.832854 19.201C0.941554 18.9748 1.03418 18.7409 1.11036 18.4999C1.17761 18.2934 1.22147 18.08 1.24098 17.8652L1.24263 17.8449L1.26896 17.4286L1.29766 17.0443L1.30766 16.9227L1.32858 16.6866L1.3462 16.5051L1.40304 16.0036L1.43624 15.6997L1.44465 15.6316L1.46215 15.5143L1.50711 15.2372L1.52166 15.1296L1.53695 15.0243L1.55615 14.9097L1.65271 14.3899L1.67228 14.2709L1.68679 14.1664L1.69443 14.0991L1.70175 14.0237L1.71356 13.9991L1.72108 13.9214C1.76881 13.4508 1.85518 13.0689 2.01003 12.7158L2.04699 12.6348C2.1279 12.4642 2.24031 12.315 2.40368 12.1422L2.42941 12.1142L2.52417 12.0043C2.61475 11.9005 2.67427 11.8435 2.75885 11.7885L2.79122 11.7601C2.94331 11.6326 3.11939 11.542 3.3413 11.4655L3.41699 11.4405L3.51966 11.407L3.605 11.3772C3.63142 11.3675 3.65625 11.3579 3.68078 11.3478L3.72071 11.3324C3.85269 11.2839 3.97604 11.2662 4.1623 11.2607L4.28217 11.2587L4.85033 11.2563L6.59737 11.2569L7.01417 11.2559L7.08492 11.2565L7.24655 11.2594L7.46414 11.2565L7.52482 11.2579L7.57091 11.261ZM7.83774 11.7171L7.73921 11.7132L7.71567 11.7128L7.67799 11.7138C7.67254 11.7142 7.66742 11.7146 7.66254 11.7152L7.63514 11.7199L7.59635 11.7287L7.53806 11.7224L7.49913 11.72L7.45299 11.7192L7.33299 11.7211L7.24325 11.722L7.14217 11.72L7.00984 11.7185L5.2012 11.7185L4.23227 11.7219L4.13964 11.7245C4.01252 11.7303 3.93503 11.7444 3.85842 11.7757C3.81459 11.7936 3.77103 11.81 3.72282 11.8269L3.61873 11.862L3.5593 11.8811C3.33519 11.9522 3.18097 12.0302 3.05983 12.1423L3.02478 12.169C2.9901 12.1906 2.9605 12.2159 2.9181 12.2614L2.87079 12.3144L2.77731 12.4226L2.69663 12.5101C2.59045 12.6276 2.51874 12.7276 2.46939 12.8316C2.30552 13.1771 2.21989 13.5618 2.17579 14.0711L2.16905 14.1099L2.15908 14.1419L2.15432 14.1872L2.1442 14.2684L2.13187 14.353L2.11667 14.4456L2.09794 14.551L2.01669 14.9851L1.9935 15.126L1.96495 15.3307L1.91757 15.6223L1.90369 15.7209L1.81391 16.5197L1.79334 16.7293L1.77275 16.9618L1.7629 17.0816L1.74385 17.3308L1.72541 17.5951L1.71289 17.8105L1.70598 17.9052C1.68324 18.1557 1.63245 18.4028 1.55515 18.6402C1.45648 18.9523 1.33141 19.2554 1.18119 19.5467L1.02684 19.8465L0.874278 20.1367L0.860752 20.1633L0.845539 20.197L0.804884 20.293C0.747382 20.4259 0.704974 20.4962 0.622072 20.5759L0.59581 20.6013L0.545267 20.6522L0.63908 20.6522L0.791163 20.6503C0.953935 20.647 1.11585 20.6745 1.2611 20.7288C1.34786 20.758 1.42363 20.8127 1.47814 20.8851C1.69052 21.166 1.74336 21.5026 1.64025 21.8384L1.61649 21.912L1.59082 21.9839L1.56194 22.0573L1.54591 22.0956L1.50985 22.1774L1.44339 22.3196L1.29445 22.6264C1.24271 22.7279 1.191 22.807 1.13298 22.8683L1.07364 22.939L1.20664 22.9153C1.30213 22.8995 1.37015 22.8936 1.44829 22.8974L1.78558 22.9117L1.94144 22.9205L2.0749 22.9313L2.16044 22.9406C2.67711 23.0018 3.10781 23.1373 3.49046 23.3808L3.51468 23.3957C3.54747 23.4149 3.58268 23.4324 3.62574 23.4506L3.69688 23.4789C3.70994 23.4839 3.72366 23.4889 3.73812 23.4941L4.07971 23.6138L4.13768 23.6333L4.18801 23.6491L4.25329 23.6677L4.42855 23.7104L4.49083 23.7272L4.54541 23.7443L4.604 23.7648C4.63575 23.7752 4.66912 23.7845 4.70638 23.7933L4.78678 23.8105C4.81575 23.8161 4.84713 23.8217 4.88158 23.8275L5.32389 23.9013L5.39488 23.9118L5.51075 23.9268L5.66143 23.9452L5.86617 23.9678C6.13181 23.9947 6.38459 24.0142 6.62927 24.0258L6.83891 24.0332L6.95914 24.0399C6.99408 24.0425 7.02735 24.0456 7.06036 24.0496C7.17947 24.0645 7.29977 24.0676 7.41805 24.059L7.44928 24.0567L7.54187 24.0519L7.64844 24.0496L7.89299 24.0485L8.01547 24.0462L8.08204 24.0433L8.14234 24.0388L8.29327 24.0224L8.39358 24.0133L8.77842 23.9848C8.94099 23.9702 9.10932 23.9489 9.28592 23.9211C9.45857 23.8938 9.63732 23.8601 9.83389 23.8184L9.85547 23.8137L9.92463 23.797L10.1083 23.7482L10.1871 23.7285C10.3424 23.6905 10.4947 23.6415 10.6452 23.5809L10.6994 23.5597L10.8716 23.4914L11.0362 23.4228C11.1776 23.3622 11.3155 23.2938 11.4486 23.2181L11.5769 23.1437L11.6898 23.0764L11.7901 23.0143C11.8059 23.0043 11.8213 22.9944 11.8364 22.9845L11.9227 22.9266C11.978 22.8883 12.0293 22.8503 12.0803 22.81C12.3973 22.5597 12.637 22.308 12.8096 22.0308C12.8658 21.9404 12.9203 21.852 12.9732 21.7654L13.127 21.5103C13.4003 21.0513 13.6274 20.637 13.8285 20.2258L14.1899 19.4828L14.2309 19.4029L14.2898 19.283L14.4621 18.9226L14.6597 18.5285L14.9135 18.0181L14.9236 17.9829C14.9978 17.7415 15.139 17.5362 15.3391 17.3683L15.3904 17.3271C15.5595 17.1967 15.6891 17.1302 15.8599 17.1233L15.8587 17.1236L15.8924 17.1227C15.8814 17.1227 15.8705 17.1229 15.8599 17.1233L15.936 17.1045C16.112 17.064 16.2913 17.0389 16.4728 17.0295L16.5819 17.0257L16.6364 17.0246L16.8617 17.0156L16.9266 17.0147L16.9857 17.0158L17.0495 17.0184L17.2061 17.0208C17.2649 17.0224 17.3118 17.0258 17.3601 17.0327L17.3595 17.0327L17.3772 17.0353C17.3715 17.0344 17.3658 17.0335 17.3601 17.0327L17.4556 17.0358C17.643 17.045 17.829 17.0714 18.0115 17.1148L18.1049 17.1389L18.1346 17.1435C18.1828 17.1525 18.2299 17.1658 18.2744 17.1831L18.3181 17.2016C18.4426 17.2571 18.5506 17.3311 18.6721 17.4337L18.7105 17.4648C18.8806 17.6099 18.9697 17.7842 19.0597 18.0702L19.0588 18.0683L19.0641 18.0843C19.0626 18.0796 19.0612 18.0749 19.0597 18.0702L19.129 18.2096L19.4163 18.8083L19.5378 19.0698L19.8574 19.776L19.995 20.0783L20.08 20.2618L20.1605 20.4328L20.2375 20.5929L20.3482 20.8162L20.42 20.9562L20.4913 21.091L20.5629 21.2222L20.5991 21.2869L20.7196 21.4976L20.9551 21.9235L21.0234 22.0422L21.0862 22.1466C21.1876 22.3102 21.2748 22.4257 21.3895 22.5517L21.3977 22.5621L21.4299 22.5983L21.5121 22.6833C21.5194 22.691 21.526 22.6982 21.5322 22.7052L21.558 22.7355L21.6463 22.821C21.7371 22.907 21.8109 22.9701 21.8857 23.0244L21.9233 23.0509L22.1309 23.1933L22.2683 23.2856L22.3467 23.3364L22.4179 23.3806L22.4847 23.42L22.5499 23.4563L22.6343 23.5L22.7733 23.5668L22.865 23.6117L22.9137 23.6373L22.9865 23.6784L23.0415 23.7066L23.1039 23.7348L23.1787 23.7654L23.5317 23.9012L23.6126 23.9313L23.6816 23.955C23.7248 23.9691 23.7635 23.98 23.8047 23.99L23.8935 24.0122C23.9804 24.0346 24.0615 24.0577 24.1389 24.0825L24.166 24.0909L24.2205 24.1064L24.2802 24.1212L24.3505 24.1367L24.6671 24.2006L24.7305 24.2117L24.9137 24.2376L24.9855 24.2492L25.0471 24.2612L25.1032 24.2749L25.1318 24.2828L25.163 24.2839L25.2307 24.2881C25.2539 24.29 25.278 24.2924 25.3042 24.2954L25.3899 24.3064L25.6141 24.3387L25.6921 24.3479C25.9937 24.3782 26.3096 24.4001 26.6527 24.4158C26.8752 24.4259 27.1078 24.4262 27.3563 24.4177L27.4031 24.4166L27.6616 24.4169L27.7123 24.4145L27.916 24.3995L28.0847 24.39C28.1307 24.3883 28.1739 24.3874 28.2154 24.3876C28.3583 24.3872 28.5011 24.3786 28.6445 24.3616L29.0324 24.3224L29.1431 24.31L29.24 24.2974L29.3298 24.2836L29.419 24.2676L29.4736 24.2597L29.5016 24.2551L29.5961 24.2373L29.9542 24.1619C30.0833 24.1332 30.2108 24.0996 30.3353 24.0616C30.5126 24.005 30.6623 23.9526 30.8048 23.8958C30.9505 23.84 31.0928 23.7756 31.228 23.7046L31.4122 23.604C31.4279 23.5956 31.443 23.5877 31.4575 23.5802L31.5394 23.5395C31.6038 23.5089 31.6609 23.486 31.7251 23.4644C31.9929 23.3728 32.27 23.3108 32.5529 23.2795L32.6998 23.2642L32.8548 23.2494L32.9932 23.2385C33.277 23.2191 33.4643 23.228 33.6888 23.2728L33.6951 23.2737L33.6298 23.1619C33.4096 22.7751 33.2516 22.3854 33.1582 21.983L33.1344 21.8729C33.0413 21.4111 33.2722 21.0791 33.7376 20.9982C33.8237 20.9832 33.8972 20.9786 34.0056 20.9799L34.2165 20.9851L34.1662 20.9249C34.1415 20.8942 34.1231 20.8685 34.1054 20.8394L34.0552 20.7528L33.8902 20.4795L33.8563 20.4199L33.8263 20.3635L33.7893 20.2906L33.6631 20.0534L33.5514 19.8404L33.4755 19.6839C33.3528 19.4206 33.2504 19.1481 33.169 18.8678C33.0903 18.5898 33.0263 18.308 32.9789 18.0318L32.9703 17.9903L32.9357 17.8106L32.8897 17.55L32.8645 17.3884L32.8494 17.2776L32.8282 17.0997L32.8146 16.9691L32.7938 16.7479L32.7678 16.4405L32.717 15.721L32.6973 15.3834L32.6881 15.2722L32.6765 15.1799L32.669 15.1359L32.665 15.1218C32.6611 15.1074 32.6578 15.0913 32.6548 15.0725L32.6505 15.0419C32.6406 14.8219 32.6269 14.6423 32.6053 14.4713L32.5938 14.3706L32.587 14.2998L32.5526 13.85C32.5304 13.6173 32.475 13.3891 32.3882 13.1721L32.3771 13.1363C32.367 13.0905 32.3516 13.0489 32.3209 12.9871L32.2847 12.9176L32.2291 12.8159L32.2051 12.7746C32.1915 12.7528 32.1822 12.7419 32.1739 12.7359L32.1367 12.7022L31.9299 12.4697L31.83 12.3525C31.7913 12.3094 31.746 12.2677 31.6849 12.2182L31.6033 12.1544L31.5656 12.1272L31.5232 12.0996L31.4702 12.0678L31.3195 11.9815L31.2474 11.9378C31.1665 11.8877 31.08 11.8473 30.9873 11.8166C30.7763 11.7443 30.5485 11.7185 30.2225 11.7193L30.183 11.7195L29.685 11.7248L29.4269 11.7231L28.8134 11.7241L28.6442 11.7275L28.5816 11.7276L28.554 11.7269L28.4692 11.7223L28.4053 11.7205L28.3455 11.7206L27.8757 11.7244L27.7462 11.7236L27.5738 11.7299C27.5214 11.7311 27.4808 11.7301 27.44 11.726L27.4058 11.7215L27.3725 11.7289C27.3366 11.7357 27.3066 11.7377 27.2711 11.733L27.2231 11.724C27.2195 11.7235 27.2156 11.723 27.2115 11.7226L27.1815 11.7217L27.1377 11.7231L27.06 11.7274C27.0112 11.7297 26.9723 11.7296 26.9344 11.7261L26.9227 11.7246L26.9056 11.729C26.8489 11.7403 26.7904 11.7398 26.7341 11.7277L26.6977 11.7178L26.6722 11.7256C26.6061 11.7414 26.5366 11.7407 26.4667 11.7224L26.4608 11.7204L26.4332 11.7263C26.3831 11.735 26.3348 11.7358 26.2668 11.732L26.1596 11.7258L26.1346 11.7263C26.1277 11.7268 26.1221 11.7277 26.117 11.7289L26.085 11.7344C26.0534 11.738 26.0229 11.7363 25.993 11.7308L25.983 11.7288L25.9623 11.7236L25.9528 11.726C25.9 11.7367 25.849 11.7374 25.7815 11.7324L25.6913 11.7245L25.665 11.7234L25.6497 11.7243L25.6158 11.7322C25.5731 11.7393 25.5296 11.7371 25.4883 11.726L25.4741 11.7213L25.459 11.7263L25.4217 11.7261L25.1848 11.7271L25.1154 11.7255L25.0111 11.7194L24.9669 11.7185L24.779 11.7204L24.6278 11.7177L24.5211 11.7174L24.2516 11.7197L24.0082 11.7196L23.7449 11.7248L23.6517 11.7242L23.5535 11.7201L23.5068 11.7196L23.314 11.7211L23.1805 11.7178L23.1178 11.7178L23.0242 11.7192L22.7931 11.7251L22.7053 11.7266L17.6871 11.7288L16.6577 11.7256L14.7551 11.7292L14.0982 11.7289L12.8359 11.7268L11.5907 11.7271L11.4657 11.7264L11.1905 11.7217L11.0098 11.7216L10.9417 11.7205L10.8947 11.719L10.7782 11.7162L10.687 11.7162L10.2026 11.7182L10.0411 11.724L9.96716 11.7261L9.90547 11.726C9.8958 11.7258 9.88634 11.7255 9.87693 11.725L9.76354 11.7175L9.69731 11.7162L9.40215 11.7207L9.08359 11.7194L8.99139 11.7204L8.94888 11.7214L8.82275 11.7272L8.74938 11.7279C8.71322 11.7272 8.67933 11.7247 8.64529 11.7198L8.62464 11.7174C8.59614 11.7147 8.56314 11.7141 8.51858 11.7152L8.3816 11.7191L8.33703 11.7188L8.18115 11.7144C8.09823 11.713 8.02623 11.7138 7.95696 11.7173L7.91963 11.7185C7.89446 11.7188 7.8682 11.7183 7.83774 11.7171Z" fill="black"/>
<path fill-rule="evenodd" clip-rule="evenodd" d="M2.28658 13.9203C1.34518 13.9203 0.582031 14.6834 0.582031 15.6248C0.582031 16.5662 1.34518 17.3294 2.28658 17.3294H7.16158C8.10297 17.3294 8.86612 16.5662 8.86612 15.6248C8.86612 14.6834 8.10297 13.9203 7.16158 13.9203H2.28658ZM4.67294 16.4771C5.0495 16.4771 5.35476 16.1718 5.35476 15.7953C5.35476 15.4187 5.0495 15.1135 4.67294 15.1135C4.29638 15.1135 3.99112 15.4187 3.99112 15.7953C3.99112 16.1718 4.29638 16.4771 4.67294 16.4771Z" fill="#F9F154"/>
<path fill-rule="evenodd" clip-rule="evenodd" d="M9.10303 14.7646C9.07558 14.2968 8.72354 13.9203 8.28352 13.9203H1.40327L1.34874 13.9222C0.916463 13.9531 0.582031 14.3487 0.582031 14.8235V16.7671L0.583756 16.826C0.611215 17.2937 0.963247 17.6703 1.40327 17.6703H8.28352L8.33805 17.6683C8.77033 17.6375 9.10476 17.2419 9.10476 16.7671V14.8235L9.10303 14.7646ZM1.40327 14.2612H8.28352L8.32653 14.2635C8.56775 14.2889 8.76385 14.5262 8.76385 14.8235V16.7671L8.76184 16.8189C8.7393 17.1086 8.52953 17.3294 8.28352 17.3294H1.40327L1.36026 17.3271C1.11904 17.3017 0.92294 17.0644 0.92294 16.7671V14.8235L0.924945 14.7717C0.947494 14.482 1.15726 14.2612 1.40327 14.2612ZM4.65301 14.9C5.15252 14.9 5.54789 15.3044 5.54789 15.794C5.54789 16.2836 5.15252 16.688 4.65301 16.688C4.15349 16.688 3.75812 16.2836 3.75812 15.794C3.75812 15.3044 4.15349 14.9 4.65301 14.9ZM4.09903 15.794C4.09903 15.4843 4.35269 15.2409 4.65301 15.2409C4.95333 15.2409 5.20699 15.4843 5.20699 15.794C5.20699 16.1037 4.95333 16.3471 4.65301 16.3471C4.35269 16.3471 4.09903 16.1037 4.09903 15.794Z" fill="black"/>
<path fill-rule="evenodd" clip-rule="evenodd" d="M77.3951 28.4212C77.2358 28.5087 77.0652 28.5525 76.8832 28.5525C76.6452 28.5525 76.4299 28.4912 76.2374 28.3687C76.0449 28.2462 75.8927 28.0756 75.7807 27.8569C75.6687 27.6381 75.6127 27.3922 75.6127 27.1192C75.6127 26.8462 75.6678 26.6004 75.7781 26.3816C75.8883 26.1629 76.0397 25.9922 76.2322 25.8697C76.4247 25.7472 76.6364 25.686 76.8674 25.686C77.0529 25.686 77.2244 25.7245 77.3819 25.8015C77.5394 25.8785 77.6672 25.9782 77.7652 26.1007V24.867C77.7652 24.7935 77.7879 24.7331 77.8334 24.6859C77.8789 24.6386 77.9384 24.615 78.0119 24.615C78.0854 24.615 78.1458 24.6386 78.1931 24.6859C78.2403 24.7331 78.2639 24.7935 78.2639 24.867V28.248C78.2639 28.318 78.2403 28.3775 78.1931 28.4265C78.1458 28.4755 78.0854 28.5 78.0119 28.5C77.9384 28.5 77.8789 28.4764 77.8334 28.4291C77.7879 28.3819 77.7652 28.3215 77.7652 28.248V28.101C77.6777 28.227 77.5543 28.3337 77.3951 28.4212ZM66.4278 28.4265C66.3806 28.4755 66.3184 28.5 66.2414 28.5C66.1644 28.5 66.1014 28.4764 66.0524 28.4291C66.0034 28.3819 65.9789 28.3215 65.9789 28.248V25.8172L64.9604 27.3607C64.9359 27.3922 64.9053 27.4185 64.8686 27.4395C64.8441 27.4535 64.8192 27.462 64.7939 27.4652L64.7557 27.4657C64.7207 27.4692 64.6848 27.4605 64.6481 27.4395C64.6113 27.4185 64.5807 27.3922 64.5562 27.3607L63.5324 25.77V28.248C63.5324 28.3215 63.5106 28.3819 63.4668 28.4291C63.4231 28.4764 63.3644 28.5 63.2909 28.5C63.2209 28.5 63.1641 28.4764 63.1203 28.4291C63.0766 28.3819 63.0547 28.3215 63.0547 28.248V25.0717C63.0547 25.0052 63.0792 24.9466 63.1282 24.8959C63.1772 24.8451 63.2384 24.8197 63.3119 24.8197C63.3539 24.8197 63.3951 24.8302 63.4353 24.8512C63.4756 24.8722 63.5079 24.9002 63.5324 24.9352L64.7767 26.82L66.0367 24.9352C66.0927 24.8582 66.1627 24.8197 66.2467 24.8197C66.3167 24.8232 66.3762 24.8486 66.4252 24.8959C66.4742 24.9431 66.4987 25.0017 66.4987 25.0717V28.248C66.4987 28.318 66.4751 28.3775 66.4278 28.4265ZM71.5439 28.4239C71.3864 28.5096 71.2167 28.5525 71.0347 28.5525C70.7967 28.5525 70.5806 28.4912 70.3863 28.3687C70.1921 28.2462 70.0398 28.0756 69.9296 27.8569C69.8193 27.6381 69.7642 27.3922 69.7642 27.1192C69.7642 26.8462 69.8193 26.6004 69.9296 26.3816C70.0398 26.1629 70.1912 25.9922 70.3837 25.8697C70.5762 25.7472 70.7879 25.686 71.0189 25.686C71.2044 25.686 71.3768 25.7245 71.5361 25.8015C71.6953 25.8785 71.8222 25.9765 71.9167 26.0955V25.9695C71.9167 25.896 71.9394 25.8347 71.9849 25.7857C72.0304 25.7367 72.0899 25.7122 72.1634 25.7122C72.2369 25.7122 72.2973 25.7359 72.3446 25.7831C72.3918 25.8304 72.4154 25.8925 72.4154 25.9695V28.248C72.4154 28.318 72.3918 28.3775 72.3446 28.4265C72.2973 28.4755 72.2369 28.5 72.1634 28.5C72.0899 28.5 72.0304 28.4764 71.9849 28.4291C71.9394 28.3819 71.9167 28.3215 71.9167 28.248V28.1115C71.8257 28.234 71.7014 28.3381 71.5439 28.4239ZM71.0924 28.0905C70.9279 28.0905 70.7818 28.0485 70.6541 27.9645C70.5263 27.8805 70.4266 27.765 70.3548 27.618C70.2831 27.471 70.2472 27.3047 70.2472 27.1192C70.2472 26.9337 70.2831 26.7675 70.3548 26.6205C70.4266 26.4735 70.5263 26.358 70.6541 26.274C70.7818 26.19 70.9279 26.148 71.0924 26.148C71.2569 26.148 71.4031 26.1909 71.5308 26.2766C71.6586 26.3624 71.7583 26.4787 71.8301 26.6257C71.9018 26.7727 71.9377 26.9372 71.9377 27.1192C71.9377 27.3047 71.9018 27.471 71.8301 27.618C71.7583 27.765 71.6586 27.8805 71.5308 27.9645C71.4031 28.0485 71.2569 28.0905 71.0924 28.0905ZM76.9409 28.0905C76.7764 28.0905 76.6303 28.0485 76.5026 27.9645C76.3748 27.8805 76.2751 27.765 76.2033 27.618C76.1316 27.471 76.0957 27.3047 76.0957 27.1192C76.0957 26.9372 76.1316 26.7719 76.2033 26.6231C76.2751 26.4744 76.3748 26.358 76.5026 26.274C76.6303 26.19 76.7764 26.148 76.9409 26.148C77.1054 26.148 77.2516 26.19 77.3793 26.274C77.5071 26.358 77.6068 26.4744 77.6786 26.6231C77.7503 26.7719 77.7862 26.9372 77.7862 27.1192C77.7862 27.3047 77.7503 27.471 77.6786 27.618C77.6068 27.765 77.5071 27.8805 77.3793 27.9645C77.2516 28.0485 77.1054 28.0905 76.9409 28.0905ZM83.3984 28.4475C83.2304 28.5175 83.0589 28.5525 82.8839 28.5525C82.6004 28.5525 82.3511 28.493 82.1358 28.374C81.9206 28.255 81.7543 28.0887 81.6371 27.8752C81.5198 27.6617 81.4612 27.4202 81.4612 27.1507C81.4612 26.8567 81.5216 26.5986 81.6423 26.3764C81.7631 26.1541 81.9223 25.9835 82.1201 25.8645C82.3178 25.7455 82.5304 25.686 82.7579 25.686C82.9819 25.686 83.1919 25.7437 83.3879 25.8592C83.5839 25.9747 83.7414 26.134 83.8604 26.337C83.9794 26.54 84.0407 26.7675 84.0442 27.0195C84.0407 27.0825 84.0144 27.1359 83.9654 27.1796C83.9164 27.2234 83.8587 27.2452 83.7922 27.2452H81.9442C81.9687 27.5007 82.0658 27.7055 82.2356 27.8595C82.4053 28.0135 82.6127 28.0905 82.8577 28.0905C83.0257 28.0905 83.1622 28.066 83.2672 28.017C83.3722 27.968 83.4649 27.905 83.5454 27.828C83.5979 27.7965 83.6487 27.7807 83.6977 27.7807C83.7572 27.7807 83.8071 27.8017 83.8473 27.8437C83.8876 27.8857 83.9077 27.9347 83.9077 27.9907C83.9077 28.0642 83.8727 28.1307 83.8027 28.1902C83.7012 28.2917 83.5664 28.3775 83.3984 28.4475ZM83.5139 26.8252H81.9652C82.0107 26.5942 82.1052 26.4236 82.2487 26.3134C82.3922 26.2031 82.5619 26.148 82.7579 26.148C82.9469 26.148 83.1158 26.2075 83.2646 26.3265C83.4133 26.4455 83.4964 26.5977 83.5139 26.7832V26.8252ZM93.3524 28.3687C93.1599 28.4912 92.9482 28.5525 92.7172 28.5525C92.5352 28.5525 92.3654 28.5122 92.2079 28.4317C92.0504 28.3512 91.9227 28.2515 91.8247 28.1325V28.2847C91.8247 28.3547 91.8011 28.4142 91.7538 28.4632C91.7066 28.5122 91.6462 28.5367 91.5727 28.5367C91.5027 28.5367 91.4441 28.5131 91.3968 28.4659C91.3496 28.4186 91.3259 28.3582 91.3259 28.2847V24.867C91.3259 24.7935 91.3487 24.7331 91.3942 24.6859C91.4397 24.6386 91.4992 24.615 91.5727 24.615C91.6462 24.615 91.7066 24.6395 91.7538 24.6885C91.8011 24.7375 91.8247 24.797 91.8247 24.867V26.148C91.9087 26.022 92.0312 25.9135 92.1922 25.8225C92.3532 25.7315 92.5247 25.686 92.7067 25.686C92.9447 25.686 93.1599 25.7472 93.3524 25.8697C93.5449 25.9922 93.6963 26.162 93.8066 26.379C93.9168 26.596 93.9719 26.841 93.9719 27.114C93.9719 27.387 93.9168 27.6337 93.8066 27.8542C93.6963 28.0747 93.5449 28.2462 93.3524 28.3687ZM92.6489 28.0905C92.4844 28.0905 92.3374 28.0476 92.2079 27.9619C92.0784 27.8761 91.9778 27.7597 91.9061 27.6127C91.8343 27.4657 91.7984 27.2995 91.7984 27.114C91.7984 26.9285 91.8343 26.7631 91.9061 26.6179C91.9778 26.4726 92.0784 26.358 92.2079 26.274C92.3374 26.19 92.4844 26.148 92.6489 26.148C92.8099 26.148 92.9552 26.19 93.0847 26.274C93.2142 26.358 93.3148 26.4735 93.3866 26.6205C93.4583 26.7675 93.4942 26.932 93.4942 27.114C93.4942 27.296 93.4583 27.4614 93.3866 27.6101C93.3148 27.7589 93.2142 27.8761 93.0847 27.9619C92.9552 28.0476 92.8099 28.0905 92.6489 28.0905ZM99.1117 29.2245C98.8702 29.4415 98.5517 29.55 98.1562 29.55C98.0267 29.55 97.8989 29.5377 97.7729 29.5132C97.6469 29.4887 97.5437 29.4555 97.4632 29.4135C97.3337 29.354 97.2689 29.2735 97.2689 29.172C97.2689 29.1545 97.2724 29.1317 97.2794 29.1037C97.3004 29.0442 97.3302 28.9987 97.3687 28.9672C97.4072 28.9357 97.4509 28.92 97.4999 28.92C97.5279 28.92 97.5542 28.9252 97.5787 28.9357C97.6872 28.9847 97.7834 29.0232 97.8674 29.0512C97.9514 29.0792 98.0494 29.0932 98.1614 29.0932C98.7039 29.0932 98.9752 28.815 98.9752 28.2585V28.1535C98.8807 28.2795 98.7591 28.3775 98.6103 28.4475C98.4616 28.5175 98.2909 28.5525 98.0984 28.5525C97.8079 28.5525 97.5813 28.4597 97.4186 28.2742C97.2558 28.0887 97.1744 27.8455 97.1744 27.5445V25.9747C97.1744 25.9012 97.1972 25.8409 97.2427 25.7936C97.2882 25.7464 97.3477 25.7227 97.4212 25.7227C97.4947 25.7227 97.5551 25.7472 97.6023 25.7962C97.6496 25.8452 97.6732 25.9047 97.6732 25.9747V27.4132C97.6732 27.6442 97.7239 27.8149 97.8254 27.9251C97.9269 28.0354 98.0809 28.0905 98.2874 28.0905C98.4869 28.0905 98.6514 28.0275 98.7809 27.9015C98.9104 27.7755 98.9752 27.6127 98.9752 27.4132V25.9747C98.9752 25.9012 98.9979 25.8409 99.0434 25.7936C99.0889 25.7464 99.1484 25.7227 99.2219 25.7227C99.2954 25.7227 99.3558 25.7472 99.4031 25.7962C99.4503 25.8452 99.4739 25.9047 99.4739 25.9747V28.2427C99.4739 28.6802 99.3532 29.0075 99.1117 29.2245ZM108.163 28.5C108.24 28.5 108.304 28.4755 108.354 28.4265C108.405 28.3775 108.43 28.318 108.43 28.248V25.3027H109.365C109.438 25.3027 109.499 25.2817 109.546 25.2397C109.593 25.1977 109.617 25.14 109.617 25.0665C109.617 24.993 109.593 24.9344 109.546 24.8906C109.499 24.8469 109.438 24.825 109.365 24.825H106.966C106.892 24.825 106.832 24.8469 106.785 24.8906C106.737 24.9344 106.714 24.9912 106.714 25.0612C106.714 25.1347 106.737 25.1934 106.785 25.2371C106.832 25.2809 106.892 25.3027 106.966 25.3027H107.895V28.248C107.895 28.318 107.92 28.3775 107.971 28.4265C108.022 28.4755 108.086 28.5 108.163 28.5ZM115.106 28.4344C115.059 28.4781 114.998 28.5 114.925 28.5H113.098C113.028 28.5 112.968 28.4755 112.919 28.4265C112.87 28.3775 112.846 28.318 112.846 28.248V25.077C112.846 25.007 112.87 24.9475 112.919 24.8985C112.968 24.8495 113.028 24.825 113.098 24.825H114.925C114.998 24.825 115.059 24.8477 115.106 24.8932C115.153 24.9387 115.177 24.9982 115.177 25.0717C115.177 25.1417 115.153 25.1986 115.106 25.2424C115.059 25.2861 114.998 25.308 114.925 25.308H113.365V26.379H114.688C114.762 26.379 114.822 26.4017 114.87 26.4472C114.917 26.4927 114.94 26.5505 114.94 26.6205C114.94 26.694 114.917 26.7517 114.87 26.7937C114.822 26.8357 114.762 26.8567 114.688 26.8567H113.365V28.017H114.925C114.998 28.017 115.059 28.0415 115.106 28.0905C115.153 28.1395 115.177 28.1972 115.177 28.2637C115.177 28.3337 115.153 28.3906 115.106 28.4344ZM121.03 28.5105C121.104 28.5105 121.17 28.486 121.227 28.437C121.285 28.388 121.314 28.325 121.314 28.248C121.314 28.1815 121.295 28.1237 121.256 28.0747L119.959 26.4L121.204 25.224C121.253 25.168 121.277 25.1137 121.277 25.0612C121.277 25.0017 121.254 24.9457 121.209 24.8932C121.163 24.8407 121.109 24.8145 121.046 24.8145C120.98 24.8145 120.913 24.8442 120.847 24.9037L118.983 26.7097V25.077C118.983 25.0035 118.959 24.9431 118.912 24.8959C118.865 24.8486 118.803 24.825 118.726 24.825C118.649 24.825 118.586 24.8495 118.537 24.8985C118.488 24.9475 118.463 25.007 118.463 25.077V28.2427C118.463 28.3162 118.487 28.3775 118.534 28.4265C118.581 28.4755 118.643 28.5 118.72 28.5C118.797 28.5 118.86 28.4755 118.909 28.4265C118.958 28.3775 118.983 28.3162 118.983 28.2427V27.3292L119.571 26.7727L120.847 28.416C120.899 28.479 120.96 28.5105 121.03 28.5105ZM125.952 28.4265C125.905 28.4755 125.848 28.5 125.782 28.5C125.712 28.5 125.652 28.4755 125.603 28.4265C125.554 28.3775 125.53 28.318 125.53 28.248V26.7675L124.406 25.2502C124.357 25.1872 124.333 25.1242 124.333 25.0612C124.333 24.9912 124.361 24.9317 124.417 24.8827C124.473 24.8337 124.534 24.8092 124.6 24.8092C124.681 24.8092 124.749 24.8477 124.805 24.9247L125.792 26.2897L126.742 24.93C126.798 24.8495 126.868 24.8092 126.952 24.8092C127.019 24.8092 127.077 24.8337 127.126 24.8827C127.175 24.9317 127.199 24.9912 127.199 25.0612C127.199 25.1137 127.183 25.1662 127.152 25.2187L126.023 26.8095V28.248C126.023 28.318 126 28.3775 125.952 28.4265Z" fill="black"/>
</svg>
